{
.appVersion = "1352";
classes = (
{
automatic = 1;

glyphs = (
{
color = 8;
glyphname = A;
lastChange = "2021-02-28 14:49:18 +0000";
layers = (
{
anchors = (
{
name = bottom;
position = "{845, 0}";
},
{
name = ogonek;
position = "{1590, 0}";
},
{
name = top;
position = "{845, 1500}";
}
);
layerId = "CA54B7DC-FBBB-40FE-ACF3-AABDD76D6A7B";
paths = (
{
closed = 1;
nodes = (
"520 0 LINE",
"520 44 LINE",
"251 44 LINE",
"851 1453 LINE",
"834 1453 LINE",
"1435 44 LINE",
"1166 44 LINE",
"1166 0 LINE",
"1662 0 LINE",
"1662 44 LINE",
"1487 44 LINE",
"864 1500 LINE",
"826 1500 LINE",
"203 44 LINE",
"28 44 LINE",
"28 0 LINE"
);
},
{
closed = 1;
nodes = (
"1252 560 LINE",
"436 560 LINE",
"436 516 LINE",
"1252 516 LINE"
);
}
);
width = 1690;
},
{
anchors = (
{
name = bottom;
position = "{827, 0}";
},
{
name = ogonek;
position = "{1543, 0}";
},
{
name = top;
position = "{827, 1500}";
}
);
layerId = "1E61A082-F045-49A7-AB52-DD1B03FD9B54";
paths = (
{
closed = 1;
nodes = (
"546 0 LINE",
"546 36 LINE",
"255 36 LINE",
"831 1453 LINE",
"814 1453 LINE",
"1390 36 LINE",
"1099 36 LINE",
"1099 0 LINE",
"1625 0 LINE",
"1625 36 LINE",
"1442 36 LINE",
"845 1500 LINE",
"809 1500 LINE",
"212 36 LINE",
"29 36 LINE",
"29 0 LINE"
);
},
{
closed = 1;
nodes = (
"1213 558 LINE",
"437 558 LINE",
"437 520 LINE",
"1213 520 LINE"
);
}
);
width = 1654;
},
{
anchors = (
{
name = bottom;
position = "{912, 0}";
},
{
name = ogonek;
position = "{1642, 0}";
},
{
name = top;
position = "{912, 1500}";
}
);
layerId = "219068EA-2B9B-40DC-949E-B60449C01B8A";
paths = (
{
closed = 1;
nodes = (
"660 0 LINE",
"660 214 LINE",
"454 214 LINE",
"895 1269 LINE",
"764 1270 LINE",
"1194 214 LINE",
"986 214 LINE",
"986 0 LINE",
"1790 0 LINE",
"1790 214 LINE",
"1651 214 LINE",
"1106 1500 LINE",
"718 1500 LINE",
"173 214 LINE",
"34 214 LINE",
"34 0 LINE"
);
},
{
closed = 1;
nodes = (
"1184 649 LINE",
"486 649 LINE",
"486 425 LINE",
"1184 425 LINE"
);
}
);
width = 1824;
},
{
anchors = (
{
name = bottom;
position = "{882, 0}";
},
{
name = ogonek;
position = "{1598, 0}";
},
{
name = top;
position = "{882, 1500}";
}
);
layerId = "0C29AA02-E021-4BD1-A2C4-87F681D64C35";
paths = (
{
closed = 1;
nodes = (
"635 0 LINE",
"635 196 LINE",
"413 196 LINE",
"849 1269 LINE",
"710 1270 LINE",
"1138 196 LINE",
"915 196 LINE",
"915 0 LINE",
"1738 0 LINE",
"1738 196 LINE",
"1592 196 LINE",
"1056 1500 LINE",
"707 1500 LINE",
"171 196 LINE",
"25 196 LINE",
"25 0 LINE"
);
},
{
closed = 1;
nodes = (
"1134 633 LINE",
"436 633 LINE",
"436 433 LINE",
"1134 433 LINE"
);
}
);
width = 1763;
}
);
leftKerningGroup = A;
rightKerningGroup = A;
unicode = 0041;
},
{
color = 8;
glyphname = B;
lastChange = "2021-02-28 14:49:19 +0000";
layers = (
{
anchors = (
{
name = bottom;
position = "{769, 0}";
},
{
name = top;
position = "{769, 1500}";
}
);
layerId = "CA54B7DC-FBBB-40FE-ACF3-AABDD76D6A7B";
paths = (
{
closed = 1;
nodes = (
"358 1500 LINE",
"358 1456 LINE",
"904 1456 LINE SMOOTH",
"1152 1456 OFFCURVE",
"1308 1343 OFFCURVE",
"1308 1121 CURVE SMOOTH",
"1308 899 OFFCURVE",
"1152 785 OFFCURVE",
"904 785 CURVE SMOOTH",
"358 785 LINE",
"358 756 LINE",
"916 755 LINE SMOOTH",
"1190 754 OFFCURVE",
"1356 880 OFFCURVE",
"1356 1121 CURVE SMOOTH",
"1356 1371 OFFCURVE",
"1180 1500 OFFCURVE",
"916 1500 CURVE SMOOTH"
);
},
{
closed = 1;
nodes = (
"358 773 LINE",
"358 741 LINE",
"948 741 LINE SMOOTH",
"1204 741 OFFCURVE",
"1364 622 OFFCURVE",
"1364 392 CURVE SMOOTH",
"1364 162 OFFCURVE",
"1204 44 OFFCURVE",
"948 44 CURVE SMOOTH",
"358 44 LINE",
"358 0 LINE",
"960 0 LINE SMOOTH",
"1232 0 OFFCURVE",
"1412 133 OFFCURVE",
"1412 391 CURVE SMOOTH",
"1412 646 OFFCURVE",
"1241 773 OFFCURVE",
"960 773 CURVE SMOOTH"
);
},
{
closed = 1;
nodes = (
"358 1500 LINE",
"77 1500 LINE",
"77 1456 LINE",
"310 1456 LINE",
"310 44 LINE",
"72 44 LINE",
"72 0 LINE",
"358 0 LINE"
);
}
);
width = 1538;
},
{
anchors = (
{
name = bottom;
position = "{730, 0}";
},
{
name = top;
position = "{730, 1500}";
}
);
layerId = "1E61A082-F045-49A7-AB52-DD1B03FD9B54";
paths = (
{
closed = 1;
nodes = (
"347 1500 LINE",
"347 1462 LINE",
"853 1462 LINE SMOOTH",
"1101 1462 OFFCURVE",
"1257 1347 OFFCURVE",
"1257 1122 CURVE SMOOTH",
"1257 897 OFFCURVE",
"1101 781 OFFCURVE",
"853 781 CURVE SMOOTH",
"347 781 LINE",
"347 758 LINE",
"865 757 LINE SMOOTH",
"1139 756 OFFCURVE",
"1305 881 OFFCURVE",
"1305 1121 CURVE SMOOTH",
"1305 1371 OFFCURVE",
"1129 1500 OFFCURVE",
"865 1500 CURVE SMOOTH"
);
},
{
closed = 1;
nodes = (
"347 769 LINE",
"347 743 LINE",
"897 743 LINE SMOOTH",
"1153 743 OFFCURVE",
"1313 623 OFFCURVE",
"1313 390 CURVE SMOOTH",
"1313 157 OFFCURVE",
"1153 38 OFFCURVE",
"897 38 CURVE SMOOTH",
"347 38 LINE",
"347 0 LINE",
"909 0 LINE SMOOTH",
"1181 0 OFFCURVE",
"1361 133 OFFCURVE",
"1361 391 CURVE SMOOTH",
"1361 643 OFFCURVE",
"1190 769 OFFCURVE",
"909 769 CURVE SMOOTH"
);
},
{
closed = 1;
nodes = (
"347 1500 LINE",
"51 1500 LINE",
"51 1464 LINE",
"299 1464 LINE",
"299 36 LINE",
"46 36 LINE",
"46 0 LINE",
"347 0 LINE"
);
}
);
width = 1459;
},
{
anchors = (
{
name = bottom;
position = "{829, 0}";
},
{
name = top;
position = "{829, 1500}";
}
);
layerId = "219068EA-2B9B-40DC-949E-B60449C01B8A";
paths = (
{
closed = 1;
nodes = (
"647 1500 LINE",
"647 1276 LINE",
"871 1276 LINE SMOOTH",
"1010 1276 OFFCURVE",
"1094 1209 OFFCURVE",
"1094 1076 CURVE SMOOTH",
"1094 943 OFFCURVE",
"1010 877 OFFCURVE",
"871 877 CURVE SMOOTH",
"647 877 LINE",
"647 754 LINE",
"1000 754 LINE SMOOTH",
"1312 754 OFFCURVE",
"1524 865 OFFCURVE",
"1524 1118 CURVE SMOOTH",
"1524 1380 OFFCURVE",
"1312 1500 OFFCURVE",
"1000 1500 CURVE SMOOTH"
);
},
{
closed = 1;
nodes = (
"647 792 LINE",
"647 653 LINE",
"938 653 LINE SMOOTH",
"1085 653 OFFCURVE",
"1178 579 OFFCURVE",
"1178 439 CURVE SMOOTH",
"1178 299 OFFCURVE",
"1085 224 OFFCURVE",
"938 224 CURVE SMOOTH",
"647 224 LINE",
"647 0 LINE",
"1076 0 LINE SMOOTH",
"1398 0 OFFCURVE",
"1608 128 OFFCURVE",
"1608 408 CURVE SMOOTH",
"1608 679 OFFCURVE",
"1398 790 OFFCURVE",
"1076 791 CURVE SMOOTH"
);
},
{
closed = 1;
nodes = (
"647 1500 LINE",
"65 1500 LINE",
"65 1286 LINE",
"227 1286 LINE",
"227 214 LINE",
"62 214 LINE",
"62 0 LINE",
"647 0 LINE"
);
}
);
width = 1658;
},
{
anchors = (
{
name = bottom;
position = "{791, 0}";
},
{
name = top;
position = "{791, 1500}";
}
);
layerId = "0C29AA02-E021-4BD1-A2C4-87F681D64C35";
paths = (
{
closed = 1;
nodes = (
"644 1500 LINE",
"644 1294 LINE",
"779 1294 LINE SMOOTH",
"924 1294 OFFCURVE",
"1011 1223 OFFCURVE",
"1011 1081 CURVE SMOOTH",
"1011 939 OFFCURVE",
"924 868 OFFCURVE",
"779 868 CURVE SMOOTH",
"644 868 LINE",
"644 764 LINE",
"917 764 LINE SMOOTH",
"1229 764 OFFCURVE",
"1441 878 OFFCURVE",
"1441 1128 CURVE SMOOTH",
"1441 1383 OFFCURVE",
"1229 1500 OFFCURVE",
"917 1500 CURVE SMOOTH"
);
},
{
closed = 1;
nodes = (
"644 778 LINE",
"644 662 LINE",
"846 662 LINE SMOOTH",
"998 662 OFFCURVE",
"1095 582 OFFCURVE",
"1095 434 CURVE SMOOTH",
"1095 286 OFFCURVE",
"998 206 OFFCURVE",
"846 206 CURVE SMOOTH",
"644 206 LINE",
"644 0 LINE",
"993 0 LINE SMOOTH",
"1315 0 OFFCURVE",
"1525 125 OFFCURVE",
"1525 398 CURVE SMOOTH",
"1525 666 OFFCURVE",
"1315 778 OFFCURVE",
"993 778 CURVE SMOOTH"
);
},
{
closed = 1;
nodes = (
"644 1500 LINE",
"51 1500 LINE",
"51 1304 LINE",
"224 1304 LINE",
"224 196 LINE",
"48 196 LINE",
"48 0 LINE",
"644 0 LINE"
);
}
);
width = 1571;
}
);
leftKerningGroup = I;
rightKerningGroup = B;
unicode = 0042;
},
{
color = 8;
glyphname = C;
lastChange = "2021-02-28 14:49:19 +0000";
layers = (
{
anchors = (
{
name = bottom;
position = "{862, 0}";
},
{
name = top;
position = "{900, 1500}";
}
);
layerId = "CA54B7DC-FBBB-40FE-ACF3-AABDD76D6A7B";
paths = (
{
closed = 1;
nodes = (
"1543 980 LINE",
"1533 1303 OFFCURVE",
"1290 1524 OFFCURVE",
"880 1524 CURVE SMOOTH",
"463 1524 OFFCURVE",
"138 1239 OFFCURVE",
"138 750 CURVE SMOOTH",
"138 261 OFFCURVE",
"467 -24 OFFCURVE",
"890 -24 CURVE SMOOTH",
"1325 -24 OFFCURVE",
"1558 243 OFFCURVE",
"1566 548 CURVE",
"1522 548 LINE",
"1509 264 OFFCURVE",
"1296 20 OFFCURVE",
"890 20 CURVE SMOOTH",
"493 20 OFFCURVE",
"186 306 OFFCURVE",
"186 750 CURVE SMOOTH",
"186 1194 OFFCURVE",
"489 1480 OFFCURVE",
"880 1480 CURVE SMOOTH",
"1299 1480 OFFCURVE",
"1489 1239 OFFCURVE",
"1512 980 CURVE"
);
},
{
closed = 1;
nodes = (
"1512 1500 LINE",
"1512 1054 LINE",
"1543 980 LINE",
"1556 980 LINE",
"1556 1500 LINE"
);
}
);
width = 1724;
},
{
anchors = (
{
name = bottom;
position = "{806, 0}";
},
{
name = top;
position = "{848, 1500}";
}
);
layerId = "1E61A082-F045-49A7-AB52-DD1B03FD9B54";
paths = (
{
closed = 1;
nodes = (
"1432 940 LINE",
"1423 1287 OFFCURVE",
"1200 1524 OFFCURVE",
"824 1524 CURVE SMOOTH",
"435 1524 OFFCURVE",
"132 1239 OFFCURVE",
"132 750 CURVE SMOOTH",
"132 261 OFFCURVE",
"439 -24 OFFCURVE",
"834 -24 CURVE SMOOTH",
"1237 -24 OFFCURVE",
"1452 262 OFFCURVE",
"1460 588 CURVE",
"1420 588 LINE",
"1408 279 OFFCURVE",
"1210 14 OFFCURVE",
"834 14 CURVE SMOOTH",
"465 14 OFFCURVE",
"180 302 OFFCURVE",
"180 750 CURVE SMOOTH",
"180 1198 OFFCURVE",
"461 1486 OFFCURVE",
"824 1486 CURVE SMOOTH",
"1210 1486 OFFCURVE",
"1385 1223 OFFCURVE",
"1406 940 CURVE"
);
},
{
closed = 1;
nodes = (
"1410 1500 LINE",
"1410 994 LINE",
"1432 940 LINE",
"1450 940 LINE",
"1450 1500 LINE"
);
}
);
width = 1610;
},
{
anchors = (
{
name = bottom;
position = "{837, 0}";
},
{
name = top;
position = "{869, 1500}";
}
);
layerId = "219068EA-2B9B-40DC-949E-B60449C01B8A";
paths = (
{
closed = 1;
nodes = (
"1474 983 LINE",
"1458 1323 OFFCURVE",
"1212 1532 OFFCURVE",
"837 1532 CURVE SMOOTH",
"398 1532 OFFCURVE",
"64 1236 OFFCURVE",
"64 750 CURVE SMOOTH",
"64 264 OFFCURVE",
"398 -32 OFFCURVE",
"877 -32 CURVE SMOOTH",
"1378 -32 OFFCURVE",
"1588 269 OFFCURVE",
"1605 603 CURVE",
"1363 603 LINE",
"1337 412 OFFCURVE",
"1216 262 OFFCURVE",
"969 262 CURVE SMOOTH",
"698 262 OFFCURVE",
"522 462 OFFCURVE",
"522 772 CURVE SMOOTH",
"522 1076 OFFCURVE",
"680 1278 OFFCURVE",
"957 1278 CURVE SMOOTH",
"1210 1278 OFFCURVE",
"1316 1120 OFFCURVE",
"1337 983 CURVE"
);
},
{
closed = 1;
nodes = (
"1343 1500 LINE",
"1343 1164 LINE",
"1474 983 LINE",
"1587 983 LINE",
"1587 1500 LINE"
);
}
);
width = 1689;
},
{
anchors = (
{
name = bottom;
position = "{780, 0}";
},
{
name = top;
position = "{799, 1500}";
}
);
layerId = "0C29AA02-E021-4BD1-A2C4-87F681D64C35";
paths = (
{
closed = 1;
nodes = (
"1376 915 LINE",
"1372 1303 OFFCURVE",
"1172 1532 OFFCURVE",
"769 1532 CURVE SMOOTH",
"358 1532 OFFCURVE",
"38 1244 OFFCURVE",
"38 750 CURVE SMOOTH",
"38 256 OFFCURVE",
"363 -32 OFFCURVE",
"827 -32 CURVE SMOOTH",
"1288 -32 OFFCURVE",
"1489 274 OFFCURVE",
"1501 663 CURVE",
"1313 663 LINE",
"1286 432 OFFCURVE",
"1168 252 OFFCURVE",
"915 252 CURVE SMOOTH",
"660 252 OFFCURVE",
"498 462 OFFCURVE",
"498 772 CURVE SMOOTH",
"498 1094 OFFCURVE",
"657 1308 OFFCURVE",
"915 1308 CURVE SMOOTH",
"1173 1308 OFFCURVE",
"1282 1124 OFFCURVE",
"1295 915 CURVE"
);
},
{
closed = 1;
nodes = (
"1273 1500 LINE",
"1273 1164 LINE",
"1376 915 LINE",
"1489 915 LINE",
"1489 1500 LINE"
);
}
);
width = 1589;
}
);
leftKerningGroup = O;
rightKerningGroup = C;
unicode = 0043;
},
{
color = 8;
glyphname = D;
lastChange = "2021-02-28 14:49:19 +0000";
layers = (
{
anchors = (
{
name = bottom;
position = "{790, 0}";
},
{
name = stroke;
position = "{310, 750}";
},
{
name = top;
position = "{790, 1500}";
}
);
layerId = "CA54B7DC-FBBB-40FE-ACF3-AABDD76D6A7B";
paths = (
{
closed = 1;
nodes = (
"358 1500 LINE",
"358 1456 LINE",
"756 1456 LINE SMOOTH",
"1202 1456 OFFCURVE",
"1494 1181 OFFCURVE",
"1494 750 CURVE SMOOTH",
"1494 319 OFFCURVE",
"1202 44 OFFCURVE",
"756 44 CURVE SMOOTH",
"358 44 LINE",
"358 0 LINE",
"756 0 LINE SMOOTH",
"1230 0 OFFCURVE",
"1542 275 OFFCURVE",
"1542 750 CURVE SMOOTH",
"1542 1225 OFFCURVE",
"1230 1500 OFFCURVE",
"756 1500 CURVE SMOOTH"
);
},
{
closed = 1;
nodes = (
"358 1500 LINE",
"77 1500 LINE",
"77 1456 LINE",
"310 1456 LINE",
"310 44 LINE",
"72 44 LINE",
"72 0 LINE",
"358 0 LINE"
);
}
);
width = 1680;
},
{
anchors = (
{
name = bottom;
position = "{746, 0}";
},
{
name = stroke;
position = "{299, 750}";
},
{
name = top;
position = "{746, 1500}";
}
);
layerId = "1E61A082-F045-49A7-AB52-DD1B03FD9B54";
paths = (
{
closed = 1;
nodes = (
"347 1500 LINE",
"347 1462 LINE",
"695 1462 LINE SMOOTH",
"1129 1462 OFFCURVE",
"1413 1185 OFFCURVE",
"1413 750 CURVE SMOOTH",
"1413 315 OFFCURVE",
"1129 38 OFFCURVE",
"695 38 CURVE SMOOTH",
"347 38 LINE",
"347 0 LINE",
"695 0 LINE SMOOTH",
"1157 0 OFFCURVE",
"1461 275 OFFCURVE",
"1461 750 CURVE SMOOTH",
"1461 1225 OFFCURVE",
"1157 1500 OFFCURVE",
"695 1500 CURVE SMOOTH"
);
},
{
closed = 1;
nodes = (
"347 1500 LINE",
"51 1500 LINE",
"51 1464 LINE",
"299 1464 LINE",
"299 36 LINE",
"46 36 LINE",
"46 0 LINE",
"347 0 LINE"
);
}
);
width = 1593;
},
{
anchors = (
{
name = bottom;
position = "{834, 0}";
},
{
name = stroke;
position = "{227, 750}";
},
{
name = top;
position = "{834, 1500}";
}
);
layerId = "219068EA-2B9B-40DC-949E-B60449C01B8A";
paths = (
{
closed = 1;
nodes = (
"647 1500 LINE",
"647 1276 LINE",
"821 1276 LINE SMOOTH",
"1084 1276 OFFCURVE",
"1257 1074 OFFCURVE",
"1257 750 CURVE SMOOTH",
"1257 426 OFFCURVE",
"1084 224 OFFCURVE",
"821 224 CURVE SMOOTH",
"647 224 LINE",
"647 0 LINE",
"883 0 LINE SMOOTH",
"1385 0 OFFCURVE",
"1719 270 OFFCURVE",
"1719 750 CURVE SMOOTH",
"1719 1230 OFFCURVE",
"1385 1500 OFFCURVE",
"883 1500 CURVE SMOOTH"
);
},
{
closed = 1;
nodes = (
"647 1500 LINE",
"65 1500 LINE",
"65 1286 LINE",
"227 1286 LINE",
"227 214 LINE",
"62 214 LINE",
"62 0 LINE",
"647 0 LINE"
);
}
);
width = 1783;
},
{
anchors = (
{
name = bottom;
position = "{787, 0}";
},
{
name = stroke;
position = "{224, 750}";
},
{
name = top;
position = "{787, 1500}";
}
);
layerId = "0C29AA02-E021-4BD1-A2C4-87F681D64C35";
paths = (
{
closed = 1;
nodes = (
"644 1500 LINE",
"644 1294 LINE",
"778 1294 LINE SMOOTH",
"1017 1294 OFFCURVE",
"1174 1085 OFFCURVE",
"1174 750 CURVE SMOOTH",
"1174 415 OFFCURVE",
"1017 206 OFFCURVE",
"778 206 CURVE SMOOTH",
"644 206 LINE",
"644 0 LINE",
"840 0 LINE SMOOTH",
"1318 0 OFFCURVE",
"1636 270 OFFCURVE",
"1636 750 CURVE SMOOTH",
"1636 1230 OFFCURVE",
"1318 1500 OFFCURVE",
"840 1500 CURVE SMOOTH"
);
},
{
closed = 1;
nodes = (
"644 1500 LINE",
"51 1500 LINE",
"51 1304 LINE",
"224 1304 LINE",
"224 196 LINE",
"48 196 LINE",
"48 0 LINE",
"644 0 LINE"
);
}
);
width = 1674;
}
);
leftKerningGroup = I;
rightKerningGroup = O;
unicode = 0044;
},
{
color = 8;
glyphname = E;
lastChange = "2021-02-28 14:49:19 +0000";
layers = (
{
anchors = (
{
name = bottom;
position = "{770, 0}";
},
{
name = ogonek;
position = "{1402, 0}";
},
{
name = top;
position = "{806, 1500}";
}
);
layerId = "CA54B7DC-FBBB-40FE-ACF3-AABDD76D6A7B";
paths = (
{
closed = 1;
nodes = (
"1402 44 LINE",
"358 44 LINE",
"358 0 LINE",
"1402 0 LINE"
);
},
{
closed = 1;
nodes = (
"1384 1500 LINE",
"358 1500 LINE",
"358 1456 LINE",
"1384 1456 LINE"
);
},
{
closed = 1;
nodes = (
"358 1500 LINE",
"77 1500 LINE",
"77 1456 LINE",
"310 1456 LINE",
"310 44 LINE",
"72 44 LINE",
"72 0 LINE",
"358 0 LINE"
);
},
{
closed = 1;
nodes = (
"928 814 LINE",
"358 814 LINE",
"358 770 LINE",
"928 770 LINE"
);
},
{
closed = 1;
nodes = (
"1314 1456 OFFCURVE",
"1340 1430 OFFCURVE",
"1340 1326 CURVE SMOOTH",
"1340 1000 LINE",
"1384 1000 LINE",
"1384 1456 LINE",
"1214 1456 LINE SMOOTH"
);
},
{
closed = 1;
nodes = (
"1402 44 LINE",
"1402 520 LINE",
"1358 520 LINE",
"1358 174 LINE SMOOTH",
"1358 70 OFFCURVE",
"1332 44 OFFCURVE",
"1232 44 CURVE SMOOTH"
);
},
{
closed = 1;
nodes = (
"928 814 LINE",
"928 1146 LINE",
"886 1146 LINE",
"886 936 LINE SMOOTH",
"886 838 OFFCURVE",
"862 814 OFFCURVE",
"768 814 CURVE SMOOTH"
);
},
{
closed = 1;
nodes = (
"862 770 OFFCURVE",
"886 746 OFFCURVE",
"886 648 CURVE SMOOTH",
"886 364 LINE",
"928 364 LINE",
"928 770 LINE",
"768 770 LINE SMOOTH"
);
}
);
width = 1540;
},
{
anchors = (
{
name = bottom;
position = "{745, 0}";
},
{
name = ogonek;
position = "{1331, 0}";
},
{
name = top;
position = "{766, 1500}";
}
);
layerId = "1E61A082-F045-49A7-AB52-DD1B03FD9B54";
paths = (
{
closed = 1;
nodes = (
"1331 38 LINE",
"347 38 LINE",
"347 0 LINE",
"1331 0 LINE"
);
},
{
closed = 1;
nodes = (
"1313 1500 LINE",
"347 1500 LINE",
"347 1462 LINE",
"1313 1462 LINE"
);
},
{
closed = 1;
nodes = (
"347 1500 LINE",
"51 1500 LINE",
"51 1464 LINE",
"299 1464 LINE",
"299 36 LINE",
"46 36 LINE",
"46 0 LINE",
"347 0 LINE"
);
},
{
closed = 1;
nodes = (
"917 810 LINE",
"347 810 LINE",
"347 772 LINE",
"917 772 LINE"
);
},
{
closed = 1;
nodes = (
"1247 1462 OFFCURVE",
"1273 1436 OFFCURVE",
"1273 1332 CURVE SMOOTH",
"1273 940 LINE",
"1313 940 LINE",
"1313 1462 LINE",
"1147 1462 LINE SMOOTH"
);
},
{
closed = 1;
nodes = (
"1331 38 LINE",
"1331 580 LINE",
"1291 580 LINE",
"1291 168 LINE SMOOTH",
"1291 64 OFFCURVE",
"1265 38 OFFCURVE",
"1165 38 CURVE SMOOTH"
);
},
{
closed = 1;
nodes = (
"917 810 LINE",
"917 1202 LINE",
"879 1202 LINE",
"879 932 LINE SMOOTH",
"879 834 OFFCURVE",
"855 810 OFFCURVE",
"761 810 CURVE SMOOTH"
);
},
{
closed = 1;
nodes = (
"855 772 OFFCURVE",
"879 748 OFFCURVE",
"879 650 CURVE SMOOTH",
"879 308 LINE",
"917 308 LINE",
"917 772 LINE",
"761 772 LINE SMOOTH"
);
}
);
width = 1489;
},
{
anchors = (
{
name = bottom;
position = "{803, 0}";
},
{
name = ogonek;
position = "{1511, 0}";
},
{
name = top;
position = "{827, 1500}";
}
);
layerId = "219068EA-2B9B-40DC-949E-B60449C01B8A";
paths = (
{
closed = 1;
nodes = (
"1511 224 LINE",
"647 224 LINE",
"647 0 LINE",
"1511 0 LINE"
);
},
{
closed = 1;
nodes = (
"1493 1500 LINE",
"647 1500 LINE",
"647 1276 LINE",
"1493 1276 LINE"
);
},
{
closed = 1;
nodes = (
"647 1500 LINE",
"65 1500 LINE",
"65 1286 LINE",
"227 1286 LINE",
"227 214 LINE",
"62 214 LINE",
"62 0 LINE",
"647 0 LINE"
);
},
{
closed = 1;
nodes = (
"1092 882 LINE",
"647 882 LINE",
"647 662 LINE",
"1092 662 LINE"
);
},
{
closed = 1;
nodes = (
"1201 1276 OFFCURVE",
"1261 1206 OFFCURVE",
"1261 1036 CURVE SMOOTH",
"1261 960 LINE",
"1493 960 LINE",
"1493 1276 LINE",
"1041 1276 LINE SMOOTH"
);
},
{
closed = 1;
nodes = (
"1511 224 LINE",
"1511 560 LINE",
"1279 560 LINE",
"1279 464 LINE SMOOTH",
"1279 294 OFFCURVE",
"1219 224 OFFCURVE",
"1059 224 CURVE SMOOTH"
);
},
{
closed = 1;
nodes = (
"1092 882 LINE",
"1092 1136 LINE",
"868 1136 LINE",
"868 1112 LINE SMOOTH",
"868 952 OFFCURVE",
"808 882 OFFCURVE",
"676 882 CURVE SMOOTH"
);
},
{
closed = 1;
nodes = (
"808 662 OFFCURVE",
"868 592 OFFCURVE",
"868 432 CURVE SMOOTH",
"868 364 LINE",
"1092 364 LINE",
"1092 662 LINE",
"676 662 LINE SMOOTH"
);
}
);
width = 1606;
},
{
anchors = (
{
name = bottom;
position = "{754, 0}";
},
{
name = ogonek;
position = "{1424, 0}";
},
{
name = top;
position = "{782, 1500}";
}
);
layerId = "0C29AA02-E021-4BD1-A2C4-87F681D64C35";
paths = (
{
closed = 1;
nodes = (
"1424 204 LINE",
"644 204 LINE",
"644 0 LINE",
"1424 0 LINE"
);
},
{
closed = 1;
nodes = (
"1410 1500 LINE",
"644 1500 LINE",
"644 1300 LINE",
"1410 1300 LINE"
);
},
{
closed = 1;
nodes = (
"644 1500 LINE",
"51 1500 LINE",
"51 1304 LINE",
"224 1304 LINE",
"224 196 LINE",
"48 196 LINE",
"48 0 LINE",
"644 0 LINE"
);
},
{
closed = 1;
nodes = (
"1071 872 LINE",
"644 872 LINE",
"644 672 LINE",
"1071 672 LINE"
);
},
{
closed = 1;
nodes = (
"1152 1300 OFFCURVE",
"1212 1230 OFFCURVE",
"1212 1060 CURVE SMOOTH",
"1212 940 LINE",
"1410 940 LINE",
"1410 1300 LINE",
"992 1300 LINE SMOOTH"
);
},
{
closed = 1;
nodes = (
"1424 204 LINE",
"1424 580 LINE",
"1226 580 LINE",
"1226 444 LINE SMOOTH",
"1226 274 OFFCURVE",
"1166 204 OFFCURVE",
"1006 204 CURVE SMOOTH"
);
},
{
closed = 1;
nodes = (
"1071 872 LINE",
"1071 1176 LINE",
"879 1176 LINE",
"879 1102 LINE SMOOTH",
"879 942 OFFCURVE",
"819 872 OFFCURVE",
"669 872 CURVE SMOOTH"
);
},
{
closed = 1;
nodes = (
"819 672 OFFCURVE",
"879 602 OFFCURVE",
"879 442 CURVE SMOOTH",
"879 332 LINE",
"1071 332 LINE",
"1071 672 LINE",
"669 672 LINE SMOOTH"
);
}
);
width = 1508;
}
);
leftKerningGroup = I;
rightKerningGroup = E;
unicode = 0045;
},
{
color = 8;
glyphname = F;
lastChange = "2021-02-28 14:49:19 +0000";
layers = (
{
layerId = "CA54B7DC-FBBB-40FE-ACF3-AABDD76D6A7B";
paths = (
{
closed = 1;
nodes = (
"1338 1500 LINE",
"358 1500 LINE",
"358 1456 LINE",
"1338 1456 LINE"
);
},
{
closed = 1;
nodes = (
"918 794 LINE",
"358 794 LINE",
"358 750 LINE",
"918 750 LINE"
);
},
{
closed = 1;
nodes = (
"1268 1456 OFFCURVE",
"1294 1430 OFFCURVE",
"1294 1326 CURVE SMOOTH",
"1294 1000 LINE",
"1338 1000 LINE",
"1338 1456 LINE",
"1168 1456 LINE SMOOTH"
);
},
{
closed = 1;
nodes = (
"918 794 LINE",
"918 1146 LINE",
"876 1146 LINE",
"876 916 LINE SMOOTH",
"876 818 OFFCURVE",
"852 794 OFFCURVE",
"758 794 CURVE SMOOTH"
);
},
{
closed = 1;
nodes = (
"852 750 OFFCURVE",
"876 726 OFFCURVE",
"876 628 CURVE SMOOTH",
"876 386 LINE",
"918 386 LINE",
"918 750 LINE",
"758 750 LINE SMOOTH"
);
},
{
closed = 1;
nodes = (
"310 44 LINE",
"72 44 LINE",
"72 0 LINE",
"704 0 LINE",
"704 44 LINE",
"358 44 LINE",
"358 1500 LINE",
"77 1500 LINE",
"77 1456 LINE",
"310 1456 LINE"
);
}
);
width = 1450;
},
{
layerId = "1E61A082-F045-49A7-AB52-DD1B03FD9B54";
paths = (
{
closed = 1;
nodes = (
"1267 1500 LINE",
"347 1500 LINE",
"347 1462 LINE",
"1267 1462 LINE"
);
},
{
closed = 1;
nodes = (
"907 790 LINE",
"347 790 LINE",
"347 752 LINE",
"907 752 LINE"
);
},
{
closed = 1;
nodes = (
"1201 1462 OFFCURVE",
"1227 1436 OFFCURVE",
"1227 1332 CURVE SMOOTH",
"1227 940 LINE",
"1267 940 LINE",
"1267 1462 LINE",
"1101 1462 LINE SMOOTH"
);
},
{
closed = 1;
nodes = (
"907 790 LINE",
"907 1202 LINE",
"869 1202 LINE",
"869 912 LINE SMOOTH",
"869 814 OFFCURVE",
"845 790 OFFCURVE",
"751 790 CURVE SMOOTH"
);
},
{
closed = 1;
nodes = (
"845 752 OFFCURVE",
"869 728 OFFCURVE",
"869 630 CURVE SMOOTH",
"869 330 LINE",
"907 330 LINE",
"907 752 LINE",
"751 752 LINE SMOOTH"
);
},
{
closed = 1;
nodes = (
"299 36 LINE",
"46 36 LINE",
"46 0 LINE",
"784 0 LINE",
"784 36 LINE",
"347 36 LINE",
"347 1500 LINE",
"51 1500 LINE",
"51 1464 LINE",
"299 1464 LINE"
);
}
);
width = 1373;
},
{
layerId = "219068EA-2B9B-40DC-949E-B60449C01B8A";
paths = (
{
closed = 1;
nodes = (
"1494 1500 LINE",
"632 1500 LINE",
"632 1276 LINE",
"1494 1276 LINE"
);
},
{
closed = 1;
nodes = (
"1095 872 LINE",
"632 872 LINE",
"632 652 LINE",
"1095 652 LINE"
);
},
{
closed = 1;
nodes = (
"1202 1276 OFFCURVE",
"1262 1206 OFFCURVE",
"1262 1036 CURVE SMOOTH",
"1262 940 LINE",
"1494 940 LINE",
"1494 1276 LINE",
"1042 1276 LINE SMOOTH"
);
},
{
closed = 1;
nodes = (
"1095 872 LINE",
"1095 1136 LINE",
"871 1136 LINE",
"871 1102 LINE SMOOTH",
"871 942 OFFCURVE",
"811 872 OFFCURVE",
"661 872 CURVE SMOOTH"
);
},
{
closed = 1;
nodes = (
"811 652 OFFCURVE",
"871 582 OFFCURVE",
"871 422 CURVE SMOOTH",
"871 344 LINE",
"1095 344 LINE",
"1095 652 LINE",
"661 652 LINE SMOOTH"
);
},
{
closed = 1;
nodes = (
"212 214 LINE",
"62 214 LINE",
"62 0 LINE",
"842 0 LINE",
"842 214 LINE",
"632 214 LINE",
"632 1500 LINE",
"68 1500 LINE",
"68 1289 LINE",
"212 1289 LINE"
);
}
);
width = 1560;
},
{
layerId = "0C29AA02-E021-4BD1-A2C4-87F681D64C35";
paths = (
{
closed = 1;
nodes = (
"1380 1500 LINE",
"628 1500 LINE",
"628 1300 LINE",
"1380 1300 LINE"
);
},
{
closed = 1;
nodes = (
"1049 862 LINE",
"628 862 LINE",
"628 662 LINE",
"1049 662 LINE"
);
},
{
closed = 1;
nodes = (
"1122 1300 OFFCURVE",
"1182 1230 OFFCURVE",
"1182 1060 CURVE SMOOTH",
"1182 920 LINE",
"1380 920 LINE",
"1380 1300 LINE",
"962 1300 LINE SMOOTH"
);
},
{
closed = 1;
nodes = (
"1049 862 LINE",
"1049 1178 LINE",
"857 1178 LINE",
"857 1092 LINE SMOOTH",
"857 932 OFFCURVE",
"797 862 OFFCURVE",
"647 862 CURVE SMOOTH"
);
},
{
closed = 1;
nodes = (
"797 662 OFFCURVE",
"857 592 OFFCURVE",
"857 432 CURVE SMOOTH",
"857 306 LINE",
"1049 306 LINE",
"1049 662 LINE",
"647 662 LINE SMOOTH"
);
},
{
closed = 1;
nodes = (
"208 196 LINE",
"48 196 LINE",
"48 0 LINE",
"948 0 LINE",
"948 196 LINE",
"628 196 LINE",
"628 1500 LINE",
"54 1500 LINE",
"54 1307 LINE",
"208 1307 LINE"
);
}
);
width = 1434;
}
);
leftKerningGroup = I;
rightKerningGroup = F;
unicode = 0046;
},
{
color = 8;
glyphname = G;
lastChange = "2021-02-28 14:49:19 +0000";
layers = (
{
anchors = (
{
name = bottom;
position = "{901, 0}";
},
{
name = top;
position = "{901, 1500}";
}
);
layerId = "CA54B7DC-FBBB-40FE-ACF3-AABDD76D6A7B";
paths = (
{
closed = 1;
nodes = (
"1513 1020 LINE",
"1505 1333 OFFCURVE",
"1277 1524 OFFCURVE",
"896 1524 CURVE SMOOTH",
"466 1524 OFFCURVE",
"138 1240 OFFCURVE",
"138 750 CURVE SMOOTH",
"138 260 OFFCURVE",
"467 -24 OFFCURVE",
"902 -24 CURVE SMOOTH",
"1347 -24 OFFCURVE",
"1560 276 OFFCURVE",
"1558 678 CURVE",
"1524 678 LINE",
"1524 326 OFFCURVE",
"1319 20 OFFCURVE",
"902 20 CURVE SMOOTH",
"493 20 OFFCURVE",
"186 306 OFFCURVE",
"186 750 CURVE SMOOTH",
"186 1194 OFFCURVE",
"494 1480 OFFCURVE",
"896 1480 CURVE SMOOTH",
"1283 1480 OFFCURVE",
"1459 1277 OFFCURVE",
"1482 1020 CURVE"
);
},
{
closed = 1;
nodes = (
"1482 1500 LINE",
"1482 1104 LINE",
"1513 1020 LINE",
"1526 1020 LINE",
"1526 1500 LINE"
);
},
{
closed = 1;
nodes = (
"898 678 LINE",
"1798 678 LINE",
"1798 722 LINE",
"898 722 LINE"
);
},
{
closed = 1;
nodes = (
"1558 678 LINE",
"1524 493 LINE",
"1524 0 LINE",
"1568 0 LINE",
"1568 678 LINE"
);
}
);
width = 1802;
},
{
anchors = (
{
name = bottom;
position = "{858, 0}";
},
{
name = top;
position = "{848, 1500}";
}
);
layerId = "1E61A082-F045-49A7-AB52-DD1B03FD9B54";
paths = (
{
closed = 1;
nodes = (
"1414 980 LINE",
"1406 1318 OFFCURVE",
"1192 1524 OFFCURVE",
"834 1524 CURVE SMOOTH",
"435 1524 OFFCURVE",
"132 1240 OFFCURVE",
"132 750 CURVE SMOOTH",
"132 260 OFFCURVE",
"439 -24 OFFCURVE",
"846 -24 CURVE SMOOTH",
"1252 -24 OFFCURVE",
"1451 269 OFFCURVE",
"1451 662 CURVE",
"1422 662 LINE",
"1422 311 OFFCURVE",
"1233 14 OFFCURVE",
"846 14 CURVE SMOOTH",
"465 14 OFFCURVE",
"180 302 OFFCURVE",
"180 750 CURVE SMOOTH",
"180 1198 OFFCURVE",
"463 1486 OFFCURVE",
"834 1486 CURVE SMOOTH",
"1199 1486 OFFCURVE",
"1365 1262 OFFCURVE",
"1386 980 CURVE"
);
},
{
closed = 1;
nodes = (
"1390 1500 LINE",
"1390 1034 LINE",
"1414 980 LINE",
"1430 980 LINE",
"1430 1500 LINE"
);
},
{
closed = 1;
nodes = (
"732 662 LINE",
"1692 662 LINE",
"1692 700 LINE",
"732 700 LINE"
);
},
{
closed = 1;
nodes = (
"1451 662 LINE",
"1422 504 LINE",
"1422 0 LINE",
"1462 0 LINE",
"1462 662 LINE"
);
}
);
width = 1714;
},
{
anchors = (
{
name = bottom;
position = "{911, 0}";
},
{
name = top;
position = "{849, 1500}";
}
);
layerId = "219068EA-2B9B-40DC-949E-B60449C01B8A";
paths = (
{
closed = 1;
nodes = (
"1448 995 LINE",
"1422 1328 OFFCURVE",
"1227 1532 OFFCURVE",
"855 1532 CURVE SMOOTH",
"411 1532 OFFCURVE",
"64 1244 OFFCURVE",
"64 750 CURVE SMOOTH",
"64 256 OFFCURVE",
"411 -32 OFFCURVE",
"845 -32 CURVE SMOOTH",
"1284 -32 OFFCURVE",
"1464 207 OFFCURVE",
"1470 553 CURVE",
"1372 553 LINE",
"1346 366 OFFCURVE",
"1233 222 OFFCURVE",
"975 222 CURVE SMOOTH",
"699 222 OFFCURVE",
"534 428 OFFCURVE",
"534 750 CURVE SMOOTH",
"534 1072 OFFCURVE",
"695 1278 OFFCURVE",
"967 1278 CURVE SMOOTH",
"1210 1278 OFFCURVE",
"1307 1130 OFFCURVE",
"1325 995 CURVE"
);
},
{
closed = 1;
nodes = (
"1331 1500 LINE",
"1331 1164 LINE",
"1448 995 LINE",
"1575 995 LINE",
"1575 1500 LINE"
);
},
{
closed = 1;
nodes = (
"997 553 LINE",
"1788 553 LINE",
"1788 785 LINE",
"997 785 LINE"
);
},
{
closed = 1;
nodes = (
"1470 553 LINE",
"1386 380 LINE",
"1386 0 LINE",
"1628 0 LINE",
"1628 553 LINE"
);
}
);
width = 1826;
},
{
anchors = (
{
name = bottom;
position = "{839, 0}";
},
{
name = top;
position = "{811, 1500}";
}
);
layerId = "0C29AA02-E021-4BD1-A2C4-87F681D64C35";
paths = (
{
closed = 1;
nodes = (
"1350 935 LINE",
"1346 1307 OFFCURVE",
"1176 1532 OFFCURVE",
"779 1532 CURVE SMOOTH",
"365 1532 OFFCURVE",
"38 1244 OFFCURVE",
"38 750 CURVE SMOOTH",
"38 256 OFFCURVE",
"365 -32 OFFCURVE",
"797 -32 CURVE SMOOTH",
"1240 -32 OFFCURVE",
"1393 238 OFFCURVE",
"1399 589 CURVE",
"1322 589 LINE",
"1306 371 OFFCURVE",
"1183 202 OFFCURVE",
"927 202 CURVE SMOOTH",
"664 202 OFFCURVE",
"506 416 OFFCURVE",
"506 750 CURVE SMOOTH",
"506 1090 OFFCURVE",
"661 1308 OFFCURVE",
"917 1308 CURVE SMOOTH",
"1158 1308 OFFCURVE",
"1256 1133 OFFCURVE",
"1269 935 CURVE"
);
},
{
closed = 1;
nodes = (
"1257 1500 LINE",
"1257 1164 LINE",
"1350 935 LINE",
"1473 935 LINE",
"1473 1500 LINE"
);
},
{
closed = 1;
nodes = (
"879 589 LINE",
"1708 589 LINE",
"1708 795 LINE",
"879 795 LINE"
);
},
{
closed = 1;
nodes = (
"1399 589 LINE",
"1314 367 LINE",
"1314 0 LINE",
"1532 0 LINE",
"1532 589 LINE"
);
}
);
width = 1700;
}
);
leftKerningGroup = O;
rightKerningGroup = G;
unicode = 0047;
},
{
color = 8;
glyphname = H;
lastChange = "2021-02-28 14:49:18 +0000";
layers = (
{
anchors = (
{
name = bottom;
position = "{876, 0}";
},
{
name = center;
position = "{876, 750}";
},
{
name = top;
position = "{876, 1500}";
},
{
name = topleft;
position = "{20, 1500}";
}
);
layerId = "CA54B7DC-FBBB-40FE-ACF3-AABDD76D6A7B";
paths = (
{
closed = 1;
nodes = (
"1394 782 LINE",
"358 782 LINE",
"358 738 LINE",
"1394 738 LINE"
);
},
{
closed = 1;
nodes = (
"358 1456 LINE",
"613 1456 LINE",
"613 1500 LINE",
"77 1500 LINE",
"77 1456 LINE",
"310 1456 LINE",
"310 44 LINE",
"72 44 LINE",
"72 0 LINE",
"617 0 LINE",
"617 44 LINE",
"358 44 LINE"
);
},
{
closed = 1;
nodes = (
"1442 1456 LINE",
"1675 1456 LINE",
"1675 1500 LINE",
"1139 1500 LINE",
"1139 1456 LINE",
"1394 1456 LINE",
"1394 44 LINE",
"1135 44 LINE",
"1135 0 LINE",
"1680 0 LINE",
"1680 44 LINE",
"1442 44 LINE"
);
}
);
width = 1752;
},
{
anchors = (
{
name = bottom;
position = "{840, 0}";
},
{
name = center;
position = "{840, 750}";
},
{
name = top;
position = "{840, 1500}";
},
{
name = topleft;
position = "{20, 1500}";
}
);
layerId = "1E61A082-F045-49A7-AB52-DD1B03FD9B54";
paths = (
{
closed = 1;
nodes = (
"1333 780 LINE",
"347 780 LINE",
"347 742 LINE",
"1333 742 LINE"
);
},
{
closed = 1;
nodes = (
"347 1464 LINE",
"618 1464 LINE",
"618 1500 LINE",
"51 1500 LINE",
"51 1464 LINE",
"299 1464 LINE",
"299 36 LINE",
"46 36 LINE",
"46 0 LINE",
"623 0 LINE",
"623 36 LINE",
"347 36 LINE"
);
},
{
closed = 1;
nodes = (
"1381 1464 LINE",
"1629 1464 LINE",
"1629 1500 LINE",
"1062 1500 LINE",
"1062 1464 LINE",
"1333 1464 LINE",
"1333 36 LINE",
"1057 36 LINE",
"1057 0 LINE",
"1634 0 LINE",
"1634 36 LINE",
"1381 36 LINE"
);
}
);
width = 1680;
},
{
anchors = (
{
name = bottom;
position = "{919, 0}";
},
{
name = center;
position = "{919, 750}";
},
{
name = top;
position = "{919, 1500}";
},
{
name = topleft;
position = "{20, 1500}";
}
);
layerId = "219068EA-2B9B-40DC-949E-B60449C01B8A";
paths = (
{
closed = 1;
nodes = (
"1193 847 LINE",
"647 847 LINE",
"647 639 LINE",
"1193 639 LINE"
);
},
{
closed = 1;
nodes = (
"647 1286 LINE",
"824 1286 LINE",
"824 1500 LINE",
"65 1500 LINE",
"65 1286 LINE",
"227 1286 LINE",
"227 214 LINE",
"62 214 LINE",
"62 0 LINE",
"824 0 LINE",
"824 214 LINE",
"647 214 LINE"
);
},
{
closed = 1;
nodes = (
"1613 1286 LINE",
"1775 1286 LINE",
"1775 1500 LINE",
"1016 1500 LINE",
"1016 1286 LINE",
"1193 1286 LINE",
"1193 214 LINE",
"1016 214 LINE",
"1016 0 LINE",
"1775 0 LINE",
"1775 214 LINE",
"1613 214 LINE"
);
}
);
width = 1837;
},
{
anchors = (
{
name = bottom;
position = "{881, 0}";
},
{
name = center;
position = "{881, 750}";
},
{
name = top;
position = "{881, 1500}";
},
{
name = topleft;
position = "{20, 1500}";
}
);
layerId = "0C29AA02-E021-4BD1-A2C4-87F681D64C35";
paths = (
{
closed = 1;
nodes = (
"1120 847 LINE",
"644 847 LINE",
"644 639 LINE",
"1120 639 LINE"
);
},
{
closed = 1;
nodes = (
"644 1304 LINE",
"833 1304 LINE",
"833 1500 LINE",
"51 1500 LINE",
"51 1304 LINE",
"224 1304 LINE",
"224 196 LINE",
"48 196 LINE",
"48 0 LINE",
"833 0 LINE",
"833 196 LINE",
"644 196 LINE"
);
},
{
closed = 1;
nodes = (
"1540 1304 LINE",
"1713 1304 LINE",
"1713 1500 LINE",
"931 1500 LINE",
"931 1304 LINE",
"1120 1304 LINE",
"1120 196 LINE",
"931 196 LINE",
"931 0 LINE",
"1713 0 LINE",
"1713 196 LINE",
"1540 196 LINE"
);
}
);
width = 1761;
}
);
leftKerningGroup = I;
rightKerningGroup = I;
unicode = 0048;
},
{
color = 8;
glyphname = I;
lastChange = "2021-02-28 14:49:18 +0000";
layers = (
{
anchors = (
{
name = bottom;
position = "{351, 0}";
},
{
name = ogonek;
position = "{481, 0}";
},
{
name = top;
position = "{351, 1500}";
},
{
name = topleft;
position = "{20, 1500}";
}
);
layerId = "CA54B7DC-FBBB-40FE-ACF3-AABDD76D6A7B";
paths = (
{
closed = 1;
nodes = (
"72 1500 LINE",
"72 1456 LINE",
"327 1456 LINE",
"327 44 LINE",
"68 44 LINE",
"68 0 LINE",
"634 0 LINE",
"634 44 LINE",
"375 44 LINE",
"375 1456 LINE",
"630 1456 LINE",
"630 1500 LINE"
);
}
);
width = 702;
},
{
anchors = (
{
name = bottom;
position = "{342, 0}";
},
{
name = ogonek;
position = "{471, 0}";
},
{
name = top;
position = "{342, 1500}";
},
{
name = topleft;
position = "{20, 1500}";
}
);
layerId = "1E61A082-F045-49A7-AB52-DD1B03FD9B54";
paths = (
{
closed = 1;
nodes = (
"47 1500 LINE",
"47 1464 LINE",
"318 1464 LINE",
"318 36 LINE",
"42 36 LINE",
"42 0 LINE",
"642 0 LINE",
"642 36 LINE",
"366 36 LINE",
"366 1464 LINE",
"637 1464 LINE",
"637 1500 LINE"
);
}
);
width = 684;
},
{
anchors = (
{
name = bottom;
position = "{448, 0}";
},
{
name = ogonek;
position = "{658, 0}";
},
{
name = top;
position = "{448, 1500}";
},
{
name = topleft;
position = "{20, 1500}";
}
);
layerId = "219068EA-2B9B-40DC-949E-B60449C01B8A";
paths = (
{
closed = 1;
nodes = (
"61 1501 LINE",
"61 1287 LINE",
"238 1287 LINE",
"238 214 LINE",
"58 214 LINE",
"58 0 LINE",
"838 0 LINE",
"838 214 LINE",
"658 214 LINE",
"658 1287 LINE",
"835 1287 LINE",
"835 1501 LINE"
);
}
);
width = 896;
},
{
anchors = (
{
name = bottom;
position = "{444, 0}";
},
{
name = ogonek;
position = "{654, 0}";
},
{
name = top;
position = "{444, 1500}";
},
{
name = topleft;
position = "{20, 1500}";
}
);
layerId = "0C29AA02-E021-4BD1-A2C4-87F681D64C35";
paths = (
{
closed = 1;
nodes = (
"45 1501 LINE",
"45 1305 LINE",
"234 1305 LINE",
"234 196 LINE",
"42 196 LINE",
"42 0 LINE",
"846 0 LINE",
"846 196 LINE",
"654 196 LINE",
"654 1305 LINE",
"843 1305 LINE",
"843 1501 LINE"
);
}
);
width = 888;
}
);
leftKerningGroup = I;
rightKerningGroup = I;
unicode = 0049;
},
{
color = 8;
glyphname = J;
lastChange = "2021-02-28 14:49:19 +0000";
layers = (
{
anchors = (
{
name = bottom;
position = "{634, 0}";
},
{
name = top;
position = "{892, 1500}";
}
);
layerId = "CA54B7DC-FBBB-40FE-ACF3-AABDD76D6A7B";
paths = (
{
closed = 1;
nodes = (
"589 1500 LINE",
"589 1456 LINE",
"930 1456 LINE",
"930 456 LINE SMOOTH",
"930 173 OFFCURVE",
"781 28 OFFCURVE",
"540 28 CURVE SMOOTH",
"299 28 OFFCURVE",
"150 173 OFFCURVE",
"150 456 CURVE SMOOTH",
"150 530 LINE",
"106 530 LINE",
"106 452 LINE SMOOTH",
"106 133 OFFCURVE",
"278 -16 OFFCURVE",
"542 -16 CURVE SMOOTH",
"806 -16 OFFCURVE",
"978 132 OFFCURVE",
"978 460 CURVE SMOOTH",
"978 1456 LINE",
"1211 1456 LINE",
"1211 1500 LINE"
);
}
);
width = 1267;
},
{
anchors = (
{
name = bottom;
position = "{598, 0}";
},
{
name = top;
position = "{802, 1500}";
}
);
layerId = "1E61A082-F045-49A7-AB52-DD1B03FD9B54";
paths = (
{
closed = 1;
nodes = (
"438 1500 LINE",
"438 1464 LINE",
"870 1464 LINE",
"870 426 LINE SMOOTH",
"870 159 OFFCURVE",
"732 22 OFFCURVE",
"508 22 CURVE SMOOTH",
"284 22 OFFCURVE",
"146 159 OFFCURVE",
"146 426 CURVE SMOOTH",
"146 590 LINE",
"106 590 LINE",
"106 422 LINE SMOOTH",
"106 124 OFFCURVE",
"266 -16 OFFCURVE",
"512 -16 CURVE SMOOTH",
"758 -16 OFFCURVE",
"918 123 OFFCURVE",
"918 430 CURVE SMOOTH",
"918 1464 LINE",
"1166 1464 LINE",
"1166 1500 LINE"
);
}
);
width = 1196;
},
{
anchors = (
{
name = bottom;
position = "{673, 0}";
},
{
name = top;
position = "{887, 1500}";
}
);
layerId = "219068EA-2B9B-40DC-949E-B60449C01B8A";
paths = (
{
closed = 1;
nodes = (
"503 1500 LINE",
"503 1286 LINE",
"710 1286 LINE",
"710 494 LINE SMOOTH",
"710 366 OFFCURVE",
"646 274 OFFCURVE",
"496 274 CURVE SMOOTH",
"345 274 OFFCURVE",
"286 367 OFFCURVE",
"286 494 CURVE SMOOTH",
"286 597 LINE",
"54 597 LINE",
"54 458 LINE SMOOTH",
"54 139 OFFCURVE",
"272 -32 OFFCURVE",
"592 -32 CURVE SMOOTH",
"932 -32 OFFCURVE",
"1130 140 OFFCURVE",
"1130 458 CURVE SMOOTH",
"1130 1286 LINE",
"1292 1286 LINE",
"1292 1500 LINE"
);
}
);
width = 1344;
},
{
anchors = (
{
name = bottom;
position = "{611, 0}";
},
{
name = top;
position = "{731, 1500}";
}
);
layerId = "0C29AA02-E021-4BD1-A2C4-87F681D64C35";
paths = (
{
closed = 1;
nodes = (
"275 1500 LINE",
"275 1304 LINE",
"592 1304 LINE",
"592 418 LINE SMOOTH",
"592 313 OFFCURVE",
"540 238 OFFCURVE",
"418 238 CURVE SMOOTH",
"296 238 OFFCURVE",
"248 314 OFFCURVE",
"248 418 CURVE SMOOTH",
"248 597 LINE",
"50 597 LINE",
"50 418 LINE SMOOTH",
"50 126 OFFCURVE",
"227 -32 OFFCURVE",
"531 -32 CURVE SMOOTH",
"835 -32 OFFCURVE",
"1012 126 OFFCURVE",
"1012 418 CURVE SMOOTH",
"1012 1304 LINE",
"1185 1304 LINE",
"1185 1500 LINE"
);
}
);
width = 1227;
}
);
leftKerningGroup = J;
rightKerningGroup = U;
unicode = 004A;
},
{
color = 8;
glyphname = K;
lastChange = "2021-02-28 14:49:19 +0000";
layers = (
{
anchors = (
{
name = bottom;
position = "{820, 0}";
},
{
name = top;
position = "{820, 1500}";
}
);
layerId = "CA54B7DC-FBBB-40FE-ACF3-AABDD76D6A7B";
paths = (
{
closed = 1;
nodes = (
"77 1500 LINE",
"77 1456 LINE",
"310 1456 LINE",
"310 44 LINE",
"72 44 LINE",
"72 0 LINE",
"617 0 LINE",
"617 44 LINE",
"358 44 LINE",
"358 1456 LINE",
"613 1456 LINE",
"613 1500 LINE"
);
},
{
closed = 1;
nodes = (
"1022 1500 LINE",
"1022 1456 LINE",
"1291 1456 LINE",
"324 585 LINE",
"349 551 LINE",
"1357 1456 LINE",
"1520 1456 LINE",
"1520 1500 LINE"
);
},
{
closed = 1;
nodes = (
"637 835 LINE",
"604 806 LINE",
"1357 44 LINE",
"1081 44 LINE",
"1081 0 LINE",
"1591 0 LINE",
"1591 44 LINE",
"1422 44 LINE"
);
}
);
width = 1639;
},
{
anchors = (
{
name = bottom;
position = "{815, 0}";
},
{
name = top;
position = "{815, 1500}";
}
);
layerId = "1E61A082-F045-49A7-AB52-DD1B03FD9B54";
paths = (
{
closed = 1;
nodes = (
"51 1500 LINE",
"51 1464 LINE",
"299 1464 LINE",
"299 36 LINE",
"46 36 LINE",
"46 0 LINE",
"623 0 LINE",
"623 36 LINE",
"347 36 LINE",
"347 1464 LINE",
"618 1464 LINE",
"618 1500 LINE"
);
},
{
closed = 1;
nodes = (
"979 1500 LINE",
"979 1464 LINE",
"1273 1464 LINE",
"313 613 LINE",
"338 584 LINE",
"1334 1464 LINE",
"1499 1464 LINE",
"1499 1500 LINE"
);
},
{
closed = 1;
nodes = (
"603 848 LINE",
"573 816 LINE",
"1335 36 LINE",
"1032 36 LINE",
"1032 0 LINE",
"1571 0 LINE",
"1571 36 LINE",
"1400 36 LINE"
);
}
);
width = 1629;
},
{
anchors = (
{
name = bottom;
position = "{857, 0}";
},
{
name = top;
position = "{857, 1500}";
}
);
layerId = "219068EA-2B9B-40DC-949E-B60449C01B8A";
paths = (
{
closed = 1;
nodes = (
"65 1500 LINE",
"65 1286 LINE",
"227 1286 LINE",
"227 214 LINE",
"62 214 LINE",
"62 0 LINE",
"788 0 LINE",
"788 214 LINE",
"647 214 LINE",
"647 1286 LINE",
"809 1286 LINE",
"809 1500 LINE"
);
},
{
closed = 1;
nodes = (
"956 1500 LINE",
"956 1286 LINE",
"1145 1286 LINE",
"395 624 LINE",
"555 436 LINE",
"1510 1286 LINE",
"1643 1286 LINE",
"1643 1500 LINE"
);
},
{
closed = 1;
nodes = (
"999 942 LINE",
"708 676 LINE",
"1044 214 LINE",
"898 214 LINE",
"898 0 LINE",
"1679 0 LINE",
"1679 214 LINE",
"1559 214 LINE"
);
}
);
width = 1730;
},
{
anchors = (
{
name = bottom;
position = "{858, 0}";
},
{
name = top;
position = "{858, 1500}";
}
);
layerId = "0C29AA02-E021-4BD1-A2C4-87F681D64C35";
paths = (
{
closed = 1;
nodes = (
"51 1500 LINE",
"51 1304 LINE",
"224 1304 LINE",
"224 196 LINE",
"48 196 LINE",
"48 0 LINE",
"791 0 LINE",
"791 196 LINE",
"644 196 LINE",
"644 1304 LINE",
"817 1304 LINE",
"817 1500 LINE"
);
},
{
closed = 1;
nodes = (
"976 1500 LINE",
"976 1304 LINE",
"1174 1304 LINE",
"422 605 LINE",
"562 446 LINE",
"1494 1304 LINE",
"1633 1304 LINE",
"1633 1500 LINE"
);
},
{
closed = 1;
nodes = (
"996 942 LINE",
"705 676 LINE",
"1054 196 LINE",
"897 196 LINE",
"897 0 LINE",
"1678 0 LINE",
"1678 196 LINE",
"1570 196 LINE"
);
}
);
width = 1715;
}
);
leftKerningGroup = I;
rightKerningGroup = K;
unicode = 004B;
},
{
color = 8;
glyphname = L;
lastChange = "2021-02-28 14:49:19 +0000";
layers = (
{
anchors = (
{
name = bottom;
position = "{730, 0}";
},
{
name = center;
position = "{334, 1220}";
},
{
name = top;
position = "{335, 1500}";
},
{
name = topright;
position = "{578, 1500}";
}
);
layerId = "CA54B7DC-FBBB-40FE-ACF3-AABDD76D6A7B";
paths = (
{
closed = 1;
nodes = (
"1352 44 LINE",
"358 44 LINE",
"358 0 LINE",
"1352 0 LINE"
);
},
{
closed = 1;
nodes = (
"1352 44 LINE",
"1352 520 LINE",
"1308 520 LINE",
"1308 174 LINE SMOOTH",
"1308 70 OFFCURVE",
"1282 44 OFFCURVE",
"1182 44 CURVE SMOOTH"
);
},
{
closed = 1;
nodes = (
"358 1456 LINE",
"699 1456 LINE",
"699 1500 LINE",
"77 1500 LINE",
"77 1456 LINE",
"310 1456 LINE",
"310 44 LINE",
"72 44 LINE",
"72 0 LINE",
"358 0 LINE"
);
}
);
width = 1460;
},
{
anchors = (
{
name = bottom;
position = "{697, 0}";
},
{
name = center;
position = "{323, 1200}";
},
{
name = top;
position = "{321, 1500}";
},
{
name = topright;
position = "{697, 1500}";
}
);
layerId = "1E61A082-F045-49A7-AB52-DD1B03FD9B54";
paths = (
{
closed = 1;
nodes = (
"1281 38 LINE",
"347 38 LINE",
"347 0 LINE",
"1281 0 LINE"
);
},
{
closed = 1;
nodes = (
"1281 38 LINE",
"1281 580 LINE",
"1241 580 LINE",
"1241 168 LINE SMOOTH",
"1241 64 OFFCURVE",
"1215 38 OFFCURVE",
"1115 38 CURVE SMOOTH"
);
},
{
closed = 1;
nodes = (
"347 1464 LINE",
"779 1464 LINE",
"779 1500 LINE",
"51 1500 LINE",
"51 1464 LINE",
"299 1464 LINE",
"299 36 LINE",
"46 36 LINE",
"46 0 LINE",
"347 0 LINE"
);
}
);
width = 1393;
},
{
anchors = (
{
name = bottom;
position = "{768, 0}";
},
{
name = center;
position = "{437, 1260}";
},
{
name = top;
position = "{437, 1500}";
},
{
name = topright;
position = "{835, 1500}";
}
);
layerId = "219068EA-2B9B-40DC-949E-B60449C01B8A";
paths = (
{
closed = 1;
nodes = (
"1467 224 LINE",
"647 224 LINE",
"647 0 LINE",
"1467 0 LINE"
);
},
{
closed = 1;
nodes = (
"1467 224 LINE",
"1467 540 LINE",
"1235 540 LINE",
"1235 464 LINE SMOOTH",
"1235 294 OFFCURVE",
"1175 224 OFFCURVE",
"1015 224 CURVE SMOOTH"
);
},
{
closed = 1;
nodes = (
"647 1286 LINE",
"854 1286 LINE",
"854 1500 LINE",
"65 1500 LINE",
"65 1286 LINE",
"227 1286 LINE",
"227 214 LINE",
"62 214 LINE",
"62 0 LINE",
"647 0 LINE"
);
}
);
width = 1535;
},
{
anchors = (
{
name = bottom;
position = "{723, 0}";
},
{
name = center;
position = "{434, 1240}";
},
{
name = top;
position = "{434, 1500}";
},
{
name = topright;
position = "{953, 1500}";
}
);
layerId = "0C29AA02-E021-4BD1-A2C4-87F681D64C35";
paths = (
{
closed = 1;
nodes = (
"1394 206 LINE",
"644 206 LINE",
"644 0 LINE",
"1394 0 LINE"
);
},
{
closed = 1;
nodes = (
"1394 206 LINE",
"1394 560 LINE",
"1196 560 LINE",
"1196 446 LINE SMOOTH",
"1196 276 OFFCURVE",
"1136 206 OFFCURVE",
"976 206 CURVE SMOOTH"
);
},
{
closed = 1;
nodes = (
"644 1304 LINE",
"961 1304 LINE",
"961 1500 LINE",
"51 1500 LINE",
"51 1304 LINE",
"224 1304 LINE",
"224 196 LINE",
"48 196 LINE",
"48 0 LINE",
"644 0 LINE"
);
}
);
width = 1446;
}
);
leftKerningGroup = I;
rightKerningGroup = L;
unicode = 004C;
},
{
color = 8;
glyphname = M;
lastChange = "2021-02-28 14:49:19 +0000";
layers = (
{
anchors = (
{
name = bottom;
position = "{1083, 0}";
},
{
name = top;
position = "{1085, 1500}";
}
);
layerId = "CA54B7DC-FBBB-40FE-ACF3-AABDD76D6A7B";
paths = (
{
closed = 1;
nodes = (
"354 1500 LINE",
"77 1500 LINE",
"77 1456 LINE",
"310 1456 LINE",
"310 44 LINE",
"72 44 LINE",
"72 0 LINE",
"613 0 LINE",
"613 44 LINE",
"354 44 LINE"
);
},
{
closed = 1;
nodes = (
"1860 1456 LINE",
"2093 1456 LINE",
"2093 1500 LINE",
"1812 1500 LINE",
"1812 44 LINE",
"1553 44 LINE",
"1553 0 LINE",
"2098 0 LINE",
"2098 44 LINE",
"1860 44 LINE"
);
},
{
closed = 1;
nodes = (
"1065 0 LINE",
"1101 0 LINE",
"1812 1430 LINE",
"1812 1500 LINE",
"1798 1500 LINE",
"1078 52 LINE",
"1093 52 LINE",
"376 1500 LINE",
"354 1500 LINE",
"354 1437 LINE"
);
}
);
width = 2170;
},
{
anchors = (
{
name = bottom;
position = "{1020, 0}";
},
{
name = top;
position = "{1022, 1500}";
}
);
layerId = "1E61A082-F045-49A7-AB52-DD1B03FD9B54";
paths = (
{
closed = 1;
nodes = (
"339 1500 LINE",
"51 1500 LINE",
"51 1464 LINE",
"299 1464 LINE",
"299 36 LINE",
"46 36 LINE",
"46 0 LINE",
"615 0 LINE",
"615 36 LINE",
"339 36 LINE"
);
},
{
closed = 1;
nodes = (
"1745 1464 LINE",
"1993 1464 LINE",
"1993 1500 LINE",
"1697 1500 LINE",
"1697 36 LINE",
"1421 36 LINE",
"1421 0 LINE",
"1998 0 LINE",
"1998 36 LINE",
"1745 36 LINE"
);
},
{
closed = 1;
nodes = (
"1000 0 LINE",
"1036 0 LINE",
"1697 1430 LINE",
"1697 1500 LINE",
"1685 1500 LINE",
"1016 52 LINE",
"1029 52 LINE",
"363 1500 LINE",
"339 1500 LINE",
"339 1438 LINE"
);
}
);
width = 2044;
},
{
anchors = (
{
name = bottom;
position = "{1078, 0}";
},
{
name = top;
position = "{1148, 1500}";
}
);
layerId = "219068EA-2B9B-40DC-949E-B60449C01B8A";
paths = (
{
closed = 1;
nodes = (
"487 1500 LINE",
"65 1500 LINE",
"65 1286 LINE",
"227 1286 LINE",
"227 214 LINE",
"62 214 LINE",
"62 0 LINE",
"667 0 LINE",
"667 214 LINE",
"487 214 LINE"
);
},
{
closed = 1;
nodes = (
"2068 1286 LINE",
"2230 1286 LINE",
"2230 1500 LINE",
"1652 1500 LINE",
"1652 214 LINE",
"1472 214 LINE",
"1472 0 LINE",
"2233 0 LINE",
"2233 214 LINE",
"2068 214 LINE"
);
},
{
closed = 1;
nodes = (
"914 0 LINE",
"1225 0 LINE",
"1652 971 LINE",
"1652 1500 LINE",
"1604 1500 LINE",
"1121 395 LINE",
"1184 395 LINE",
"667 1500 LINE",
"487 1500 LINE",
"487 911 LINE"
);
}
);
width = 2295;
},
{
anchors = (
{
name = bottom;
position = "{972, 0}";
},
{
name = top;
position = "{1063, 1500}";
}
);
layerId = "0C29AA02-E021-4BD1-A2C4-87F681D64C35";
paths = (
{
closed = 1;
nodes = (
"444 1500 LINE",
"51 1500 LINE",
"51 1304 LINE",
"224 1304 LINE",
"224 196 LINE",
"48 196 LINE",
"48 0 LINE",
"636 0 LINE",
"636 196 LINE",
"444 196 LINE"
);
},
{
closed = 1;
nodes = (
"1905 1304 LINE",
"2078 1304 LINE",
"2078 1500 LINE",
"1493 1500 LINE",
"1493 196 LINE",
"1301 196 LINE",
"1301 0 LINE",
"2081 0 LINE",
"2081 196 LINE",
"1905 196 LINE"
);
},
{
closed = 1;
nodes = (
"839 0 LINE",
"1102 0 LINE",
"1493 981 LINE",
"1493 1500 LINE",
"1478 1500 LINE",
"1037 395 LINE",
"1108 395 LINE",
"638 1500 LINE",
"444 1500 LINE",
"444 928 LINE"
);
}
);
width = 2129;
}
);
leftKerningGroup = I;
rightKerningGroup = I;
unicode = 004D;
},
{
color = 8;
glyphname = N;
lastChange = "2021-02-28 14:49:19 +0000";
layers = (
{
anchors = (
{
name = bottom;
position = "{902, 0}";
},
{
name = top;
position = "{912, 1500}";
}
);
layerId = "CA54B7DC-FBBB-40FE-ACF3-AABDD76D6A7B";
paths = (
{
closed = 1;
nodes = (
"354 1426 LINE",
"358 1500 LINE",
"77 1500 LINE",
"77 1456 LINE",
"310 1456 LINE",
"310 44 LINE",
"72 44 LINE",
"72 0 LINE",
"613 0 LINE",
"613 44 LINE",
"354 44 LINE"
);
},
{
closed = 1;
nodes = (
"358 1500 LINE",
"354 1426 LINE",
"1446 0 LINE",
"1450 74 LINE"
);
},
{
closed = 1;
nodes = (
"1494 1456 LINE",
"1727 1456 LINE",
"1727 1500 LINE",
"1195 1500 LINE",
"1195 1456 LINE",
"1450 1456 LINE",
"1450 74 LINE",
"1440 74 LINE",
"1446 0 LINE",
"1494 0 LINE"
);
}
);
width = 1783;
},
{
anchors = (
{
name = bottom;
position = "{852, 0}";
},
{
name = top;
position = "{868, 1500}";
}
);
layerId = "1E61A082-F045-49A7-AB52-DD1B03FD9B54";
paths = (
{
closed = 1;
nodes = (
"339 1424 LINE",
"343 1500 LINE",
"51 1500 LINE",
"51 1464 LINE",
"299 1464 LINE",
"299 36 LINE",
"46 36 LINE",
"46 0 LINE",
"615 0 LINE",
"615 36 LINE",
"339 36 LINE"
);
},
{
closed = 1;
nodes = (
"343 1500 LINE",
"339 1424 LINE",
"1381 0 LINE",
"1385 76 LINE"
);
},
{
closed = 1;
nodes = (
"1425 1464 LINE",
"1673 1464 LINE",
"1673 1500 LINE",
"1114 1500 LINE",
"1114 1464 LINE",
"1385 1464 LINE",
"1385 76 LINE",
"1375 76 LINE",
"1381 0 LINE",
"1425 0 LINE"
);
}
);
width = 1703;
},
{
anchors = (
{
name = bottom;
position = "{896, 0}";
},
{
name = top;
position = "{928, 1500}";
}
);
layerId = "219068EA-2B9B-40DC-949E-B60449C01B8A";
paths = (
{
closed = 1;
nodes = (
"487 944 LINE",
"567 1500 LINE",
"65 1500 LINE",
"65 1286 LINE",
"227 1286 LINE",
"227 214 LINE",
"62 214 LINE",
"62 0 LINE",
"667 0 LINE",
"667 214 LINE",
"487 214 LINE"
);
},
{
closed = 1;
nodes = (
"567 1500 LINE",
"487 944 LINE",
"1316 0 LINE",
"1318 647 LINE"
);
},
{
closed = 1;
nodes = (
"1578 1286 LINE",
"1740 1286 LINE",
"1740 1500 LINE",
"1141 1500 LINE",
"1141 1286 LINE",
"1318 1286 LINE",
"1318 647 LINE",
"1308 647 LINE",
"1316 0 LINE",
"1578 0 LINE"
);
}
);
width = 1792;
},
{
anchors = (
{
name = bottom;
position = "{853, 0}";
},
{
name = top;
position = "{879, 1500}";
}
);
layerId = "0C29AA02-E021-4BD1-A2C4-87F681D64C35";
paths = (
{
closed = 1;
nodes = (
"448 943 LINE",
"518 1500 LINE",
"51 1500 LINE",
"51 1304 LINE",
"224 1304 LINE",
"224 196 LINE",
"48 196 LINE",
"48 0 LINE",
"640 0 LINE",
"640 196 LINE",
"448 196 LINE"
);
},
{
closed = 1;
nodes = (
"518 1500 LINE",
"448 943 LINE",
"1277 0 LINE",
"1277 636 LINE"
);
},
{
closed = 1;
nodes = (
"1501 1304 LINE",
"1674 1304 LINE",
"1674 1500 LINE",
"1088 1500 LINE",
"1088 1304 LINE",
"1277 1304 LINE",
"1277 636 LINE",
"1267 636 LINE",
"1277 0 LINE",
"1501 0 LINE"
);
}
);
width = 1706;
}
);
leftKerningGroup = I;
rightKerningGroup = N;
unicode = 004E;
},
{
color = 8;
glyphname = O;
lastChange = "2021-02-28 14:49:18 +0000";
layers = (
{
anchors = (
{
name = bottom;
position = "{906, 0}";
},
{
name = ogonek;
position = "{1227, 0}";
},
{
name = top;
position = "{906, 1500}";
},
{
name = topleft;
position = "{20, 1500}";
},
{
name = topright;
position = "{1520, 1260}";
}
);
layerId = "CA54B7DC-FBBB-40FE-ACF3-AABDD76D6A7B";
paths = (
{
closed = 1;
nodes = (
"1350 -24 OFFCURVE",
"1674 260 OFFCURVE",
"1674 750 CURVE SMOOTH",
"1674 1240 OFFCURVE",
"1350 1524 OFFCURVE",
"906 1524 CURVE SMOOTH",
"462 1524 OFFCURVE",
"138 1240 OFFCURVE",
"138 750 CURVE SMOOTH",
"138 260 OFFCURVE",
"462 -24 OFFCURVE",
"906 -24 CURVE SMOOTH"
);
},
{
closed = 1;
nodes = (
"474 20 OFFCURVE",
"186 308 OFFCURVE",
"186 750 CURVE SMOOTH",
"186 1192 OFFCURVE",
"474 1480 OFFCURVE",
"906 1480 CURVE SMOOTH",
"1338 1480 OFFCURVE",
"1626 1192 OFFCURVE",
"1626 750 CURVE SMOOTH",
"1626 308 OFFCURVE",
"1338 20 OFFCURVE",
"906 20 CURVE SMOOTH"
);
}
);
width = 1812;
},
{
anchors = (
{
name = bottom;
position = "{860, 0}";
},
{
name = ogonek;
position = "{1168, 0}";
},
{
name = top;
position = "{860, 1500}";
},
{
name = topleft;
position = "{22, 1500}";
},
{
name = topright;
position = "{1441, 1260}";
}
);
layerId = "1E61A082-F045-49A7-AB52-DD1B03FD9B54";
paths = (
{
closed = 1;
nodes = (
"1280 -24 OFFCURVE",
"1588 260 OFFCURVE",
"1588 750 CURVE SMOOTH",
"1588 1240 OFFCURVE",
"1280 1524 OFFCURVE",
"860 1524 CURVE SMOOTH",
"440 1524 OFFCURVE",
"132 1240 OFFCURVE",
"132 750 CURVE SMOOTH",
"132 260 OFFCURVE",
"440 -24 OFFCURVE",
"860 -24 CURVE SMOOTH"
);
},
{
closed = 1;
nodes = (
"452 14 OFFCURVE",
"180 304 OFFCURVE",
"180 750 CURVE SMOOTH",
"180 1196 OFFCURVE",
"452 1486 OFFCURVE",
"860 1486 CURVE SMOOTH",
"1268 1486 OFFCURVE",
"1540 1196 OFFCURVE",
"1540 750 CURVE SMOOTH",
"1540 304 OFFCURVE",
"1268 14 OFFCURVE",
"860 14 CURVE SMOOTH"
);
}
);
width = 1720;
},
{
anchors = (
{
name = bottom;
position = "{948, 0}";
},
{
name = ogonek;
position = "{1311, 0}";
},
{
name = top;
position = "{948, 1500}";
},
{
name = topleft;
position = "{16, 1500}";
},
{
name = topright;
position = "{1680, 1270}";
}
);
layerId = "219068EA-2B9B-40DC-949E-B60449C01B8A";
paths = (
{
closed = 1;
nodes = (
"1472 -32 OFFCURVE",
"1832 256 OFFCURVE",
"1832 750 CURVE SMOOTH",
"1832 1244 OFFCURVE",
"1472 1532 OFFCURVE",
"948 1532 CURVE SMOOTH",
"424 1532 OFFCURVE",
"64 1244 OFFCURVE",
"64 750 CURVE SMOOTH",
"64 256 OFFCURVE",
"424 -32 OFFCURVE",
"948 -32 CURVE SMOOTH"
);
},
{
closed = 1;
nodes = (
"686 202 OFFCURVE",
"532 400 OFFCURVE",
"532 750 CURVE SMOOTH",
"532 1101 OFFCURVE",
"686 1298 OFFCURVE",
"948 1298 CURVE SMOOTH",
"1211 1298 OFFCURVE",
"1364 1101 OFFCURVE",
"1364 750 CURVE SMOOTH",
"1364 400 OFFCURVE",
"1211 202 OFFCURVE",
"948 202 CURVE SMOOTH"
);
}
);
width = 1896;
},
{
anchors = (
{
name = bottom;
position = "{882, 0}";
},
{
name = ogonek;
position = "{1229, 0}";
},
{
name = top;
position = "{882, 1500}";
},
{
name = topleft;
position = "{0, 1500}";
},
{
name = topright;
position = "{1565, 1270}";
}
);
layerId = "0C29AA02-E021-4BD1-A2C4-87F681D64C35";
paths = (
{
closed = 1;
nodes = (
"1382 -32 OFFCURVE",
"1726 256 OFFCURVE",
"1726 750 CURVE SMOOTH",
"1726 1244 OFFCURVE",
"1382 1532 OFFCURVE",
"882 1532 CURVE SMOOTH",
"382 1532 OFFCURVE",
"38 1244 OFFCURVE",
"38 750 CURVE SMOOTH",
"38 256 OFFCURVE",
"382 -32 OFFCURVE",
"882 -32 CURVE SMOOTH"
);
},
{
closed = 1;
nodes = (
"645 162 OFFCURVE",
"506 374 OFFCURVE",
"506 750 CURVE SMOOTH",
"506 1127 OFFCURVE",
"645 1338 OFFCURVE",
"882 1338 CURVE SMOOTH",
"1120 1338 OFFCURVE",
"1258 1127 OFFCURVE",
"1258 750 CURVE SMOOTH",
"1258 374 OFFCURVE",
"1120 162 OFFCURVE",
"882 162 CURVE SMOOTH"
);
}
);
width = 1764;
}
);
leftKerningGroup = O;
rightKerningGroup = O;
unicode = 004F;
},
{
color = 8;
glyphname = P;
lastChange = "2021-02-28 14:49:19 +0000";
layers = (
{
anchors = (
{
name = bottom;
position = "{745, 0}";
},
{
name = top;
position = "{745, 1500}";
}
);
layerId = "CA54B7DC-FBBB-40FE-ACF3-AABDD76D6A7B";
paths = (
{
closed = 1;
nodes = (
"358 1500 LINE",
"358 1456 LINE",
"898 1456 LINE SMOOTH",
"1176 1456 OFFCURVE",
"1352 1330 OFFCURVE",
"1352 1081 CURVE SMOOTH",
"1352 832 OFFCURVE",
"1176 706 OFFCURVE",
"898 706 CURVE SMOOTH",
"358 706 LINE",
"358 662 LINE",
"910 662 LINE SMOOTH",
"1204 662 OFFCURVE",
"1400 803 OFFCURVE",
"1400 1081 CURVE SMOOTH",
"1400 1359 OFFCURVE",
"1204 1500 OFFCURVE",
"910 1500 CURVE SMOOTH"
);
},
{
closed = 1;
nodes = (
"310 44 LINE",
"72 44 LINE",
"72 0 LINE",
"704 0 LINE",
"704 44 LINE",
"358 44 LINE",
"358 1500 LINE",
"77 1500 LINE",
"77 1456 LINE",
"310 1456 LINE"
);
}
);
width = 1490;
},
{
anchors = (
{
name = bottom;
position = "{717, 0}";
},
{
name = top;
position = "{717, 1500}";
}
);
layerId = "1E61A082-F045-49A7-AB52-DD1B03FD9B54";
paths = (
{
closed = 1;
nodes = (
"347 1500 LINE",
"347 1462 LINE",
"853 1462 LINE SMOOTH",
"1119 1462 OFFCURVE",
"1287 1337 OFFCURVE",
"1287 1091 CURVE SMOOTH",
"1287 845 OFFCURVE",
"1119 720 OFFCURVE",
"853 720 CURVE SMOOTH",
"347 720 LINE",
"347 682 LINE",
"865 682 LINE SMOOTH",
"1147 682 OFFCURVE",
"1335 820 OFFCURVE",
"1335 1091 CURVE SMOOTH",
"1335 1362 OFFCURVE",
"1147 1500 OFFCURVE",
"865 1500 CURVE SMOOTH"
);
},
{
closed = 1;
nodes = (
"299 36 LINE",
"46 36 LINE",
"46 0 LINE",
"784 0 LINE",
"784 36 LINE",
"347 36 LINE",
"347 1500 LINE",
"51 1500 LINE",
"51 1464 LINE",
"299 1464 LINE"
);
}
);
width = 1433;
},
{
anchors = (
{
name = bottom;
position = "{807, 0}";
},
{
name = top;
position = "{807, 1500}";
}
);
layerId = "219068EA-2B9B-40DC-949E-B60449C01B8A";
paths = (
{
closed = 1;
nodes = (
"647 1500 LINE",
"647 1276 LINE",
"893 1276 LINE SMOOTH",
"1054 1276 OFFCURVE",
"1152 1203 OFFCURVE",
"1152 1049 CURVE SMOOTH",
"1152 895 OFFCURVE",
"1054 822 OFFCURVE",
"893 822 CURVE SMOOTH",
"647 822 LINE",
"647 598 LINE",
"1029 598 LINE SMOOTH",
"1362 598 OFFCURVE",
"1582 749 OFFCURVE",
"1582 1049 CURVE SMOOTH",
"1582 1349 OFFCURVE",
"1362 1500 OFFCURVE",
"1029 1500 CURVE SMOOTH"
);
},
{
closed = 1;
nodes = (
"227 214 LINE",
"62 214 LINE",
"62 0 LINE",
"917 0 LINE",
"917 214 LINE",
"647 214 LINE",
"647 1500 LINE",
"65 1500 LINE",
"65 1286 LINE",
"227 1286 LINE"
);
}
);
width = 1614;
},
{
anchors = (
{
name = bottom;
position = "{750, 0}";
},
{
name = top;
position = "{750, 1500}";
}
);
layerId = "0C29AA02-E021-4BD1-A2C4-87F681D64C35";
paths = (
{
closed = 1;
nodes = (
"644 1500 LINE",
"644 1300 LINE",
"786 1300 LINE SMOOTH",
"945 1300 OFFCURVE",
"1043 1223 OFFCURVE",
"1043 1069 CURVE SMOOTH",
"1043 915 OFFCURVE",
"945 838 OFFCURVE",
"786 838 CURVE SMOOTH",
"644 838 LINE",
"644 638 LINE",
"940 638 LINE SMOOTH",
"1261 638 OFFCURVE",
"1473 783 OFFCURVE",
"1473 1069 CURVE SMOOTH",
"1473 1355 OFFCURVE",
"1261 1500 OFFCURVE",
"940 1500 CURVE SMOOTH"
);
},
{
closed = 1;
nodes = (
"224 196 LINE",
"48 196 LINE",
"48 0 LINE",
"996 0 LINE",
"996 196 LINE",
"644 196 LINE",
"644 1500 LINE",
"51 1500 LINE",
"51 1304 LINE",
"224 1304 LINE"
);
}
);
width = 1499;
}
);
leftKerningGroup = I;
rightKerningGroup = P;
unicode = 0050;
},
{
color = 8;
glyphname = Q;
lastChange = "2021-02-28 14:49:19 +0000";
layers = (
{
anchors = (
{
name = bottom;
position = "{886, 0}";
},
{
name = top;
position = "{886, 1500}";
}
);
layerId = "CA54B7DC-FBBB-40FE-ACF3-AABDD76D6A7B";
paths = (
{
closed = 1;
nodes = (
"829 420 OFFCURVE",
"748 345 OFFCURVE",
"748 196 CURVE SMOOTH",
"748 0 LINE",
"792 0 LINE",
"792 196 LINE SMOOTH",
"792 317 OFFCURVE",
"845 378 OFFCURVE",
"940 378 CURVE SMOOTH",
"1034 378 OFFCURVE",
"1086 317 OFFCURVE",
"1086 196 CURVE SMOOTH",
"1086 0 LINE",
"1130 0 LINE",
"1130 196 LINE SMOOTH",
"1130 345 OFFCURVE",
"1054 420 OFFCURVE",
"942 420 CURVE SMOOTH"
);
},
{
closed = 1;
nodes = (
"1395 -340 OFFCURVE",
"1472 -265 OFFCURVE",
"1472 -116 CURVE SMOOTH",
"1472 0 LINE",
"1428 0 LINE",
"1428 -116 LINE SMOOTH",
"1428 -237 OFFCURVE",
"1374 -298 OFFCURVE",
"1278 -298 CURVE SMOOTH",
"1183 -298 OFFCURVE",
"1130 -237 OFFCURVE",
"1130 -116 CURVE SMOOTH",
"1130 0 LINE",
"1086 0 LINE",
"1086 -116 LINE SMOOTH",
"1086 -265 OFFCURVE",
"1168 -340 OFFCURVE",
"1282 -340 CURVE SMOOTH"
);
},
{
closed = 1;
nodes = (
"1318 -24 OFFCURVE",
"1634 260 OFFCURVE",
"1634 750 CURVE SMOOTH",
"1634 1240 OFFCURVE",
"1318 1524 OFFCURVE",
"886 1524 CURVE SMOOTH",
"454 1524 OFFCURVE",
"138 1240 OFFCURVE",
"138 750 CURVE SMOOTH",
"138 260 OFFCURVE",
"454 -24 OFFCURVE",
"886 -24 CURVE SMOOTH"
);
},
{
closed = 1;
nodes = (
"466 20 OFFCURVE",
"186 308 OFFCURVE",
"186 750 CURVE SMOOTH",
"186 1192 OFFCURVE",
"466 1480 OFFCURVE",
"886 1480 CURVE SMOOTH",
"1306 1480 OFFCURVE",
"1586 1192 OFFCURVE",
"1586 750 CURVE SMOOTH",
"1586 308 OFFCURVE",
"1306 20 OFFCURVE",
"886 20 CURVE SMOOTH"
);
}
);
width = 1772;
},
{
anchors = (
{
name = bottom;
position = "{860, 0}";
},
{
name = top;
position = "{860, 1500}";
}
);
layerId = "1E61A082-F045-49A7-AB52-DD1B03FD9B54";
paths = (
{
closed = 1;
nodes = (
"803 420 OFFCURVE",
"722 345 OFFCURVE",
"722 196 CURVE SMOOTH",
"722 0 LINE",
"762 0 LINE",
"762 196 LINE SMOOTH",
"762 320 OFFCURVE",
"816 382 OFFCURVE",
"912 382 CURVE SMOOTH",
"1007 382 OFFCURVE",
"1060 320 OFFCURVE",
"1060 196 CURVE SMOOTH",
"1060 0 LINE",
"1104 0 LINE",
"1104 196 LINE SMOOTH",
"1104 345 OFFCURVE",
"1028 420 OFFCURVE",
"916 420 CURVE SMOOTH"
);
},
{
closed = 1;
nodes = (
"1369 -340 OFFCURVE",
"1446 -265 OFFCURVE",
"1446 -116 CURVE SMOOTH",
"1446 0 LINE",
"1406 0 LINE",
"1406 -116 LINE SMOOTH",
"1406 -240 OFFCURVE",
"1351 -302 OFFCURVE",
"1254 -302 CURVE SMOOTH",
"1158 -302 OFFCURVE",
"1104 -240 OFFCURVE",
"1104 -116 CURVE SMOOTH",
"1104 0 LINE",
"1060 0 LINE",
"1060 -116 LINE SMOOTH",
"1060 -265 OFFCURVE",
"1142 -340 OFFCURVE",
"1256 -340 CURVE SMOOTH"
);
},
{
closed = 1;
nodes = (
"1280 -24 OFFCURVE",
"1588 260 OFFCURVE",
"1588 750 CURVE SMOOTH",
"1588 1240 OFFCURVE",
"1280 1524 OFFCURVE",
"860 1524 CURVE SMOOTH",
"440 1524 OFFCURVE",
"132 1240 OFFCURVE",
"132 750 CURVE SMOOTH",
"132 260 OFFCURVE",
"440 -24 OFFCURVE",
"860 -24 CURVE SMOOTH"
);
},
{
closed = 1;
nodes = (
"452 14 OFFCURVE",
"180 304 OFFCURVE",
"180 750 CURVE SMOOTH",
"180 1196 OFFCURVE",
"452 1486 OFFCURVE",
"860 1486 CURVE SMOOTH",
"1268 1486 OFFCURVE",
"1540 1196 OFFCURVE",
"1540 750 CURVE SMOOTH",
"1540 304 OFFCURVE",
"1268 14 OFFCURVE",
"860 14 CURVE SMOOTH"
);
}
);
width = 1720;
},
{
anchors = (
{
name = bottom;
position = "{948, 0}";
},
{
name = top;
position = "{948, 1500}";
}
);
layerId = "219068EA-2B9B-40DC-949E-B60449C01B8A";
paths = (
{
closed = 1;
nodes = (
"784 677 OFFCURVE",
"680 578 OFFCURVE",
"680 385 CURVE SMOOTH",
"680 67 LINE",
"862 67 LINE",
"862 419 LINE SMOOTH",
"862 452 OFFCURVE",
"877 471 OFFCURVE",
"906 471 CURVE SMOOTH",
"935 471 OFFCURVE",
"950 452 OFFCURVE",
"950 419 CURVE SMOOTH",
"950 0 LINE",
"1224 0 LINE",
"1224 385 LINE SMOOTH",
"1224 578 OFFCURVE",
"1120 677 OFFCURVE",
"952 677 CURVE SMOOTH"
);
},
{
closed = 1;
nodes = (
"1380 -380 OFFCURVE",
"1482 -285 OFFCURVE",
"1482 -98 CURVE SMOOTH",
"1482 -40 LINE",
"1312 -40 LINE",
"1312 -132 LINE SMOOTH",
"1312 -165 OFFCURVE",
"1297 -184 OFFCURVE",
"1268 -184 CURVE SMOOTH",
"1239 -184 OFFCURVE",
"1224 -165 OFFCURVE",
"1224 -132 CURVE SMOOTH",
"1224 0 LINE",
"950 0 LINE",
"950 -98 LINE SMOOTH",
"950 -285 OFFCURVE",
"1052 -380 OFFCURVE",
"1216 -380 CURVE SMOOTH"
);
},
{
closed = 1;
nodes = (
"1472 -32 OFFCURVE",
"1832 256 OFFCURVE",
"1832 750 CURVE SMOOTH",
"1832 1244 OFFCURVE",
"1472 1532 OFFCURVE",
"948 1532 CURVE SMOOTH",
"424 1532 OFFCURVE",
"64 1244 OFFCURVE",
"64 750 CURVE SMOOTH",
"64 256 OFFCURVE",
"424 -32 OFFCURVE",
"948 -32 CURVE SMOOTH"
);
},
{
closed = 1;
nodes = (
"680 162 OFFCURVE",
"522 374 OFFCURVE",
"522 750 CURVE SMOOTH",
"522 1127 OFFCURVE",
"680 1338 OFFCURVE",
"948 1338 CURVE SMOOTH",
"1217 1338 OFFCURVE",
"1374 1127 OFFCURVE",
"1374 750 CURVE SMOOTH",
"1374 353 OFFCURVE",
"1217 162 OFFCURVE",
"948 162 CURVE SMOOTH"
);
}
);
width = 1896;
},
{
anchors = (
{
name = bottom;
position = "{882, 0}";
},
{
name = top;
position = "{882, 1500}";
}
);
layerId = "0C29AA02-E021-4BD1-A2C4-87F681D64C35";
paths = (
{
closed = 1;
nodes = (
"718 677 OFFCURVE",
"614 578 OFFCURVE",
"614 385 CURVE SMOOTH",
"614 67 LINE",
"796 67 LINE",
"796 419 LINE SMOOTH",
"796 452 OFFCURVE",
"811 471 OFFCURVE",
"840 471 CURVE SMOOTH",
"869 471 OFFCURVE",
"884 452 OFFCURVE",
"884 419 CURVE SMOOTH",
"884 0 LINE",
"1158 0 LINE",
"1158 385 LINE SMOOTH",
"1158 578 OFFCURVE",
"1054 677 OFFCURVE",
"886 677 CURVE SMOOTH"
);
},
{
closed = 1;
nodes = (
"1314 -380 OFFCURVE",
"1416 -285 OFFCURVE",
"1416 -98 CURVE SMOOTH",
"1416 -40 LINE",
"1246 -40 LINE",
"1246 -132 LINE SMOOTH",
"1246 -165 OFFCURVE",
"1231 -184 OFFCURVE",
"1202 -184 CURVE SMOOTH",
"1173 -184 OFFCURVE",
"1158 -165 OFFCURVE",
"1158 -132 CURVE SMOOTH",
"1158 0 LINE",
"884 0 LINE",
"884 -98 LINE SMOOTH",
"884 -285 OFFCURVE",
"986 -380 OFFCURVE",
"1150 -380 CURVE SMOOTH"
);
},
{
closed = 1;
nodes = (
"1382 -32 OFFCURVE",
"1726 256 OFFCURVE",
"1726 750 CURVE SMOOTH",
"1726 1244 OFFCURVE",
"1382 1532 OFFCURVE",
"882 1532 CURVE SMOOTH",
"382 1532 OFFCURVE",
"38 1244 OFFCURVE",
"38 750 CURVE SMOOTH",
"38 256 OFFCURVE",
"382 -32 OFFCURVE",
"882 -32 CURVE SMOOTH"
);
},
{
closed = 1;
nodes = (
"639 162 OFFCURVE",
"496 374 OFFCURVE",
"496 750 CURVE SMOOTH",
"496 1127 OFFCURVE",
"639 1338 OFFCURVE",
"882 1338 CURVE SMOOTH",
"1126 1338 OFFCURVE",
"1268 1127 OFFCURVE",
"1268 750 CURVE SMOOTH",
"1268 353 OFFCURVE",
"1126 162 OFFCURVE",
"882 162 CURVE SMOOTH"
);
}
);
width = 1764;
}
);
leftKerningGroup = O;
rightKerningGroup = O;
unicode = 0051;
},
{
color = 8;
glyphname = R;
lastChange = "2021-02-28 14:49:19 +0000";
layers = (
{
anchors = (
{
name = bottom;
position = "{802, 0}";
},
{
name = top;
position = "{800, 1500}";
}
);
layerId = "CA54B7DC-FBBB-40FE-ACF3-AABDD76D6A7B";
paths = (
{
closed = 1;
nodes = (
"1450 1365 OFFCURVE",
"1254 1500 OFFCURVE",
"970 1500 CURVE SMOOTH",
"358 1500 LINE",
"358 1456 LINE",
"958 1456 LINE SMOOTH",
"1230 1456 OFFCURVE",
"1402 1336 OFFCURVE",
"1402 1099 CURVE SMOOTH",
"1402 862 OFFCURVE",
"1230 742 OFFCURVE",
"958 742 CURVE SMOOTH",
"358 742 LINE",
"358 698 LINE",
"834 698 LINE",
"840 702 LINE",
"966 702 LINE SMOOTH",
"1252 702 OFFCURVE",
"1450 833 OFFCURVE",
"1450 1099 CURVE SMOOTH"
);
},
{
closed = 1;
nodes = (
"338 720 LINE",
"338 698 LINE",
"704 698 LINE SMOOTH",
"908 698 OFFCURVE",
"1046 571 OFFCURVE",
"1046 346 CURVE SMOOTH",
"1046 220 LINE SMOOTH",
"1046 74 OFFCURVE",
"1114 -20 OFFCURVE",
"1262 -20 CURVE SMOOTH",
"1410 -20 OFFCURVE",
"1478 74 OFFCURVE",
"1478 220 CURVE SMOOTH",
"1478 540 LINE",
"1434 540 LINE",
"1434 220 LINE SMOOTH",
"1434 109 OFFCURVE",
"1384 22 OFFCURVE",
"1264 22 CURVE SMOOTH",
"1142 22 OFFCURVE",
"1094 109 OFFCURVE",
"1094 220 CURVE SMOOTH",
"1094 338 LINE SMOOTH",
"1094 592 OFFCURVE",
"982 720 OFFCURVE",
"722 720 CURVE SMOOTH"
);
},
{
closed = 1;
nodes = (
"310 44 LINE",
"72 44 LINE",
"72 0 LINE",
"660 0 LINE",
"660 44 LINE",
"358 44 LINE",
"358 1500 LINE",
"77 1500 LINE",
"77 1456 LINE",
"310 1456 LINE"
);
}
);
width = 1604;
},
{
anchors = (
{
name = bottom;
position = "{767, 0}";
},
{
name = top;
position = "{767, 1500}";
}
);
layerId = "1E61A082-F045-49A7-AB52-DD1B03FD9B54";
paths = (
{
closed = 1;
nodes = (
"1379 1369 OFFCURVE",
"1191 1500 OFFCURVE",
"919 1500 CURVE SMOOTH",
"347 1500 LINE",
"347 1462 LINE",
"907 1462 LINE SMOOTH",
"1167 1462 OFFCURVE",
"1331 1344 OFFCURVE",
"1331 1111 CURVE SMOOTH",
"1331 878 OFFCURVE",
"1167 760 OFFCURVE",
"907 760 CURVE SMOOTH",
"347 760 LINE",
"347 722 LINE",
"783 722 LINE",
"795 726 LINE",
"919 726 LINE SMOOTH",
"1191 726 OFFCURVE",
"1379 853 OFFCURVE",
"1379 1111 CURVE SMOOTH"
);
},
{
closed = 1;
nodes = (
"347 741 LINE",
"347 722 LINE",
"673 722 LINE SMOOTH",
"893 722 OFFCURVE",
"1015 599 OFFCURVE",
"1015 380 CURVE SMOOTH",
"1015 190 LINE SMOOTH",
"1015 62 OFFCURVE",
"1074 -20 OFFCURVE",
"1201 -20 CURVE SMOOTH",
"1328 -20 OFFCURVE",
"1387 62 OFFCURVE",
"1387 190 CURVE SMOOTH",
"1387 584 LINE",
"1347 584 LINE",
"1347 190 LINE SMOOTH",
"1347 94 OFFCURVE",
"1305 18 OFFCURVE",
"1205 18 CURVE SMOOTH",
"1103 18 OFFCURVE",
"1063 94 OFFCURVE",
"1063 190 CURVE SMOOTH",
"1063 372 LINE SMOOTH",
"1063 611 OFFCURVE",
"955 741 OFFCURVE",
"691 741 CURVE SMOOTH"
);
},
{
closed = 1;
nodes = (
"299 36 LINE",
"46 36 LINE",
"46 0 LINE",
"669 0 LINE",
"669 36 LINE",
"347 36 LINE",
"347 1500 LINE",
"51 1500 LINE",
"51 1464 LINE",
"299 1464 LINE"
);
}
);
width = 1533;
},
{
anchors = (
{
name = bottom;
position = "{868, 0}";
},
{
name = top;
position = "{856, 1500}";
}
);
layerId = "219068EA-2B9B-40DC-949E-B60449C01B8A";
paths = (
{
closed = 1;
nodes = (
"1630 1369 OFFCURVE",
"1414 1508 OFFCURVE",
"1089 1508 CURVE SMOOTH",
"647 1508 LINE",
"647 1284 LINE",
"949 1284 LINE SMOOTH",
"1104 1284 OFFCURVE",
"1200 1217 OFFCURVE",
"1200 1079 CURVE SMOOTH",
"1200 941 OFFCURVE",
"1104 874 OFFCURVE",
"949 874 CURVE SMOOTH",
"647 874 LINE",
"647 650 LINE",
"906 650 LINE",
"960 690 LINE",
"1099 690 LINE SMOOTH",
"1418 690 OFFCURVE",
"1630 827 OFFCURVE",
"1630 1096 CURVE SMOOTH"
);
},
{
closed = 1;
nodes = (
"647 706 LINE",
"647 650 LINE",
"704 650 LINE SMOOTH",
"830 650 OFFCURVE",
"895 611 OFFCURVE",
"895 463 CURVE SMOOTH",
"895 370 LINE SMOOTH",
"895 133 OFFCURVE",
"1029 -22 OFFCURVE",
"1303 -22 CURVE SMOOTH",
"1572 -22 OFFCURVE",
"1685 133 OFFCURVE",
"1685 362 CURVE SMOOTH",
"1685 607 LINE",
"1453 607 LINE",
"1453 318 LINE SMOOTH",
"1453 263 OFFCURVE",
"1433 230 OFFCURVE",
"1379 230 CURVE SMOOTH",
"1325 230 OFFCURVE",
"1305 263 OFFCURVE",
"1305 318 CURVE SMOOTH",
"1305 371 LINE SMOOTH",
"1305 582 OFFCURVE",
"1221 706 OFFCURVE",
"987 706 CURVE SMOOTH"
);
},
{
closed = 1;
nodes = (
"227 214 LINE",
"62 214 LINE",
"62 0 LINE",
"797 0 LINE",
"797 214 LINE",
"647 214 LINE",
"647 1508 LINE",
"65 1508 LINE",
"65 1294 LINE",
"227 1294 LINE"
);
}
);
width = 1737;
},
{
anchors = (
{
name = bottom;
position = "{830, 0}";
},
{
name = top;
position = "{806, 1500}";
}
);
layerId = "0C29AA02-E021-4BD1-A2C4-87F681D64C35";
paths = (
{
closed = 1;
nodes = (
"1567 1364 OFFCURVE",
"1355 1500 OFFCURVE",
"1036 1500 CURVE SMOOTH",
"644 1500 LINE",
"644 1300 LINE",
"882 1300 LINE SMOOTH",
"1039 1300 OFFCURVE",
"1137 1227 OFFCURVE",
"1137 1079 CURVE SMOOTH",
"1137 931 OFFCURVE",
"1039 858 OFFCURVE",
"882 858 CURVE SMOOTH",
"644 858 LINE",
"644 658 LINE",
"811 658 LINE",
"868 698 LINE",
"1036 698 LINE SMOOTH",
"1355 698 OFFCURVE",
"1567 832 OFFCURVE",
"1567 1096 CURVE SMOOTH"
);
},
{
closed = 1;
nodes = (
"644 700 LINE",
"644 658 LINE",
"671 658 LINE SMOOTH",
"781 658 OFFCURVE",
"843 609 OFFCURVE",
"848 473 CURVE SMOOTH",
"852 370 LINE SMOOTH",
"861 136 OFFCURVE",
"963 -22 OFFCURVE",
"1223 -22 CURVE SMOOTH",
"1477 -22 OFFCURVE",
"1586 125 OFFCURVE",
"1586 342 CURVE SMOOTH",
"1586 673 LINE",
"1382 673 LINE",
"1382 330 LINE SMOOTH",
"1382 273 OFFCURVE",
"1358 248 OFFCURVE",
"1316 248 CURVE SMOOTH",
"1278 248 OFFCURVE",
"1250 273 OFFCURVE",
"1250 330 CURVE SMOOTH",
"1250 357 LINE SMOOTH",
"1250 559 OFFCURVE",
"1152 700 OFFCURVE",
"882 700 CURVE SMOOTH"
);
},
{
closed = 1;
nodes = (
"224 196 LINE",
"48 196 LINE",
"48 0 LINE",
"804 0 LINE",
"804 196 LINE",
"644 196 LINE",
"644 1500 LINE",
"51 1500 LINE",
"51 1304 LINE",
"224 1304 LINE"
);
}
);
width = 1642;
}
);
leftKerningGroup = I;
rightKerningGroup = R;
unicode = 0052;
},
{
color = 8;
glyphname = S;
lastChange = "2021-02-28 14:49:18 +0000";
layers = (
{
anchors = (
{
name = bottom;
position = "{809, 0}";
},
{
name = top;
position = "{736, 1500}";
}
);
layerId = "CA54B7DC-FBBB-40FE-ACF3-AABDD76D6A7B";
paths = (
{
closed = 1;
nodes = (
"176 890 OFFCURVE",
"381 795 OFFCURVE",
"650 760 CURVE SMOOTH",
"866 732 LINE SMOOTH",
"1118 699 OFFCURVE",
"1320 614 OFFCURVE",
"1320 371 CURVE SMOOTH",
"1320 145 OFFCURVE",
"1161 20 OFFCURVE",
"870 20 CURVE SMOOTH",
"580 20 OFFCURVE",
"323 162 OFFCURVE",
"210 470 CURVE",
"172 470 LINE",
"271 124 OFFCURVE",
"560 -24 OFFCURVE",
"870 -24 CURVE SMOOTH",
"1179 -24 OFFCURVE",
"1368 106 OFFCURVE",
"1368 371 CURVE SMOOTH",
"1368 638 OFFCURVE",
"1160 742 OFFCURVE",
"874 779 CURVE SMOOTH",
"658 807 LINE SMOOTH",
"407 840 OFFCURVE",
"224 922 OFFCURVE",
"224 1149 CURVE SMOOTH",
"224 1367 OFFCURVE",
"380 1480 OFFCURVE",
"668 1480 CURVE SMOOTH",
"943 1480 OFFCURVE",
"1179 1351 OFFCURVE",
"1280 1050 CURVE",
"1315 1050 LINE",
"1237 1391 OFFCURVE",
"959 1524 OFFCURVE",
"668 1524 CURVE SMOOTH",
"366 1524 OFFCURVE",
"176 1406 OFFCURVE",
"176 1149 CURVE SMOOTH"
);
},
{
closed = 1;
nodes = (
"1282 1500 LINE",
"1282 1124 LINE",
"1315 1050 LINE",
"1326 1050 LINE",
"1326 1500 LINE"
);
},
{
closed = 1;
nodes = (
"208 0 LINE",
"208 392 LINE",
"172 470 LINE",
"164 470 LINE",
"164 0 LINE"
);
}
);
width = 1516;
},
{
anchors = (
{
name = bottom;
position = "{798, 0}";
},
{
name = top;
position = "{722, 1500}";
}
);
layerId = "1E61A082-F045-49A7-AB52-DD1B03FD9B54";
paths = (
{
closed = 1;
nodes = (
"208 890 OFFCURVE",
"399 812 OFFCURVE",
"646 767 CURVE SMOOTH",
"854 729 LINE SMOOTH",
"1084 687 OFFCURVE",
"1272 614 OFFCURVE",
"1272 371 CURVE SMOOTH",
"1272 142 OFFCURVE",
"1117 16 OFFCURVE",
"852 16 CURVE SMOOTH",
"580 16 OFFCURVE",
"347 178 OFFCURVE",
"240 530 CURVE",
"206 530 LINE",
"300 139 OFFCURVE",
"560 -24 OFFCURVE",
"852 -24 CURVE SMOOTH",
"1137 -24 OFFCURVE",
"1320 106 OFFCURVE",
"1320 371 CURVE SMOOTH",
"1320 638 OFFCURVE",
"1126 724 OFFCURVE",
"862 772 CURVE SMOOTH",
"654 810 LINE SMOOTH",
"425 852 OFFCURVE",
"256 922 OFFCURVE",
"256 1149 CURVE SMOOTH",
"256 1370 OFFCURVE",
"408 1484 OFFCURVE",
"670 1484 CURVE SMOOTH",
"926 1484 OFFCURVE",
"1140 1336 OFFCURVE",
"1234 990 CURVE",
"1267 990 LINE",
"1190 1374 OFFCURVE",
"942 1524 OFFCURVE",
"670 1524 CURVE SMOOTH",
"392 1524 OFFCURVE",
"208 1406 OFFCURVE",
"208 1149 CURVE SMOOTH"
);
},
{
closed = 1;
nodes = (
"1238 1500 LINE",
"1238 1064 LINE",
"1267 990 LINE",
"1278 990 LINE",
"1278 1500 LINE"
);
},
{
closed = 1;
nodes = (
"236 0 LINE",
"236 452 LINE",
"206 530 LINE",
"196 530 LINE",
"196 0 LINE"
);
}
);
width = 1494;
},
{
anchors = (
{
name = bottom;
position = "{835, 0}";
},
{
name = top;
position = "{757, 1500}";
}
);
layerId = "219068EA-2B9B-40DC-949E-B60449C01B8A";
paths = (
{
closed = 1;
nodes = (
"86 755 OFFCURVE",
"363 609 OFFCURVE",
"726 552 CURVE SMOOTH",
"866 530 LINE SMOOTH",
"994 510 OFFCURVE",
"1100 478 OFFCURVE",
"1100 367 CURVE SMOOTH",
"1100 256 OFFCURVE",
"1019 208 OFFCURVE",
"875 208 CURVE SMOOTH",
"644 208 OFFCURVE",
"447 302 OFFCURVE",
"364 480 CURVE",
"215 480 LINE",
"307 109 OFFCURVE",
"584 -32 OFFCURVE",
"931 -32 CURVE SMOOTH",
"1271 -32 OFFCURVE",
"1504 131 OFFCURVE",
"1504 451 CURVE SMOOTH",
"1504 774 OFFCURVE",
"1222 896 OFFCURVE",
"844 955 CURVE SMOOTH",
"704 977 LINE SMOOTH",
"580 996 OFFCURVE",
"484 1041 OFFCURVE",
"484 1141 CURVE SMOOTH",
"484 1243 OFFCURVE",
"568 1292 OFFCURVE",
"711 1292 CURVE SMOOTH",
"912 1292 OFFCURVE",
"1100 1205 OFFCURVE",
"1178 1041 CURVE",
"1309 1041 LINE",
"1214 1406 OFFCURVE",
"964 1532 OFFCURVE",
"652 1532 CURVE SMOOTH",
"336 1532 OFFCURVE",
"86 1387 OFFCURVE",
"86 1071 CURVE SMOOTH"
);
},
{
closed = 1;
nodes = (
"1182 1501 LINE",
"1182 1275 LINE",
"1309 1041 LINE",
"1426 1041 LINE",
"1426 1501 LINE"
);
},
{
closed = 1;
nodes = (
"360 0 LINE",
"360 287 LINE",
"215 480 LINE",
"116 480 LINE",
"116 0 LINE"
);
}
);
width = 1566;
},
{
anchors = (
{
name = bottom;
position = "{823, 0}";
},
{
name = top;
position = "{707, 1500}";
}
);
layerId = "0C29AA02-E021-4BD1-A2C4-87F681D64C35";
paths = (
{
closed = 1;
nodes = (
"102 755 OFFCURVE",
"360 605 OFFCURVE",
"698 552 CURVE SMOOTH",
"838 530 LINE SMOOTH",
"961 511 OFFCURVE",
"1062 463 OFFCURVE",
"1062 347 CURVE SMOOTH",
"1062 233 OFFCURVE",
"985 170 OFFCURVE",
"847 170 CURVE SMOOTH",
"614 170 OFFCURVE",
"416 307 OFFCURVE",
"332 540 CURVE",
"245 540 LINE",
"289 125 OFFCURVE",
"568 -32 OFFCURVE",
"895 -32 CURVE SMOOTH",
"1220 -32 OFFCURVE",
"1432 131 OFFCURVE",
"1432 451 CURVE SMOOTH",
"1432 774 OFFCURVE",
"1170 899 OFFCURVE",
"816 955 CURVE SMOOTH",
"676 977 LINE SMOOTH",
"556 996 OFFCURVE",
"466 1055 OFFCURVE",
"466 1163 CURVE SMOOTH",
"466 1272 OFFCURVE",
"546 1334 OFFCURVE",
"683 1334 CURVE SMOOTH",
"886 1334 OFFCURVE",
"1075 1202 OFFCURVE",
"1154 981 CURVE",
"1239 981 LINE",
"1181 1379 OFFCURVE",
"924 1532 OFFCURVE",
"624 1532 CURVE SMOOTH",
"322 1532 OFFCURVE",
"102 1387 OFFCURVE",
"102 1071 CURVE SMOOTH"
);
},
{
closed = 1;
nodes = (
"1136 1501 LINE",
"1136 1115 LINE",
"1239 981 LINE",
"1352 981 LINE",
"1352 1501 LINE"
);
},
{
closed = 1;
nodes = (
"350 0 LINE",
"350 387 LINE",
"245 540 LINE",
"134 540 LINE",
"134 0 LINE"
);
}
);
width = 1510;
}
);
leftKerningGroup = S;
rightKerningGroup = S;
unicode = 0053;
},
{
color = 8;
glyphname = T;
lastChange = "2021-02-28 14:49:18 +0000";
layers = (
{
anchors = (
{
name = bottom;
position = "{826, 0}";
},
{
name = center;
position = "{826, 730}";
},
{
name = top;
position = "{826, 1500}";
}
);
layerId = "CA54B7DC-FBBB-40FE-ACF3-AABDD76D6A7B";
paths = (
{
closed = 1;
nodes = (
"850 1500 LINE",
"802 1500 LINE",
"802 44 LINE",
"500 44 LINE",
"500 0 LINE",
"1152 0 LINE",
"1152 44 LINE",
"850 44 LINE"
);
},
{
closed = 1;
nodes = (
"1540 1500 LINE",
"112 1500 LINE",
"112 1456 LINE",
"1540 1456 LINE"
);
},
{
closed = 1;
nodes = (
"1470 1456 OFFCURVE",
"1496 1430 OFFCURVE",
"1496 1326 CURVE SMOOTH",
"1496 1040 LINE",
"1540 1040 LINE",
"1540 1456 LINE",
"1370 1456 LINE SMOOTH"
);
},
{
closed = 1;
nodes = (
"112 1456 LINE",
"112 1040 LINE",
"156 1040 LINE",
"156 1326 LINE SMOOTH",
"156 1430 OFFCURVE",
"182 1456 OFFCURVE",
"282 1456 CURVE SMOOTH"
);
}
);
width = 1652;
},
{
anchors = (
{
name = bottom;
position = "{800, 0}";
},
{
name = center;
position = "{800, 730}";
},
{
name = top;
position = "{800, 1500}";
}
);
layerId = "1E61A082-F045-49A7-AB52-DD1B03FD9B54";
paths = (
{
closed = 1;
nodes = (
"824 1500 LINE",
"776 1500 LINE",
"776 36 LINE",
"408 36 LINE",
"408 0 LINE",
"1192 0 LINE",
"1192 36 LINE",
"824 36 LINE"
);
},
{
closed = 1;
nodes = (
"1484 1500 LINE",
"116 1500 LINE",
"116 1462 LINE",
"1484 1462 LINE"
);
},
{
closed = 1;
nodes = (
"1418 1462 OFFCURVE",
"1444 1436 OFFCURVE",
"1444 1332 CURVE SMOOTH",
"1444 980 LINE",
"1484 980 LINE",
"1484 1462 LINE",
"1318 1462 LINE SMOOTH"
);
},
{
closed = 1;
nodes = (
"116 1462 LINE",
"116 980 LINE",
"156 980 LINE",
"156 1332 LINE SMOOTH",
"156 1436 OFFCURVE",
"182 1462 OFFCURVE",
"282 1462 CURVE SMOOTH"
);
}
);
width = 1600;
},
{
anchors = (
{
name = bottom;
position = "{872, 0}";
},
{
name = center;
position = "{872, 710}";
},
{
name = top;
position = "{872, 1500}";
}
);
layerId = "219068EA-2B9B-40DC-949E-B60449C01B8A";
paths = (
{
closed = 1;
nodes = (
"1082 1500 LINE",
"662 1500 LINE",
"662 214 LINE",
"452 214 LINE",
"452 0 LINE",
"1292 0 LINE",
"1292 214 LINE",
"1082 214 LINE"
);
},
{
closed = 1;
nodes = (
"1676 1500 LINE",
"68 1500 LINE",
"68 1284 LINE",
"1676 1284 LINE"
);
},
{
closed = 1;
nodes = (
"1384 1284 OFFCURVE",
"1444 1214 OFFCURVE",
"1444 1044 CURVE SMOOTH",
"1444 940 LINE",
"1676 940 LINE",
"1676 1284 LINE",
"1224 1284 LINE SMOOTH"
);
},
{
closed = 1;
nodes = (
"68 1284 LINE",
"68 940 LINE",
"300 940 LINE",
"300 1044 LINE SMOOTH",
"300 1214 OFFCURVE",
"360 1284 OFFCURVE",
"520 1284 CURVE SMOOTH"
);
}
);
width = 1744;
},
{
anchors = (
{
name = bottom;
position = "{798, 0}";
},
{
name = center;
position = "{798, 710}";
},
{
name = top;
position = "{798, 1500}";
}
);
layerId = "0C29AA02-E021-4BD1-A2C4-87F681D64C35";
paths = (
{
closed = 1;
nodes = (
"1008 1500 LINE",
"588 1500 LINE",
"588 196 LINE",
"300 196 LINE",
"300 0 LINE",
"1296 0 LINE",
"1296 196 LINE",
"1008 196 LINE"
);
},
{
closed = 1;
nodes = (
"1538 1500 LINE",
"58 1500 LINE",
"58 1302 LINE",
"1538 1302 LINE"
);
},
{
closed = 1;
nodes = (
"1280 1302 OFFCURVE",
"1340 1232 OFFCURVE",
"1340 1062 CURVE SMOOTH",
"1340 920 LINE",
"1538 920 LINE",
"1538 1302 LINE",
"1120 1302 LINE SMOOTH"
);
},
{
closed = 1;
nodes = (
"58 1302 LINE",
"58 920 LINE",
"256 920 LINE",
"256 1062 LINE SMOOTH",
"256 1232 OFFCURVE",
"316 1302 OFFCURVE",
"476 1302 CURVE SMOOTH"
);
}
);
width = 1596;
}
);
leftKerningGroup = T;
rightKerningGroup = T;
unicode = 0054;
},
{
color = 8;
glyphname = U;
lastChange = "2021-02-28 14:49:19 +0000";
layers = (
{
anchors = (
{
name = bottom;
position = "{901, 0}";
},
{
name = ogonek;
position = "{1214, 0}";
},
{
name = top;
position = "{912, 1500}";
},
{
name = topright;
position = "{1513, 1500}";
}
);
layerId = "CA54B7DC-FBBB-40FE-ACF3-AABDD76D6A7B";
paths = (
{
closed = 1;
nodes = (
"289 207 OFFCURVE",
"495 -24 OFFCURVE",
"901 -24 CURVE SMOOTH",
"1307 -24 OFFCURVE",
"1513 207 OFFCURVE",
"1513 614 CURVE SMOOTH",
"1513 1456 LINE",
"1746 1456 LINE",
"1746 1500 LINE",
"1214 1500 LINE",
"1214 1456 LINE",
"1469 1456 LINE",
"1469 614 LINE SMOOTH",
"1469 250 OFFCURVE",
"1289 20 OFFCURVE",
"903 20 CURVE SMOOTH",
"517 20 OFFCURVE",
"337 250 OFFCURVE",
"337 614 CURVE SMOOTH",
"337 1456 LINE",
"592 1456 LINE",
"592 1500 LINE",
"56 1500 LINE",
"56 1456 LINE",
"289 1456 LINE",
"289 614 LINE SMOOTH"
);
}
);
width = 1802;
},
{
anchors = (
{
name = bottom;
position = "{854, 0}";
},
{
name = ogonek;
position = "{1158, 0}";
},
{
name = top;
position = "{860, 1500}";
},
{
name = topright;
position = "{1430, 1500}";
}
);
layerId = "1E61A082-F045-49A7-AB52-DD1B03FD9B54";
paths = (
{
closed = 1;
nodes = (
"278 192 OFFCURVE",
"472 -24 OFFCURVE",
"854 -24 CURVE SMOOTH",
"1236 -24 OFFCURVE",
"1430 192 OFFCURVE",
"1430 574 CURVE SMOOTH",
"1430 1464 LINE",
"1678 1464 LINE",
"1678 1500 LINE",
"1119 1500 LINE",
"1119 1464 LINE",
"1390 1464 LINE",
"1390 574 LINE SMOOTH",
"1390 230 OFFCURVE",
"1221 14 OFFCURVE",
"858 14 CURVE SMOOTH",
"495 14 OFFCURVE",
"326 230 OFFCURVE",
"326 574 CURVE SMOOTH",
"326 1464 LINE",
"597 1464 LINE",
"597 1500 LINE",
"30 1500 LINE",
"30 1464 LINE",
"278 1464 LINE",
"278 574 LINE SMOOTH"
);
}
);
width = 1708;
},
{
anchors = (
{
name = bottom;
position = "{918, 0}";
},
{
name = ogonek;
position = "{1264, 0}";
},
{
name = top;
position = "{975, 1500}";
},
{
name = topright;
position = "{1622, 1500}";
}
);
layerId = "219068EA-2B9B-40DC-949E-B60449C01B8A";
paths = (
{
closed = 1;
nodes = (
"214 214 OFFCURVE",
"455 -22 OFFCURVE",
"918 -22 CURVE SMOOTH",
"1381 -22 OFFCURVE",
"1622 214 OFFCURVE",
"1622 628 CURVE SMOOTH",
"1622 1286 LINE",
"1784 1286 LINE",
"1784 1500 LINE",
"1125 1500 LINE",
"1125 1286 LINE",
"1302 1286 LINE",
"1302 586 LINE SMOOTH",
"1302 363 OFFCURVE",
"1202 229 OFFCURVE",
"972 229 CURVE SMOOTH",
"742 229 OFFCURVE",
"642 363 OFFCURVE",
"642 586 CURVE SMOOTH",
"642 1286 LINE",
"819 1286 LINE",
"819 1500 LINE",
"52 1500 LINE",
"52 1286 LINE",
"214 1286 LINE",
"214 628 LINE SMOOTH"
);
}
);
width = 1836;
},
{
anchors = (
{
name = bottom;
position = "{869, 0}";
},
{
name = ogonek;
position = "{1204, 0}";
},
{
name = top;
position = "{934, 1500}";
},
{
name = topright;
position = "{1523, 1501}";
}
);
layerId = "0C29AA02-E021-4BD1-A2C4-87F681D64C35";
paths = (
{
closed = 1;
nodes = (
"215 196 OFFCURVE",
"439 -22 OFFCURVE",
"869 -22 CURVE SMOOTH",
"1299 -22 OFFCURVE",
"1523 196 OFFCURVE",
"1523 578 CURVE SMOOTH",
"1523 1304 LINE",
"1696 1304 LINE",
"1696 1500 LINE",
"1062 1500 LINE",
"1062 1304 LINE",
"1251 1304 LINE",
"1251 498 LINE SMOOTH",
"1251 300 OFFCURVE",
"1152 181 OFFCURVE",
"946 181 CURVE SMOOTH",
"740 181 OFFCURVE",
"641 300 OFFCURVE",
"641 498 CURVE SMOOTH",
"641 1304 LINE",
"830 1304 LINE",
"830 1500 LINE",
"42 1500 LINE",
"42 1304 LINE",
"215 1304 LINE",
"215 578 LINE SMOOTH"
);
}
);
width = 1738;
}
);
leftKerningGroup = U;
rightKerningGroup = U;
unicode = 0055;
},
{
color = 8;
glyphname = V;
lastChange = "2021-02-28 14:49:19 +0000";
layers = (
{
anchors = (
{
name = bottom;
position = "{841, 0}";
},
{
name = top;
position = "{841, 1500}";
}
);
layerId = "CA54B7DC-FBBB-40FE-ACF3-AABDD76D6A7B";
paths = (
{
closed = 1;
nodes = (
"1170 1500 LINE",
"1170 1456 LINE",
"1435 1456 LINE",
"835 47 LINE",
"852 47 LINE",
"251 1456 LINE",
"516 1456 LINE",
"516 1500 LINE",
"28 1500 LINE",
"28 1456 LINE",
"199 1456 LINE",
"822 0 LINE",
"860 0 LINE",
"1483 1456 LINE",
"1654 1456 LINE",
"1654 1500 LINE"
);
}
);
width = 1682;
},
{
anchors = (
{
name = bottom;
position = "{823, 0}";
},
{
name = top;
position = "{823, 1500}";
}
);
layerId = "1E61A082-F045-49A7-AB52-DD1B03FD9B54";
paths = (
{
closed = 1;
nodes = (
"1109 1500 LINE",
"1109 1464 LINE",
"1395 1464 LINE",
"819 47 LINE",
"836 47 LINE",
"260 1464 LINE",
"546 1464 LINE",
"546 1500 LINE",
"29 1500 LINE",
"29 1464 LINE",
"208 1464 LINE",
"805 0 LINE",
"841 0 LINE",
"1438 1464 LINE",
"1617 1464 LINE",
"1617 1500 LINE"
);
}
);
width = 1646;
},
{
anchors = (
{
name = bottom;
position = "{912, 0}";
},
{
name = top;
position = "{912, 1500}";
}
);
layerId = "219068EA-2B9B-40DC-949E-B60449C01B8A";
paths = (
{
closed = 1;
nodes = (
"1164 1500 LINE",
"1164 1286 LINE",
"1370 1286 LINE",
"929 231 LINE",
"1060 230 LINE",
"630 1286 LINE",
"838 1286 LINE",
"838 1500 LINE",
"34 1500 LINE",
"34 1286 LINE",
"173 1286 LINE",
"718 0 LINE",
"1106 0 LINE",
"1651 1286 LINE",
"1790 1286 LINE",
"1790 1500 LINE"
);
}
);
width = 1824;
},
{
anchors = (
{
name = bottom;
position = "{882, 0}";
},
{
name = top;
position = "{882, 1500}";
}
);
layerId = "0C29AA02-E021-4BD1-A2C4-87F681D64C35";
paths = (
{
closed = 1;
nodes = (
"1128 1500 LINE",
"1128 1304 LINE",
"1350 1304 LINE",
"914 231 LINE",
"1053 230 LINE",
"625 1304 LINE",
"848 1304 LINE",
"848 1500 LINE",
"25 1500 LINE",
"25 1304 LINE",
"171 1304 LINE",
"707 0 LINE",
"1056 0 LINE",
"1592 1304 LINE",
"1738 1304 LINE",
"1738 1500 LINE"
);
}
);
width = 1763;
}
);
leftKerningGroup = V;
rightKerningGroup = V;
unicode = 0056;
},
{
color = 8;
glyphname = W;
lastChange = "2021-02-28 14:49:19 +0000";
layers = (
{
anchors = (
{
name = bottom;
position = "{1103, 0}";
},
{
name = top;
position = "{1103, 1500}";
}
);
layerId = "CA54B7DC-FBBB-40FE-ACF3-AABDD76D6A7B";
paths = (
{
closed = 1;
nodes = (
"1700 1500 LINE",
"1700 1456 LINE",
"1967 1456 LINE",
"1500 47 LINE",
"1519 47 LINE",
"1052 1456 LINE",
"1319 1456 LINE",
"1319 1500 LINE",
"832 1500 LINE",
"832 1456 LINE",
"1001 1456 LINE",
"1486 0 LINE",
"1528 0 LINE",
"2013 1456 LINE",
"2182 1456 LINE",
"2182 1500 LINE"
);
},
{
closed = 1;
nodes = (
"1096 1252 LINE",
"696 47 LINE",
"715 47 LINE",
"248 1456 LINE",
"515 1456 LINE",
"515 1500 LINE",
"28 1500 LINE",
"28 1456 LINE",
"197 1456 LINE",
"682 0 LINE",
"724 0 LINE",
"1120 1187 LINE"
);
}
);
width = 2210;
},
{
anchors = (
{
name = bottom;
position = "{1115, 0}";
},
{
name = top;
position = "{1115, 1500}";
}
);
layerId = "1E61A082-F045-49A7-AB52-DD1B03FD9B54";
paths = (
{
closed = 1;
nodes = (
"1694 1500 LINE",
"1694 1464 LINE",
"1982 1464 LINE",
"1512 47 LINE",
"1531 47 LINE",
"1061 1464 LINE",
"1349 1464 LINE",
"1349 1500 LINE",
"833 1500 LINE",
"833 1464 LINE",
"1010 1464 LINE",
"1498 0 LINE",
"1536 0 LINE",
"2024 1464 LINE",
"2201 1464 LINE",
"2201 1500 LINE"
);
},
{
closed = 1;
nodes = (
"1108 1252 LINE",
"708 47 LINE",
"727 47 LINE",
"257 1464 LINE",
"545 1464 LINE",
"545 1500 LINE",
"29 1500 LINE",
"29 1464 LINE",
"206 1464 LINE",
"694 0 LINE",
"732 0 LINE",
"1128 1187 LINE"
);
}
);
width = 2230;
},
{
anchors = (
{
name = bottom;
position = "{1271, 0}";
},
{
name = top;
position = "{1306, 1500}";
}
);
layerId = "219068EA-2B9B-40DC-949E-B60449C01B8A";
paths = (
{
closed = 1;
nodes = (
"1897 1500 LINE",
"1897 1286 LINE",
"2104 1286 LINE",
"1722 231 LINE",
"1862 230 LINE",
"1485 1286 LINE",
"1692 1286 LINE",
"1692 1500 LINE",
"930 1500 LINE",
"930 1286 LINE",
"1068 1286 LINE",
"1536 0 LINE",
"1908 0 LINE",
"2376 1286 LINE",
"2508 1286 LINE",
"2508 1500 LINE"
);
},
{
closed = 1;
nodes = (
"1202 1257 LINE",
"830 231 LINE",
"970 230 LINE",
"593 1286 LINE",
"740 1286 LINE",
"740 1500 LINE",
"34 1500 LINE",
"34 1286 LINE",
"151 1286 LINE",
"619 0 LINE",
"1004 0 LINE",
"1330 895 LINE"
);
}
);
width = 2542;
},
{
anchors = (
{
name = bottom;
position = "{1161, 0}";
},
{
name = top;
position = "{1213, 1500}";
}
);
layerId = "0C29AA02-E021-4BD1-A2C4-87F681D64C35";
paths = (
{
closed = 1;
nodes = (
"1702 1500 LINE",
"1702 1304 LINE",
"1927 1304 LINE",
"1569 231 LINE",
"1721 230 LINE",
"1372 1304 LINE",
"1598 1304 LINE",
"1598 1500 LINE",
"829 1500 LINE",
"829 1304 LINE",
"950 1304 LINE",
"1390 0 LINE",
"1720 0 LINE",
"2160 1304 LINE",
"2297 1304 LINE",
"2297 1500 LINE"
);
},
{
closed = 1;
nodes = (
"1103 1140 LINE",
"800 231 LINE",
"952 230 LINE",
"603 1304 LINE",
"723 1304 LINE",
"723 1500 LINE",
"25 1500 LINE",
"25 1304 LINE",
"162 1304 LINE",
"602 0 LINE",
"932 0 LINE",
"1212 831 LINE"
);
}
);
width = 2322;
}
);
leftKerningGroup = W;
rightKerningGroup = W;
unicode = 0057;
},
{
color = 8;
glyphname = X;
lastChange = "2021-02-28 14:49:18 +0000";
layers = (
{
anchors = (
{
name = bottom;
position = "{839, 0}";
},
{
name = top;
position = "{839, 1500}";
}
);
layerId = "CA54B7DC-FBBB-40FE-ACF3-AABDD76D6A7B";
paths = (
{
closed = 1;
nodes = (
"829 738 LINE",
"850 738 LINE",
"1440 1456 LINE",
"1599 1456 LINE",
"1599 1500 LINE",
"1106 1500 LINE",
"1106 1456 LINE",
"1383 1456 LINE",
"825 777 LINE",
"859 777 LINE",
"301 1456 LINE",
"578 1456 LINE",
"578 1500 LINE",
"80 1500 LINE",
"80 1456 LINE",
"239 1456 LINE"
);
},
{
closed = 1;
nodes = (
"849 794 LINE",
"828 794 LINE",
"212 44 LINE",
"48 44 LINE",
"48 0 LINE",
"550 0 LINE",
"550 44 LINE",
"269 44 LINE",
"853 755 LINE",
"819 755 LINE",
"1403 44 LINE",
"1122 44 LINE",
"1122 0 LINE",
"1629 0 LINE",
"1629 44 LINE",
"1465 44 LINE"
);
}
);
width = 1677;
},
{
anchors = (
{
name = bottom;
position = "{829, 0}";
},
{
name = top;
position = "{829, 1500}";
}
);
layerId = "1E61A082-F045-49A7-AB52-DD1B03FD9B54";
paths = (
{
closed = 1;
nodes = (
"819 738 LINE",
"838 738 LINE",
"1407 1464 LINE",
"1570 1464 LINE",
"1570 1500 LINE",
"1052 1500 LINE",
"1052 1464 LINE",
"1354 1464 LINE",
"815 777 LINE",
"849 777 LINE",
"311 1464 LINE",
"613 1464 LINE",
"613 1500 LINE",
"87 1500 LINE",
"87 1464 LINE",
"250 1464 LINE"
);
},
{
closed = 1;
nodes = (
"838 794 LINE",
"819 794 LINE",
"225 36 LINE",
"58 36 LINE",
"58 0 LINE",
"585 0 LINE",
"585 36 LINE",
"278 36 LINE",
"842 755 LINE",
"808 755 LINE",
"1371 36 LINE",
"1064 36 LINE",
"1064 0 LINE",
"1599 0 LINE",
"1599 36 LINE",
"1432 36 LINE"
);
}
);
width = 1657;
},
{
anchors = (
{
name = bottom;
position = "{894, 0}";
},
{
name = top;
position = "{894, 1500}";
}
);
layerId = "219068EA-2B9B-40DC-949E-B60449C01B8A";
paths = (
{
closed = 1;
nodes = (
"690 677 LINE",
"1034 677 LINE",
"1542 1286 LINE",
"1680 1286 LINE",
"1680 1500 LINE",
"1049 1500 LINE",
"1049 1286 LINE",
"1210 1286 LINE",
"890 900 LINE",
"1030 900 LINE",
"729 1286 LINE",
"896 1286 LINE",
"896 1500 LINE",
"67 1500 LINE",
"67 1286 LINE",
"202 1286 LINE"
);
},
{
closed = 1;
nodes = (
"1086 853 LINE",
"742 853 LINE",
"209 214 LINE",
"68 214 LINE",
"68 0 LINE",
"715 0 LINE",
"715 214 LINE",
"541 214 LINE",
"886 630 LINE",
"746 630 LINE",
"1070 214 LINE",
"891 214 LINE",
"891 0 LINE",
"1736 0 LINE",
"1736 214 LINE",
"1598 214 LINE"
);
}
);
width = 1787;
},
{
anchors = (
{
name = bottom;
position = "{850, 0}";
},
{
name = top;
position = "{850, 1500}";
}
);
layerId = "0C29AA02-E021-4BD1-A2C4-87F681D64C35";
paths = (
{
closed = 1;
nodes = (
"647 677 LINE",
"945 677 LINE",
"1464 1304 LINE",
"1610 1304 LINE",
"1610 1500 LINE",
"1003 1500 LINE",
"1003 1304 LINE",
"1178 1304 LINE",
"847 900 LINE",
"982 900 LINE",
"692 1304 LINE",
"880 1304 LINE",
"880 1500 LINE",
"41 1500 LINE",
"41 1304 LINE",
"177 1304 LINE"
);
},
{
closed = 1;
nodes = (
"1031 853 LINE",
"733 853 LINE",
"189 196 LINE",
"40 196 LINE",
"40 0 LINE",
"664 0 LINE",
"664 196 LINE",
"476 196 LINE",
"831 630 LINE",
"697 630 LINE",
"1008 196 LINE",
"807 196 LINE",
"807 0 LINE",
"1663 0 LINE",
"1663 196 LINE",
"1524 196 LINE"
);
}
);
width = 1700;
}
);
leftKerningGroup = X;
rightKerningGroup = X;
unicode = 0058;
},
{
color = 8;
glyphname = Y;
lastChange = "2021-02-28 14:49:19 +0000";
layers = (
{
anchors = (
{
name = bottom;
position = "{806, 0}";
},
{
name = top;
position = "{806, 1500}";
},
{
name = topleft;
position = "{20, 1500}";
}
);
layerId = "CA54B7DC-FBBB-40FE-ACF3-AABDD76D6A7B";
paths = (
{
closed = 1;
nodes = (
"830 630 LINE",
"782 630 LINE",
"782 44 LINE",
"480 44 LINE",
"480 0 LINE",
"1132 0 LINE",
"1132 44 LINE",
"830 44 LINE"
);
},
{
closed = 1;
nodes = (
"1118 1500 LINE",
"1118 1456 LINE",
"1397 1456 LINE",
"802 633 LINE",
"818 633 LINE",
"220 1456 LINE",
"499 1456 LINE",
"499 1500 LINE",
"4 1500 LINE",
"4 1456 LINE",
"161 1456 LINE",
"785 597 LINE",
"827 597 LINE",
"1451 1456 LINE",
"1608 1456 LINE",
"1608 1500 LINE"
);
}
);
width = 1612;
},
{
anchors = (
{
name = bottom;
position = "{816, 0}";
},
{
name = top;
position = "{816, 1500}";
},
{
name = topleft;
position = "{20, 1500}";
}
);
layerId = "1E61A082-F045-49A7-AB52-DD1B03FD9B54";
paths = (
{
closed = 1;
nodes = (
"840 640 LINE",
"792 640 LINE",
"792 36 LINE",
"424 36 LINE",
"424 0 LINE",
"1208 0 LINE",
"1208 36 LINE",
"840 36 LINE"
);
},
{
closed = 1;
nodes = (
"1087 1500 LINE",
"1087 1464 LINE",
"1391 1464 LINE",
"813 643 LINE",
"828 643 LINE",
"249 1464 LINE",
"553 1464 LINE",
"553 1500 LINE",
"29 1500 LINE",
"29 1464 LINE",
"190 1464 LINE",
"795 607 LINE",
"837 607 LINE",
"1442 1464 LINE",
"1603 1464 LINE",
"1603 1500 LINE"
);
}
);
width = 1632;
},
{
anchors = (
{
name = bottom;
position = "{876, 0}";
},
{
name = top;
position = "{952, 1500}";
},
{
name = topleft;
position = "{21, 1500}";
}
);
layerId = "219068EA-2B9B-40DC-949E-B60449C01B8A";
paths = (
{
closed = 1;
nodes = (
"1086 772 LINE",
"666 772 LINE",
"666 214 LINE",
"456 214 LINE",
"456 0 LINE",
"1296 0 LINE",
"1296 214 LINE",
"1086 214 LINE"
);
},
{
closed = 1;
nodes = (
"1105 1500 LINE",
"1105 1286 LINE",
"1283 1286 LINE",
"924 751 LINE",
"1025 751 LINE",
"669 1286 LINE",
"846 1286 LINE",
"846 1500 LINE",
"34 1500 LINE",
"34 1286 LINE",
"166 1286 LINE",
"681 528 LINE",
"1071 528 LINE",
"1586 1286 LINE",
"1718 1286 LINE",
"1718 1500 LINE"
);
}
);
width = 1752;
},
{
anchors = (
{
name = bottom;
position = "{831, 0}";
},
{
name = top;
position = "{921, 1500}";
},
{
name = topleft;
position = "{20, 1500}";
}
);
layerId = "0C29AA02-E021-4BD1-A2C4-87F681D64C35";
paths = (
{
closed = 1;
nodes = (
"1041 792 LINE",
"621 792 LINE",
"621 196 LINE",
"333 196 LINE",
"333 0 LINE",
"1329 0 LINE",
"1329 196 LINE",
"1041 196 LINE"
);
},
{
closed = 1;
nodes = (
"1043 1500 LINE",
"1043 1304 LINE",
"1240 1304 LINE",
"910 771 LINE",
"977 771 LINE",
"650 1304 LINE",
"847 1304 LINE",
"847 1500 LINE",
"25 1500 LINE",
"25 1304 LINE",
"160 1304 LINE",
"636 548 LINE",
"1026 548 LINE",
"1502 1304 LINE",
"1637 1304 LINE",
"1637 1500 LINE"
);
}
);
width = 1662;
}
);
leftKerningGroup = Y;
rightKerningGroup = Y;
unicode = 0059;
},
{
color = 8;
glyphname = Z;
lastChange = "2021-02-28 14:49:18 +0000";
layers = (
{
anchors = (
{
name = bottom;
position = "{751, 0}";
},
{
name = center;
position = "{751, 750}";
},
{
name = top;
position = "{751, 1500}";
}
);
layerId = "CA54B7DC-FBBB-40FE-ACF3-AABDD76D6A7B";
paths = (
{
closed = 1;
nodes = (
"176 1456 LINE",
"1295 1456 LINE",
"1360 1460 LINE",
"1360 1500 LINE",
"176 1500 LINE"
);
},
{
closed = 1;
nodes = (
"132 0 LINE",
"1352 0 LINE",
"1352 44 LINE",
"197 44 LINE",
"132 40 LINE"
);
},
{
closed = 1;
nodes = (
"197 44 LINE",
"1360 1460 LINE",
"1295 1456 LINE",
"132 40 LINE"
);
},
{
closed = 1;
nodes = (
"176 1456 LINE",
"176 1020 LINE",
"220 1020 LINE",
"220 1326 LINE SMOOTH",
"220 1430 OFFCURVE",
"246 1456 OFFCURVE",
"346 1456 CURVE SMOOTH"
);
},
{
closed = 1;
nodes = (
"1352 44 LINE",
"1352 500 LINE",
"1308 500 LINE",
"1308 174 LINE SMOOTH",
"1308 70 OFFCURVE",
"1282 44 OFFCURVE",
"1182 44 CURVE SMOOTH"
);
}
);
width = 1502;
},
{
anchors = (
{
name = bottom;
position = "{736, 0}";
},
{
name = center;
position = "{736, 750}";
},
{
name = top;
position = "{736, 1500}";
}
);
layerId = "1E61A082-F045-49A7-AB52-DD1B03FD9B54";
paths = (
{
closed = 1;
nodes = (
"196 1462 LINE",
"1256 1462 LINE",
"1320 1466 LINE",
"1320 1500 LINE",
"196 1500 LINE"
);
},
{
closed = 1;
nodes = (
"152 0 LINE",
"1312 0 LINE",
"1312 38 LINE",
"216 38 LINE",
"152 34 LINE"
);
},
{
closed = 1;
nodes = (
"216 38 LINE",
"1320 1466 LINE",
"1256 1462 LINE",
"152 34 LINE"
);
},
{
closed = 1;
nodes = (
"196 1462 LINE",
"196 960 LINE",
"236 960 LINE",
"236 1332 LINE SMOOTH",
"236 1436 OFFCURVE",
"262 1462 OFFCURVE",
"362 1462 CURVE SMOOTH"
);
},
{
closed = 1;
nodes = (
"1312 38 LINE",
"1312 560 LINE",
"1272 560 LINE",
"1272 168 LINE SMOOTH",
"1272 64 OFFCURVE",
"1246 38 OFFCURVE",
"1146 38 CURVE SMOOTH"
);
}
);
width = 1472;
},
{
anchors = (
{
name = bottom;
position = "{788, 0}";
},
{
name = center;
position = "{788, 750}";
},
{
name = top;
position = "{802, 1500}";
}
);
layerId = "219068EA-2B9B-40DC-949E-B60449C01B8A";
paths = (
{
closed = 1;
nodes = (
"130 1282 LINE",
"945 1282 LINE",
"1491 1296 LINE",
"1491 1500 LINE",
"130 1500 LINE"
);
},
{
closed = 1;
nodes = (
"80 0 LINE",
"1481 0 LINE",
"1481 218 LINE",
"626 218 LINE",
"80 204 LINE"
);
},
{
closed = 1;
nodes = (
"626 218 LINE",
"1491 1296 LINE",
"945 1282 LINE",
"80 204 LINE"
);
},
{
closed = 1;
nodes = (
"130 1282 LINE",
"130 920 LINE",
"362 920 LINE",
"362 1042 LINE SMOOTH",
"362 1212 OFFCURVE",
"422 1282 OFFCURVE",
"582 1282 CURVE SMOOTH"
);
},
{
closed = 1;
nodes = (
"1481 218 LINE",
"1481 600 LINE",
"1249 600 LINE",
"1249 458 LINE SMOOTH",
"1249 288 OFFCURVE",
"1189 218 OFFCURVE",
"1029 218 CURVE SMOOTH"
);
}
);
width = 1575;
},
{
anchors = (
{
name = bottom;
position = "{742, 0}";
},
{
name = center;
position = "{742, 750}";
},
{
name = top;
position = "{760, 1500}";
}
);
layerId = "0C29AA02-E021-4BD1-A2C4-87F681D64C35";
paths = (
{
closed = 1;
nodes = (
"134 1300 LINE",
"873 1300 LINE",
"1393 1314 LINE",
"1393 1500 LINE",
"134 1500 LINE"
);
},
{
closed = 1;
nodes = (
"84 0 LINE",
"1383 0 LINE",
"1383 200 LINE",
"604 200 LINE",
"84 186 LINE"
);
},
{
closed = 1;
nodes = (
"604 200 LINE",
"1393 1314 LINE",
"873 1300 LINE",
"84 186 LINE"
);
},
{
closed = 1;
nodes = (
"134 1300 LINE",
"134 900 LINE",
"332 900 LINE",
"332 1060 LINE SMOOTH",
"332 1230 OFFCURVE",
"392 1300 OFFCURVE",
"552 1300 CURVE SMOOTH"
);
},
{
closed = 1;
nodes = (
"1383 200 LINE",
"1383 620 LINE",
"1185 620 LINE",
"1185 440 LINE SMOOTH",
"1185 270 OFFCURVE",
"1125 200 OFFCURVE",
"965 200 CURVE SMOOTH"
);
}
);
width = 1483;
}
);
leftKerningGroup = Z;
rightKerningGroup = Z;
unicode = 005A;
},
{
color = 8;
glyphname = a;
lastChange = "2021-02-28 14:49:18 +0000";
layers = (
{
anchors = (
{
name = bottom;
position = "{694, 0}";
},
{
name = ogonek;
position = "{1293, 0}";
},
{
name = top;
position = "{618, 1100}";
}
);
layerId = "CA54B7DC-FBBB-40FE-ACF3-AABDD76D6A7B";
paths = (
{
closed = 1;
nodes = (
"677 565 LINE SMOOTH",
"823 595 OFFCURVE",
"907 627 OFFCURVE",
"946 706 CURVE",
"956 706 LINE",
"946 840 LINE",
"946 684 OFFCURVE",
"832 642 OFFCURVE",
"668 608 CURVE SMOOTH",
"484 570 LINE SMOOTH",
"286 529 OFFCURVE",
"140 451 OFFCURVE",
"140 257 CURVE SMOOTH",
"140 85 OFFCURVE",
"287 -16 OFFCURVE",
"499 -16 CURVE SMOOTH",
"776 -16 OFFCURVE",
"987 143 OFFCURVE",
"985 546 CURVE",
"946 546 LINE",
"946 169 OFFCURVE",
"745 28 OFFCURVE",
"505 28 CURVE SMOOTH",
"322 28 OFFCURVE",
"188 110 OFFCURVE",
"188 257 CURVE SMOOTH",
"188 436 OFFCURVE",
"328 494 OFFCURVE",
"501 529 CURVE SMOOTH"
);
},
{
closed = 1;
nodes = (
"946 779 LINE",
"936 706 LINE",
"946 706 LINE",
"946 330 LINE",
"950 330 LINE",
"950 198 LINE SMOOTH",
"950 62 OFFCURVE",
"1023 -16 OFFCURVE",
"1141 -16 CURVE SMOOTH",
"1259 -16 OFFCURVE",
"1330 62 OFFCURVE",
"1330 198 CURVE SMOOTH",
"1330 580 LINE",
"1286 580 LINE",
"1286 198 LINE SMOOTH",
"1286 95 OFFCURVE",
"1238 24 OFFCURVE",
"1141 24 CURVE SMOOTH",
"1043 24 OFFCURVE",
"994 95 OFFCURVE",
"994 198 CURVE SMOOTH",
"994 830 LINE",
"946 848 LINE"
);
},
{
closed = 1;
nodes = (
"205 787 OFFCURVE",
"240 750 OFFCURVE",
"284 750 CURVE SMOOTH",
"319 750 OFFCURVE",
"340 771 OFFCURVE",
"340 805 CURVE SMOOTH",
"340 849 OFFCURVE",
"288 874 OFFCURVE",
"237 867 CURVE",
"254 854 LINE",
"247 1006 OFFCURVE",
"429 1072 OFFCURVE",
"623 1072 CURVE SMOOTH",
"846 1072 OFFCURVE",
"946 984 OFFCURVE",
"946 848 CURVE",
"994 830 LINE",
"994 1024 OFFCURVE",
"859 1116 OFFCURVE",
"625 1116 CURVE SMOOTH",
"406 1116 OFFCURVE",
"205 1030 OFFCURVE",
"205 852 CURVE SMOOTH"
);
}
);
width = 1402;
},
{
anchors = (
{
name = bottom;
position = "{646, 0}";
},
{
name = ogonek;
position = "{1171, 0}";
},
{
name = top;
position = "{566, 1080}";
}
);
layerId = "1E61A082-F045-49A7-AB52-DD1B03FD9B54";
paths = (
{
closed = 1;
nodes = (
"612 562 LINE SMOOTH",
"767 596 OFFCURVE",
"835 628 OFFCURVE",
"872 704 CURVE",
"882 704 LINE",
"872 810 LINE",
"872 666 OFFCURVE",
"761 634 OFFCURVE",
"604 599 CURVE SMOOTH",
"442 563 LINE SMOOTH",
"249 520 OFFCURVE",
"116 443 OFFCURVE",
"116 255 CURVE SMOOTH",
"116 86 OFFCURVE",
"250 -16 OFFCURVE",
"446 -16 CURVE SMOOTH",
"711 -16 OFFCURVE",
"901 140 OFFCURVE",
"899 536 CURVE",
"872 536 LINE",
"872 162 OFFCURVE",
"680 22 OFFCURVE",
"452 22 CURVE SMOOTH",
"284 22 OFFCURVE",
"164 107 OFFCURVE",
"164 255 CURVE SMOOTH",
"164 415 OFFCURVE",
"269 486 OFFCURVE",
"458 528 CURVE SMOOTH"
);
},
{
closed = 1;
nodes = (
"872 761 LINE",
"862 704 LINE",
"872 704 LINE",
"872 380 LINE",
"876 380 LINE",
"876 166 LINE SMOOTH",
"876 50 OFFCURVE",
"938 -16 OFFCURVE",
"1040 -16 CURVE SMOOTH",
"1142 -16 OFFCURVE",
"1204 50 OFFCURVE",
"1204 166 CURVE SMOOTH",
"1204 660 LINE",
"1160 660 LINE",
"1160 166 LINE SMOOTH",
"1160 82 OFFCURVE",
"1119 24 OFFCURVE",
"1040 24 CURVE SMOOTH",
"961 24 OFFCURVE",
"920 82 OFFCURVE",
"920 166 CURVE SMOOTH",
"920 800 LINE",
"872 818 LINE"
);
},
{
closed = 1;
nodes = (
"190 747 OFFCURVE",
"223 710 OFFCURVE",
"267 710 CURVE SMOOTH",
"301 710 OFFCURVE",
"321 731 OFFCURVE",
"321 765 CURVE SMOOTH",
"321 809 OFFCURVE",
"269 834 OFFCURVE",
"218 827 CURVE",
"235 811 LINE",
"229 993 OFFCURVE",
"393 1058 OFFCURVE",
"570 1058 CURVE SMOOTH",
"781 1058 OFFCURVE",
"872 967 OFFCURVE",
"872 818 CURVE",
"920 800 LINE",
"920 1005 OFFCURVE",
"794 1096 OFFCURVE",
"572 1096 CURVE SMOOTH",
"372 1096 OFFCURVE",
"190 1013 OFFCURVE",
"190 812 CURVE SMOOTH"
);
}
);
width = 1294;
},
{
associatedMasterId = "CA54B7DC-FBBB-40FE-ACF3-AABDD76D6A7B";
layerId = "0536A818-D7E4-477E-A2C8-13EA6A8F5ED4";
name = "Aug 25 20, 14:38";
paths = (
{
closed = 1;
nodes = (
"226 784 OFFCURVE",
"238 742 OFFCURVE",
"272 742 CURVE SMOOTH",
"293 742 OFFCURVE",
"303 756 OFFCURVE",
"303 777 CURVE SMOOTH",
"303 812 OFFCURVE",
"285 822 OFFCURVE",
"285 882 CURVE SMOOTH",
"285 996 OFFCURVE",
"419 1076 OFFCURVE",
"616 1076 CURVE SMOOTH",
"813 1076 OFFCURVE",
"910 996 OFFCURVE",
"910 848 CURVE",
"958 830 LINE",
"958 1026 OFFCURVE",
"829 1116 OFFCURVE",
"618 1116 CURVE SMOOTH",
"402 1116 OFFCURVE",
"226 1026 OFFCURVE",
"226 844 CURVE SMOOTH"
);
},
{
closed = 1;
nodes = (
"650 568 LINE SMOOTH",
"805 606 OFFCURVE",
"875 632 OFFCURVE",
"910 706 CURVE",
"910 840 LINE SMOOTH",
"910 683 OFFCURVE",
"800 647 OFFCURVE",
"642 608 CURVE SMOOTH",
"488 570 LINE SMOOTH",
"279 518 OFFCURVE",
"166 436 OFFCURVE",
"166 257 CURVE SMOOTH",
"166 85 OFFCURVE",
"298 -16 OFFCURVE",
"492 -16 CURVE SMOOTH",
"752 -16 OFFCURVE",
"950 143 OFFCURVE",
"948 546 CURVE",
"910 546 LINE",
"910 166 OFFCURVE",
"722 24 OFFCURVE",
"498 24 CURVE SMOOTH",
"332 24 OFFCURVE",
"214 107 OFFCURVE",
"214 257 CURVE SMOOTH",
"214 424 OFFCURVE",
"323 487 OFFCURVE",
"504 532 CURVE SMOOTH"
);
},
{
closed = 1;
nodes = (
"910 330 LINE",
"914 330 LINE",
"914 158 LINE SMOOTH",
"914 47 OFFCURVE",
"973 -16 OFFCURVE",
"1070 -16 CURVE SMOOTH",
"1167 -16 OFFCURVE",
"1226 47 OFFCURVE",
"1226 158 CURVE SMOOTH",
"1226 240 LINE",
"1182 240 LINE",
"1182 158 LINE SMOOTH",
"1182 79 OFFCURVE",
"1144 24 OFFCURVE",
"1070 24 CURVE SMOOTH",
"996 24 OFFCURVE",
"958 79 OFFCURVE",
"958 158 CURVE SMOOTH",
"958 830 LINE",
"910 848 LINE"
);
}
);
width = 1282;
},
{
associatedMasterId = "1E61A082-F045-49A7-AB52-DD1B03FD9B54";
layerId = "F53F3C62-3605-4696-AA8D-BFAEBE8FB8E8";
name = "Aug 25 20, 14:38";
paths = (
{
closed = 1;
nodes = (
"188 726 OFFCURVE",
"204 674 OFFCURVE",
"239 674 CURVE SMOOTH",
"258 674 OFFCURVE",
"269 686 OFFCURVE",
"269 706 CURVE SMOOTH",
"269 740 OFFCURVE",
"243 752 OFFCURVE",
"243 818 CURVE SMOOTH",
"243 972 OFFCURVE",
"405 1056 OFFCURVE",
"584 1056 CURVE SMOOTH",
"782 1056 OFFCURVE",
"868 970 OFFCURVE",
"868 838 CURVE",
"916 820 LINE",
"916 1007 OFFCURVE",
"796 1096 OFFCURVE",
"586 1096 CURVE SMOOTH",
"378 1096 OFFCURVE",
"188 999 OFFCURVE",
"188 790 CURVE SMOOTH"
);
},
{
closed = 1;
nodes = (
"608 557 LINE SMOOTH",
"763 593 OFFCURVE",
"833 622 OFFCURVE",
"868 696 CURVE",
"868 830 LINE SMOOTH",
"868 672 OFFCURVE",
"758 634 OFFCURVE",
"600 597 CURVE SMOOTH",
"446 561 LINE SMOOTH",
"256 517 OFFCURVE",
"124 441 OFFCURVE",
"124 253 CURVE SMOOTH",
"124 84 OFFCURVE",
"256 -16 OFFCURVE",
"450 -16 CURVE SMOOTH",
"710 -16 OFFCURVE",
"908 140 OFFCURVE",
"906 536 CURVE",
"868 536 LINE",
"868 163 OFFCURVE",
"680 24 OFFCURVE",
"456 24 CURVE SMOOTH",
"290 24 OFFCURVE",
"172 106 OFFCURVE",
"172 253 CURVE SMOOTH",
"172 413 OFFCURVE",
"276 480 OFFCURVE",
"462 523 CURVE SMOOTH"
);
},
{
closed = 1;
nodes = (
"868 320 LINE",
"872 320 LINE",
"872 176 LINE SMOOTH",
"872 54 OFFCURVE",
"938 -16 OFFCURVE",
"1046 -16 CURVE SMOOTH",
"1154 -16 OFFCURVE",
"1220 54 OFFCURVE",
"1220 176 CURVE SMOOTH",
"1220 570 LINE",
"1176 570 LINE",
"1176 176 LINE SMOOTH",
"1176 86 OFFCURVE",
"1132 24 OFFCURVE",
"1046 24 CURVE SMOOTH",
"960 24 OFFCURVE",
"916 86 OFFCURVE",
"916 176 CURVE SMOOTH",
"916 820 LINE",
"868 838 LINE"
);
}
);
width = 1268;
},
{
anchors = (
{
name = bottom;
position = "{779, 0}";
},
{
name = ogonek;
position = "{1434, 0}";
},
{
name = top;
position = "{679, 1160}";
}
);
layerId = "219068EA-2B9B-40DC-949E-B60449C01B8A";
paths = (
{
closed = 1;
nodes = (
"660 546 LINE SMOOTH",
"723 572 OFFCURVE",
"762 606 OFFCURVE",
"784 651 CURVE",
"794 651 LINE",
"788 853 LINE",
"788 759 OFFCURVE",
"728 724 OFFCURVE",
"615 693 CURVE SMOOTH",
"421 640 LINE SMOOTH",
"214 583 OFFCURVE",
"76 495 OFFCURVE",
"76 290 CURVE SMOOTH",
"76 96 OFFCURVE",
"234 -26 OFFCURVE",
"460 -26 CURVE SMOOTH",
"675 -26 OFFCURVE",
"858 107 OFFCURVE",
"858 456 CURVE",
"784 463 LINE",
"784 309 OFFCURVE",
"696 258 OFFCURVE",
"614 258 CURVE SMOOTH",
"542 258 OFFCURVE",
"486 299 OFFCURVE",
"486 376 CURVE SMOOTH",
"486 453 OFFCURVE",
"531 492 OFFCURVE",
"624 531 CURVE SMOOTH"
);
},
{
closed = 1;
nodes = (
"788 752 LINE",
"774 651 LINE",
"784 651 LINE",
"784 378 LINE",
"829 378 LINE",
"829 344 LINE SMOOTH",
"829 108 OFFCURVE",
"956 -26 OFFCURVE",
"1204 -26 CURVE SMOOTH",
"1450 -26 OFFCURVE",
"1570 117 OFFCURVE",
"1570 347 CURVE SMOOTH",
"1570 618 LINE",
"1320 618 LINE",
"1320 328 LINE SMOOTH",
"1320 275 OFFCURVE",
"1292 238 OFFCURVE",
"1239 238 CURVE SMOOTH",
"1189 238 OFFCURVE",
"1160 275 OFFCURVE",
"1160 328 CURVE SMOOTH",
"1160 759 LINE",
"788 853 LINE"
);
},
{
closed = 1;
nodes = (
"148 786 OFFCURVE",
"258 726 OFFCURVE",
"379 726 CURVE SMOOTH",
"502 726 OFFCURVE",
"573 792 OFFCURVE",
"575 884 CURVE SMOOTH",
"577 981 OFFCURVE",
"498 1023 OFFCURVE",
"369 1030 CURVE",
"359 847 LINE",
"385 964 OFFCURVE",
"496 1006 OFFCURVE",
"610 1006 CURVE SMOOTH",
"712 1006 OFFCURVE",
"788 957 OFFCURVE",
"788 853 CURVE",
"1160 759 LINE",
"1163 1043 OFFCURVE",
"992 1186 OFFCURVE",
"679 1186 CURVE SMOOTH",
"407 1186 OFFCURVE",
"148 1091 OFFCURVE",
"148 914 CURVE SMOOTH"
);
}
);
width = 1594;
},
{
anchors = (
{
name = bottom;
position = "{719, 0}";
},
{
name = ogonek;
position = "{1302, 0}";
},
{
name = top;
position = "{639, 1140}";
}
);
layerId = "0C29AA02-E021-4BD1-A2C4-87F681D64C35";
paths = (
{
closed = 1;
nodes = (
"613 532 LINE SMOOTH",
"666 557 OFFCURVE",
"699 589 OFFCURVE",
"714 631 CURVE",
"724 631 LINE",
"718 832 LINE",
"718 743 OFFCURVE",
"666 700 OFFCURVE",
"565 671 CURVE SMOOTH",
"383 618 LINE SMOOTH",
"188 561 OFFCURVE",
"46 469 OFFCURVE",
"46 276 CURVE SMOOTH",
"46 98 OFFCURVE",
"181 -26 OFFCURVE",
"410 -26 CURVE SMOOTH",
"644 -26 OFFCURVE",
"777 111 OFFCURVE",
"779 410 CURVE",
"714 433 LINE",
"714 296 OFFCURVE",
"648 242 OFFCURVE",
"568 242 CURVE SMOOTH",
"500 242 OFFCURVE",
"450 288 OFFCURVE",
"450 365 CURVE SMOOTH",
"450 439 OFFCURVE",
"500 479 OFFCURVE",
"581 517 CURVE SMOOTH"
);
},
{
closed = 1;
nodes = (
"718 731 LINE",
"704 631 LINE",
"714 631 LINE",
"714 356 LINE",
"761 356 LINE",
"761 324 LINE SMOOTH",
"761 100 OFFCURVE",
"869 -26 OFFCURVE",
"1086 -26 CURVE SMOOTH",
"1319 -26 OFFCURVE",
"1420 109 OFFCURVE",
"1420 327 CURVE SMOOTH",
"1420 740 LINE",
"1222 740 LINE",
"1222 314 LINE SMOOTH",
"1222 267 OFFCURVE",
"1197 238 OFFCURVE",
"1153 238 CURVE SMOOTH",
"1115 238 OFFCURVE",
"1090 267 OFFCURVE",
"1090 314 CURVE SMOOTH",
"1090 759 LINE",
"718 831 LINE"
);
},
{
closed = 1;
nodes = (
"116 739 OFFCURVE",
"221 682 OFFCURVE",
"337 682 CURVE SMOOTH",
"466 682 OFFCURVE",
"543 751 OFFCURVE",
"543 846 CURVE SMOOTH",
"543 951 OFFCURVE",
"455 988 OFFCURVE",
"317 988 CURVE",
"317 865 LINE",
"344 946 OFFCURVE",
"435 1006 OFFCURVE",
"548 1006 CURVE SMOOTH",
"655 1006 OFFCURVE",
"718 952 OFFCURVE",
"718 831 CURVE",
"1090 759 LINE",
"1093 1030 OFFCURVE",
"922 1166 OFFCURVE",
"615 1166 CURVE SMOOTH",
"353 1166 OFFCURVE",
"116 1060 OFFCURVE",
"116 862 CURVE SMOOTH"
);
}
);
width = 1432;
}
);
leftKerningGroup = a;
rightKerningGroup = a;
unicode = 0061;
},
{
color = 8;
glyphname = b;
lastChange = "2021-02-28 14:49:19 +0000";
layers = (
{
anchors = (
{
name = bottom;
position = "{713, 0}";
},
{
name = top;
position = "{713, 1560}";
}
);
layerId = "CA54B7DC-FBBB-40FE-ACF3-AABDD76D6A7B";
paths = (
{
closed = 1;
nodes = (
"314 0 LINE",
"314 334 LINE",
"288 550 LINE",
"318 746 LINE",
"318 1560 LINE",
"76 1560 LINE",
"76 1516 LINE",
"270 1516 LINE",
"270 0 LINE"
);
},
{
closed = 1;
nodes = (
"467 1116 OFFCURVE",
"274 902 OFFCURVE",
"274 551 CURVE SMOOTH",
"274 549 LINE SMOOTH",
"274 198 OFFCURVE",
"467 -16 OFFCURVE",
"784 -16 CURVE SMOOTH",
"1081 -16 OFFCURVE",
"1294 198 OFFCURVE",
"1294 550 CURVE SMOOTH",
"1294 902 OFFCURVE",
"1081 1116 OFFCURVE",
"784 1116 CURVE SMOOTH"
);
},
{
closed = 1;
nodes = (
"1055 1072 OFFCURVE",
"1246 877 OFFCURVE",
"1246 550 CURVE SMOOTH",
"1246 223 OFFCURVE",
"1055 28 OFFCURVE",
"784 28 CURVE SMOOTH",
"509 28 OFFCURVE",
"314 223 OFFCURVE",
"314 550 CURVE SMOOTH",
"314 877 OFFCURVE",
"509 1072 OFFCURVE",
"784 1072 CURVE SMOOTH"
);
}
);
width = 1428;
},
{
anchors = (
{
name = bottom;
position = "{645, 0}";
},
{
name = top;
position = "{645, 1500}";
}
);
layerId = "1E61A082-F045-49A7-AB52-DD1B03FD9B54";
paths = (
{
closed = 1;
nodes = (
"265 0 LINE",
"265 324 LINE",
"249 540 LINE",
"269 736 LINE",
"269 1500 LINE",
"14 1500 LINE",
"14 1464 LINE",
"221 1464 LINE",
"221 0 LINE"
);
},
{
closed = 1;
nodes = (
"404 1096 OFFCURVE",
"239 887 OFFCURVE",
"239 541 CURVE SMOOTH",
"239 539 LINE SMOOTH",
"239 193 OFFCURVE",
"403 -16 OFFCURVE",
"697 -16 CURVE SMOOTH",
"971 -16 OFFCURVE",
"1169 194 OFFCURVE",
"1169 540 CURVE SMOOTH",
"1169 886 OFFCURVE",
"971 1096 OFFCURVE",
"697 1096 CURVE SMOOTH"
);
},
{
closed = 1;
nodes = (
"945 1058 OFFCURVE",
"1121 865 OFFCURVE",
"1121 540 CURVE SMOOTH",
"1121 215 OFFCURVE",
"945 22 OFFCURVE",
"697 22 CURVE SMOOTH",
"445 22 OFFCURVE",
"265 215 OFFCURVE",
"265 540 CURVE SMOOTH",
"265 865 OFFCURVE",
"445 1058 OFFCURVE",
"697 1058 CURVE SMOOTH"
);
}
);
width = 1279;
},
{
anchors = (
{
name = bottom;
position = "{777, 0}";
},
{
name = top;
position = "{777, 1580}";
}
);
layerId = "219068EA-2B9B-40DC-949E-B60449C01B8A";
paths = (
{
closed = 1;
nodes = (
"539 0 LINE",
"539 262 LINE",
"508 581 LINE",
"569 838 LINE",
"569 1580 LINE",
"34 1580 LINE",
"34 1373 LINE",
"169 1373 LINE",
"169 0 LINE"
);
},
{
closed = 1;
nodes = (
"614 1182 OFFCURVE",
"500 956 OFFCURVE",
"500 580 CURVE",
"472 580 LINE",
"472 214 OFFCURVE",
"614 -22 OFFCURVE",
"936 -22 CURVE SMOOTH",
"1250 -22 OFFCURVE",
"1475 194 OFFCURVE",
"1475 580 CURVE SMOOTH",
"1475 966 OFFCURVE",
"1250 1182 OFFCURVE",
"940 1182 CURVE SMOOTH"
);
},
{
closed = 1;
nodes = (
"945 930 OFFCURVE",
"1035 810 OFFCURVE",
"1035 580 CURVE SMOOTH",
"1035 350 OFFCURVE",
"945 230 OFFCURVE",
"793 230 CURVE SMOOTH",
"639 230 OFFCURVE",
"549 350 OFFCURVE",
"549 580 CURVE SMOOTH",
"549 810 OFFCURVE",
"639 930 OFFCURVE",
"793 930 CURVE SMOOTH"
);
}
);
width = 1547;
},
{
anchors = (
{
name = bottom;
position = "{692, 0}";
},
{
name = top;
position = "{692, 1500}";
}
);
layerId = "0C29AA02-E021-4BD1-A2C4-87F681D64C35";
paths = (
{
closed = 1;
nodes = (
"494 0 LINE",
"494 262 LINE",
"463 581 LINE",
"524 838 LINE",
"524 1500 LINE",
"-20 1500 LINE",
"-20 1310 LINE",
"124 1310 LINE",
"124 0 LINE"
);
},
{
closed = 1;
nodes = (
"542 1162 OFFCURVE",
"449 920 OFFCURVE",
"449 570 CURVE",
"427 570 LINE",
"425 230 OFFCURVE",
"542 -22 OFFCURVE",
"863 -22 CURVE SMOOTH",
"1156 -22 OFFCURVE",
"1358 180 OFFCURVE",
"1358 570 CURVE SMOOTH",
"1358 960 OFFCURVE",
"1156 1162 OFFCURVE",
"867 1162 CURVE SMOOTH"
);
},
{
closed = 1;
nodes = (
"844 942 OFFCURVE",
"918 814 OFFCURVE",
"918 570 CURVE SMOOTH",
"918 326 OFFCURVE",
"844 198 OFFCURVE",
"712 198 CURVE SMOOTH",
"578 198 OFFCURVE",
"504 326 OFFCURVE",
"504 570 CURVE SMOOTH",
"504 814 OFFCURVE",
"578 942 OFFCURVE",
"712 942 CURVE SMOOTH"
);
}
);
width = 1410;
}
);
leftKerningGroup = b;
rightKerningGroup = o;
unicode = 0062;
},
{
color = 8;
glyphname = c;
lastChange = "2021-02-28 14:49:19 +0000";
layers = (
{
anchors = (
{
name = bottom;
position = "{621, 0}";
},
{
name = top;
position = "{677, 1100}";
}
);
layerId = "CA54B7DC-FBBB-40FE-ACF3-AABDD76D6A7B";
paths = (
{
closed = 1;
nodes = (
"1080 361 LINE",
"1069 236 OFFCURVE",
"945 28 OFFCURVE",
"666 28 CURVE SMOOTH",
"379 28 OFFCURVE",
"184 224 OFFCURVE",
"184 550 CURVE SMOOTH",
"184 876 OFFCURVE",
"385 1072 OFFCURVE",
"678 1072 CURVE",
"678 1116 LINE",
"359 1116 OFFCURVE",
"134 910 OFFCURVE",
"134 550 CURVE SMOOTH",
"134 190 OFFCURVE",
"354 -16 OFFCURVE",
"666 -16 CURVE SMOOTH",
"977 -16 OFFCURVE",
"1112 212 OFFCURVE",
"1124 361 CURVE"
);
},
{
closed = 1;
nodes = (
"678 1072 LINE",
"948 1072 OFFCURVE",
"1062 918 OFFCURVE",
"1058 792 CURVE",
"1075 803 LINE",
"1029 809 OFFCURVE",
"982 790 OFFCURVE",
"982 743 CURVE SMOOTH",
"982 711 OFFCURVE",
"1003 691 OFFCURVE",
"1036 691 CURVE SMOOTH",
"1080 691 OFFCURVE",
"1106 730 OFFCURVE",
"1106 795 CURVE SMOOTH",
"1106 943 OFFCURVE",
"968 1116 OFFCURVE",
"678 1116 CURVE"
);
}
);
width = 1250;
},
{
anchors = (
{
name = bottom;
position = "{560, 0}";
},
{
name = top;
position = "{598, 1080}";
}
);
layerId = "1E61A082-F045-49A7-AB52-DD1B03FD9B54";
paths = (
{
closed = 1;
nodes = (
"991 409 LINE",
"977 228 OFFCURVE",
"860 24 OFFCURVE",
"590 24 CURVE SMOOTH",
"330 24 OFFCURVE",
"160 218 OFFCURVE",
"160 540 CURVE SMOOTH",
"160 863 OFFCURVE",
"338 1058 OFFCURVE",
"604 1058 CURVE",
"604 1096 LINE",
"312 1096 OFFCURVE",
"110 894 OFFCURVE",
"110 540 CURVE SMOOTH",
"110 186 OFFCURVE",
"305 -16 OFFCURVE",
"590 -16 CURVE SMOOTH",
"886 -16 OFFCURVE",
"1015 197 OFFCURVE",
"1031 409 CURVE"
);
},
{
closed = 1;
nodes = (
"604 1058 LINE",
"866 1058 OFFCURVE",
"974 908 OFFCURVE",
"970 768 CURVE",
"987 790 LINE",
"939 796 OFFCURVE",
"890 777 OFFCURVE",
"890 730 CURVE SMOOTH",
"890 698 OFFCURVE",
"911 678 OFFCURVE",
"944 678 CURVE SMOOTH",
"988 678 OFFCURVE",
"1014 707 OFFCURVE",
"1014 772 CURVE SMOOTH",
"1014 932 OFFCURVE",
"884 1096 OFFCURVE",
"604 1096 CURVE"
);
}
);
width = 1127;
},
{
anchors = (
{
name = bottom;
position = "{658, 0}";
},
{
name = top;
position = "{700, 1160}";
}
);
layerId = "219068EA-2B9B-40DC-949E-B60449C01B8A";
paths = (
{
closed = 1;
nodes = (
"1020 465 LINE",
"998 358 OFFCURVE",
"914 274 OFFCURVE",
"780 274 CURVE SMOOTH",
"582 274 OFFCURVE",
"471 426 OFFCURVE",
"471 639 CURVE SMOOTH",
"471 846 OFFCURVE",
"583 988 OFFCURVE",
"766 988 CURVE",
"713 1186 LINE",
"340 1186 OFFCURVE",
"72 971 OFFCURVE",
"72 581 CURVE SMOOTH",
"72 190 OFFCURVE",
"335 -26 OFFCURVE",
"703 -26 CURVE SMOOTH",
"1039 -26 OFFCURVE",
"1241 193 OFFCURVE",
"1248 465 CURVE"
);
},
{
closed = 1;
nodes = (
"766 988 LINE",
"881 988 OFFCURVE",
"939 949 OFFCURVE",
"1016 864 CURVE",
"1021 1000 LINE",
"884 1000 OFFCURVE",
"795 963 OFFCURVE",
"795 842 CURVE SMOOTH",
"795 750 OFFCURVE",
"877 679 OFFCURVE",
"1003 679 CURVE SMOOTH",
"1132 679 OFFCURVE",
"1230 752 OFFCURVE",
"1230 880 CURVE SMOOTH",
"1230 1058 OFFCURVE",
"1022 1186 OFFCURVE",
"713 1186 CURVE"
);
}
);
width = 1316;
},
{
anchors = (
{
name = bottom;
position = "{614, 0}";
},
{
name = top;
position = "{644, 1140}";
}
);
layerId = "0C29AA02-E021-4BD1-A2C4-87F681D64C35";
paths = (
{
closed = 1;
nodes = (
"994 489 LINE",
"975 369 OFFCURVE",
"889 268 OFFCURVE",
"736 268 CURVE SMOOTH",
"550 268 OFFCURVE",
"445 419 OFFCURVE",
"445 629 CURVE SMOOTH",
"445 838 OFFCURVE",
"540 1001 OFFCURVE",
"730 1001 CURVE",
"661 1166 LINE",
"306 1166 OFFCURVE",
"52 955 OFFCURVE",
"52 571 CURVE SMOOTH",
"52 186 OFFCURVE",
"298 -26 OFFCURVE",
"643 -26 CURVE SMOOTH",
"983 -26 OFFCURVE",
"1163 185 OFFCURVE",
"1170 489 CURVE"
);
},
{
closed = 1;
nodes = (
"730 1001 LINE",
"848 1001 OFFCURVE",
"925 943 OFFCURVE",
"970 866 CURVE",
"941 958 LINE",
"810 958 OFFCURVE",
"725 898 OFFCURVE",
"725 792 CURVE SMOOTH",
"725 692 OFFCURVE",
"809 619 OFFCURVE",
"935 619 CURVE SMOOTH",
"1072 619 OFFCURVE",
"1160 700 OFFCURVE",
"1160 824 CURVE SMOOTH",
"1160 1008 OFFCURVE",
"950 1166 OFFCURVE",
"661 1166 CURVE"
);
}
);
width = 1220;
}
);
leftKerningGroup = o;
rightKerningGroup = c;
unicode = 0063;
},
{
color = 8;
glyphname = d;
lastChange = "2021-02-28 14:49:19 +0000";
layers = (
{
anchors = (
{
name = bottom;
position = "{720, 0}";
},
{
name = center;
position = "{720, 550}";
},
{
name = top;
position = "{720, 1560}";
},
{
name = topright;
position = "{1158, 1560}";
}
);
layerId = "CA54B7DC-FBBB-40FE-ACF3-AABDD76D6A7B";
paths = (
{
closed = 1;
nodes = (
"1158 1560 LINE",
"916 1560 LINE",
"916 1516 LINE",
"1110 1516 LINE",
"1110 746 LINE",
"1140 550 LINE",
"1114 334 LINE",
"1114 0 LINE",
"1352 0 LINE",
"1352 44 LINE",
"1158 44 LINE"
);
},
{
closed = 1;
nodes = (
"347 1116 OFFCURVE",
"134 902 OFFCURVE",
"134 550 CURVE SMOOTH",
"134 198 OFFCURVE",
"347 -16 OFFCURVE",
"644 -16 CURVE SMOOTH",
"961 -16 OFFCURVE",
"1154 198 OFFCURVE",
"1154 549 CURVE SMOOTH",
"1154 551 LINE SMOOTH",
"1154 902 OFFCURVE",
"961 1116 OFFCURVE",
"644 1116 CURVE SMOOTH"
);
},
{
closed = 1;
nodes = (
"919 1072 OFFCURVE",
"1114 877 OFFCURVE",
"1114 550 CURVE SMOOTH",
"1114 223 OFFCURVE",
"919 28 OFFCURVE",
"644 28 CURVE SMOOTH",
"373 28 OFFCURVE",
"182 223 OFFCURVE",
"182 550 CURVE SMOOTH",
"182 877 OFFCURVE",
"373 1072 OFFCURVE",
"644 1072 CURVE SMOOTH"
);
}
);
width = 1432;
},
{
anchors = (
{
name = bottom;
position = "{644, 0}";
},
{
name = center;
position = "{644, 540}";
},
{
name = top;
position = "{644, 1500}";
},
{
name = topright;
position = "{1058, 1500}";
}
);
layerId = "1E61A082-F045-49A7-AB52-DD1B03FD9B54";
paths = (
{
closed = 1;
nodes = (
"1058 1500 LINE",
"803 1500 LINE",
"803 1464 LINE",
"1010 1464 LINE",
"1010 736 LINE",
"1026 540 LINE",
"1014 324 LINE",
"1014 0 LINE",
"1265 0 LINE",
"1265 36 LINE",
"1058 36 LINE"
);
},
{
closed = 1;
nodes = (
"308 1096 OFFCURVE",
"110 886 OFFCURVE",
"110 540 CURVE SMOOTH",
"110 194 OFFCURVE",
"308 -16 OFFCURVE",
"582 -16 CURVE SMOOTH",
"876 -16 OFFCURVE",
"1040 193 OFFCURVE",
"1040 539 CURVE SMOOTH",
"1040 541 LINE SMOOTH",
"1040 887 OFFCURVE",
"875 1096 OFFCURVE",
"582 1096 CURVE SMOOTH"
);
},
{
closed = 1;
nodes = (
"834 1058 OFFCURVE",
"1014 865 OFFCURVE",
"1014 540 CURVE SMOOTH",
"1014 215 OFFCURVE",
"834 22 OFFCURVE",
"582 22 CURVE SMOOTH",
"334 22 OFFCURVE",
"158 215 OFFCURVE",
"158 540 CURVE SMOOTH",
"158 865 OFFCURVE",
"334 1058 OFFCURVE",
"582 1058 CURVE SMOOTH"
);
}
);
width = 1291;
},
{
anchors = (
{
name = bottom;
position = "{783, 0}";
},
{
name = center;
position = "{783, 580}";
},
{
name = top;
position = "{783, 1580}";
},
{
name = topright;
position = "{1378, 1580}";
}
);
layerId = "219068EA-2B9B-40DC-949E-B60449C01B8A";
paths = (
{
closed = 1;
nodes = (
"1378 1580 LINE",
"834 1580 LINE",
"834 1370 LINE",
"978 1370 LINE",
"978 838 LINE",
"1040 581 LINE",
"1008 280 LINE",
"1008 0 LINE",
"1519 0 LINE",
"1519 210 LINE",
"1378 210 LINE"
);
},
{
closed = 1;
nodes = (
"297 1182 OFFCURVE",
"72 966 OFFCURVE",
"72 580 CURVE SMOOTH",
"72 194 OFFCURVE",
"297 -22 OFFCURVE",
"611 -22 CURVE SMOOTH",
"933 -22 OFFCURVE",
"1075 214 OFFCURVE",
"1075 580 CURVE",
"1047 580 LINE",
"1047 956 OFFCURVE",
"933 1182 OFFCURVE",
"607 1182 CURVE SMOOTH"
);
},
{
closed = 1;
nodes = (
"908 930 OFFCURVE",
"998 810 OFFCURVE",
"998 580 CURVE SMOOTH",
"998 350 OFFCURVE",
"908 230 OFFCURVE",
"754 230 CURVE SMOOTH",
"602 230 OFFCURVE",
"512 350 OFFCURVE",
"512 580 CURVE SMOOTH",
"512 810 OFFCURVE",
"602 930 OFFCURVE",
"754 930 CURVE SMOOTH"
);
}
);
width = 1563;
},
{
anchors = (
{
name = bottom;
position = "{734, 0}";
},
{
name = center;
position = "{734, 570}";
},
{
name = top;
position = "{734, 1500}";
},
{
name = topright;
position = "{1286, 1500}";
}
);
layerId = "0C29AA02-E021-4BD1-A2C4-87F681D64C35";
paths = (
{
closed = 1;
nodes = (
"1286 1500 LINE",
"732 1500 LINE",
"732 1308 LINE",
"886 1308 LINE",
"886 838 LINE",
"948 581 LINE",
"916 280 LINE",
"916 0 LINE",
"1436 0 LINE",
"1436 192 LINE",
"1286 192 LINE"
);
},
{
closed = 1;
nodes = (
"254 1162 OFFCURVE",
"52 960 OFFCURVE",
"52 570 CURVE SMOOTH",
"52 180 OFFCURVE",
"254 -22 OFFCURVE",
"547 -22 CURVE SMOOTH",
"868 -22 OFFCURVE",
"985 230 OFFCURVE",
"983 570 CURVE",
"961 570 LINE",
"961 920 OFFCURVE",
"868 1162 OFFCURVE",
"543 1162 CURVE SMOOTH"
);
},
{
closed = 1;
nodes = (
"832 942 OFFCURVE",
"906 814 OFFCURVE",
"906 570 CURVE SMOOTH",
"906 326 OFFCURVE",
"832 198 OFFCURVE",
"698 198 CURVE SMOOTH",
"566 198 OFFCURVE",
"492 326 OFFCURVE",
"492 570 CURVE SMOOTH",
"492 814 OFFCURVE",
"566 942 OFFCURVE",
"698 942 CURVE SMOOTH"
);
}
);
width = 1464;
}
);
leftKerningGroup = o;
rightKerningGroup = l;
unicode = 0064;
},
{
color = 8;
glyphname = e;
lastChange = "2021-02-28 14:49:19 +0000";
layers = (
{
anchors = (
{
name = bottom;
position = "{631, 0}";
},
{
name = ogonek;
position = "{896, 0}";
},
{
name = top;
position = "{631, 1100}";
}
);
layerId = "CA54B7DC-FBBB-40FE-ACF3-AABDD76D6A7B";
paths = (
{
closed = 1;
nodes = (
"1065 324 LINE",
"1037 208 OFFCURVE",
"929 28 OFFCURVE",
"638 28 CURVE SMOOTH",
"359 28 OFFCURVE",
"184 223 OFFCURVE",
"184 550 CURVE SMOOTH",
"184 876 OFFCURVE",
"364 1072 OFFCURVE",
"648 1072 CURVE",
"648 1116 LINE",
"340 1116 OFFCURVE",
"134 910 OFFCURVE",
"134 550 CURVE SMOOTH",
"134 190 OFFCURVE",
"335 -16 OFFCURVE",
"638 -16 CURVE SMOOTH",
"956 -16 OFFCURVE",
"1083 185 OFFCURVE",
"1110 324 CURVE"
);
},
{
closed = 1;
nodes = (
"1128 612 LINE",
"1128 908 OFFCURVE",
"958 1116 OFFCURVE",
"648 1116 CURVE",
"648 1072 LINE",
"936 1072 OFFCURVE",
"1072 878 OFFCURVE",
"1084 636 CURVE"
);
},
{
closed = 1;
nodes = (
"168 592 LINE",
"1128 592 LINE",
"1128 612 LINE",
"1084 636 LINE",
"168 636 LINE"
);
}
);
width = 1262;
},
{
anchors = (
{
name = bottom;
position = "{579, 0}";
},
{
name = ogonek;
position = "{831, 0}";
},
{
name = top;
position = "{579, 1080}";
}
);
layerId = "1E61A082-F045-49A7-AB52-DD1B03FD9B54";
paths = (
{
closed = 1;
nodes = (
"999 380 LINE",
"985 235 OFFCURVE",
"874 24 OFFCURVE",
"592 24 CURVE SMOOTH",
"333 24 OFFCURVE",
"160 217 OFFCURVE",
"160 540 CURVE SMOOTH",
"160 863 OFFCURVE",
"332 1058 OFFCURVE",
"594 1058 CURVE",
"594 1096 LINE",
"308 1096 OFFCURVE",
"110 894 OFFCURVE",
"110 540 CURVE SMOOTH",
"110 186 OFFCURVE",
"309 -16 OFFCURVE",
"592 -16 CURVE SMOOTH",
"897 -16 OFFCURVE",
"1024 214 OFFCURVE",
"1039 380 CURVE"
);
},
{
closed = 1;
nodes = (
"1048 600 LINE",
"1048 892 OFFCURVE",
"889 1096 OFFCURVE",
"594 1096 CURVE",
"594 1058 LINE",
"865 1058 OFFCURVE",
"994 864 OFFCURVE",
"1004 624 CURVE"
);
},
{
closed = 1;
nodes = (
"144 586 LINE",
"1048 586 LINE",
"1048 600 LINE",
"1004 624 LINE",
"144 624 LINE"
);
}
);
width = 1158;
},
{
anchors = (
{
name = bottom;
position = "{670, 0}";
},
{
name = ogonek;
position = "{995, 0}";
},
{
name = top;
position = "{670, 1160}";
}
);
layerId = "219068EA-2B9B-40DC-949E-B60449C01B8A";
paths = (
{
closed = 1;
nodes = (
"1012 440 LINE",
"978 341 OFFCURVE",
"903 267 OFFCURVE",
"755 267 CURVE SMOOTH",
"576 267 OFFCURVE",
"464 399 OFFCURVE",
"464 610 CURVE SMOOTH",
"464 873 OFFCURVE",
"544 970 OFFCURVE",
"685 970 CURVE",
"673 1186 LINE",
"324 1186 OFFCURVE",
"72 970 OFFCURVE",
"72 580 CURVE SMOOTH",
"72 189 OFFCURVE",
"327 -26 OFFCURVE",
"689 -26 CURVE SMOOTH",
"1059 -26 OFFCURVE",
"1241 207 OFFCURVE",
"1264 440 CURVE"
);
},
{
closed = 1;
nodes = (
"1268 657 LINE",
"1268 972 OFFCURVE",
"1059 1186 OFFCURVE",
"673 1186 CURVE",
"685 970 LINE",
"808 970 OFFCURVE",
"870 873 OFFCURVE",
"874 758 CURVE"
);
},
{
closed = 1;
nodes = (
"252 560 LINE",
"1268 560 LINE",
"1268 657 LINE",
"874 758 LINE",
"252 758 LINE"
);
}
);
width = 1340;
},
{
anchors = (
{
name = bottom;
position = "{632, 0}";
},
{
name = ogonek;
position = "{937, 0}";
},
{
name = top;
position = "{632, 1140}";
}
);
layerId = "0C29AA02-E021-4BD1-A2C4-87F681D64C35";
paths = (
{
closed = 1;
nodes = (
"1022 490 LINE",
"1003 362 OFFCURVE",
"919 249 OFFCURVE",
"751 249 CURVE SMOOTH",
"556 249 OFFCURVE",
"450 387 OFFCURVE",
"450 608 CURVE SMOOTH",
"450 903 OFFCURVE",
"529 992 OFFCURVE",
"647 992 CURVE",
"649 1166 LINE",
"303 1166 OFFCURVE",
"52 944 OFFCURVE",
"52 570 CURVE SMOOTH",
"52 195 OFFCURVE",
"297 -26 OFFCURVE",
"645 -26 CURVE SMOOTH",
"1009 -26 OFFCURVE",
"1196 210 OFFCURVE",
"1198 490 CURVE"
);
},
{
closed = 1;
nodes = (
"1202 631 LINE",
"1202 941 OFFCURVE",
"1008 1166 OFFCURVE",
"649 1166 CURVE",
"647 992 LINE",
"743 992 OFFCURVE",
"796 899 OFFCURVE",
"798 748 CURVE"
);
},
{
closed = 1;
nodes = (
"250 570 LINE",
"1202 570 LINE",
"1202 631 LINE",
"798 748 LINE",
"250 748 LINE"
);
}
);
width = 1264;
}
);
leftKerningGroup = o;
rightKerningGroup = o;
unicode = 0065;
},
{
color = 8;
glyphname = f;
lastChange = "2021-02-28 14:49:18 +0000";
layers = (
{
anchors = (
{
name = bottom;
position = "{471, 0}";
},
{
name = top;
position = "{471, 1560}";
}
);
layerId = "CA54B7DC-FBBB-40FE-ACF3-AABDD76D6A7B";
paths = (
{
closed = 1;
nodes = (
"92 1056 LINE",
"820 1056 LINE",
"820 1100 LINE",
"92 1100 LINE"
);
},
{
closed = 1;
nodes = (
"392 44 LINE",
"176 44 LINE",
"176 0 LINE",
"699 0 LINE",
"699 44 LINE",
"440 44 LINE",
"440 1166 LINE",
"392 1162 LINE"
);
},
{
closed = 1;
nodes = (
"742 1576 LINE",
"517 1576 OFFCURVE",
"392 1435 OFFCURVE",
"392 1162 CURVE",
"440 1166 LINE",
"440 1412 OFFCURVE",
"547 1532 OFFCURVE",
"742 1532 CURVE"
);
},
{
closed = 1;
nodes = (
"742 1532 LINE",
"866 1532 OFFCURVE",
"949 1476 OFFCURVE",
"944 1374 CURVE",
"963 1389 LINE",
"906 1395 OFFCURVE",
"864 1374 OFFCURVE",
"864 1328 CURVE SMOOTH",
"864 1296 OFFCURVE",
"888 1275 OFFCURVE",
"920 1275 CURVE SMOOTH",
"964 1275 OFFCURVE",
"994 1312 OFFCURVE",
"994 1369 CURVE SMOOTH",
"994 1505 OFFCURVE",
"884 1576 OFFCURVE",
"742 1576 CURVE"
);
}
);
width = 942;
},
{
anchors = (
{
name = bottom;
position = "{441, 0}";
},
{
name = top;
position = "{441, 1500}";
}
);
layerId = "1E61A082-F045-49A7-AB52-DD1B03FD9B54";
paths = (
{
closed = 1;
nodes = (
"56 1042 LINE",
"804 1042 LINE",
"804 1080 LINE",
"56 1080 LINE"
);
},
{
closed = 1;
nodes = (
"356 36 LINE",
"126 36 LINE",
"126 0 LINE",
"772 0 LINE",
"772 36 LINE",
"404 36 LINE",
"404 1116 LINE",
"356 1112 LINE"
);
},
{
closed = 1;
nodes = (
"714 1516 LINE",
"484 1516 OFFCURVE",
"356 1378 OFFCURVE",
"356 1112 CURVE",
"404 1116 LINE",
"404 1359 OFFCURVE",
"514 1478 OFFCURVE",
"714 1478 CURVE"
);
},
{
closed = 1;
nodes = (
"714 1478 LINE",
"843 1478 OFFCURVE",
"929 1413 OFFCURVE",
"925 1293 CURVE",
"944 1309 LINE",
"884 1315 OFFCURVE",
"840 1294 OFFCURVE",
"840 1248 CURVE SMOOTH",
"840 1216 OFFCURVE",
"864 1195 OFFCURVE",
"896 1195 CURVE SMOOTH",
"940 1195 OFFCURVE",
"970 1232 OFFCURVE",
"970 1289 CURVE SMOOTH",
"970 1443 OFFCURVE",
"858 1516 OFFCURVE",
"714 1516 CURVE"
);
}
);
width = 908;
},
{
anchors = (
{
name = bottom;
position = "{494, 0}";
},
{
name = top;
position = "{494, 1580}";
}
);
layerId = "219068EA-2B9B-40DC-949E-B60449C01B8A";
paths = (
{
closed = 1;
nodes = (
"20 930 LINE",
"994 930 LINE",
"994 1160 LINE",
"20 1160 LINE"
);
},
{
closed = 1;
nodes = (
"248 210 LINE",
"98 210 LINE",
"98 0 LINE",
"873 0 LINE",
"873 210 LINE",
"648 210 LINE",
"648 1295 LINE",
"248 1236 LINE"
);
},
{
closed = 1;
nodes = (
"794 1642 LINE",
"503 1642 OFFCURVE",
"248 1516 OFFCURVE",
"248 1236 CURVE",
"648 1295 LINE",
"648 1407 OFFCURVE",
"708 1452 OFFCURVE",
"812 1452 CURVE"
);
},
{
closed = 1;
nodes = (
"812 1452 LINE",
"878 1452 OFFCURVE",
"920 1419 OFFCURVE",
"943 1379 CURVE",
"972 1480 LINE",
"866 1480 OFFCURVE",
"799 1461 OFFCURVE",
"799 1367 CURVE SMOOTH",
"799 1275 OFFCURVE",
"889 1230 OFFCURVE",
"994 1230 CURVE SMOOTH",
"1125 1230 OFFCURVE",
"1196 1309 OFFCURVE",
"1196 1400 CURVE SMOOTH",
"1196 1546 OFFCURVE",
"1034 1642 OFFCURVE",
"794 1642 CURVE"
);
}
);
width = 1044;
},
{
anchors = (
{
name = bottom;
position = "{442, 0}";
},
{
name = top;
position = "{442, 1500}";
}
);
layerId = "0C29AA02-E021-4BD1-A2C4-87F681D64C35";
paths = (
{
closed = 1;
nodes = (
"-10 932 LINE",
"934 932 LINE",
"934 1140 LINE",
"-10 1140 LINE"
);
},
{
closed = 1;
nodes = (
"218 192 LINE",
"58 192 LINE",
"58 0 LINE",
"890 0 LINE",
"890 192 LINE",
"618 192 LINE",
"618 1295 LINE",
"218 1236 LINE"
);
},
{
closed = 1;
nodes = (
"755 1642 LINE",
"469 1642 OFFCURVE",
"218 1516 OFFCURVE",
"218 1236 CURVE",
"618 1295 LINE",
"618 1436 OFFCURVE",
"683 1492 OFFCURVE",
"793 1492 CURVE"
);
},
{
closed = 1;
nodes = (
"793 1492 LINE",
"869 1492 OFFCURVE",
"924 1454 OFFCURVE",
"954 1409 CURVE",
"973 1490 LINE",
"846 1490 OFFCURVE",
"750 1466 OFFCURVE",
"750 1350 CURVE SMOOTH",
"750 1256 OFFCURVE",
"840 1210 OFFCURVE",
"945 1210 CURVE SMOOTH",
"1089 1210 OFFCURVE",
"1167 1298 OFFCURVE",
"1167 1400 CURVE SMOOTH",
"1167 1546 OFFCURVE",
"997 1642 OFFCURVE",
"755 1642 CURVE"
);
}
);
width = 969;
}
);
leftKerningGroup = f;
rightKerningGroup = f;
unicode = 0066;
},
{
color = 8;
glyphname = g;
lastChange = "2021-02-28 14:49:18 +0000";
layers = (
{
anchors = (
{
name = bottom;
position = "{652, -440}";
},
{
name = top;
position = "{652, 1100}";
}
);
layerId = "CA54B7DC-FBBB-40FE-ACF3-AABDD76D6A7B";
paths = (
{
closed = 1;
nodes = (
"884 368 OFFCURVE",
"1052 514 OFFCURVE",
"1052 738 CURVE SMOOTH",
"1052 916 OFFCURVE",
"942 1022 OFFCURVE",
"836 1066 CURVE",
"658 1108 LINE",
"408 1108 OFFCURVE",
"240 962 OFFCURVE",
"240 738 CURVE SMOOTH",
"240 514 OFFCURVE",
"408 368 OFFCURVE",
"646 368 CURVE SMOOTH"
);
},
{
closed = 1;
nodes = (
"438 412 OFFCURVE",
"288 540 OFFCURVE",
"288 738 CURVE SMOOTH",
"288 936 OFFCURVE",
"438 1064 OFFCURVE",
"646 1064 CURVE SMOOTH",
"854 1064 OFFCURVE",
"1004 936 OFFCURVE",
"1004 738 CURVE SMOOTH",
"1004 540 OFFCURVE",
"854 412 OFFCURVE",
"646 412 CURVE SMOOTH"
);
},
{
closed = 1;
nodes = (
"836 1066 LINE",
"1206 1066 LINE",
"1206 1108 LINE",
"658 1108 LINE"
);
},
{
closed = 1;
nodes = (
"358 516 LINE",
"245 512 OFFCURVE",
"130 438 OFFCURVE",
"130 296 CURVE SMOOTH",
"130 165 OFFCURVE",
"232 76 OFFCURVE",
"386 76 CURVE SMOOTH",
"940 76 LINE SMOOTH",
"1082 76 OFFCURVE",
"1142 11 OFFCURVE",
"1142 -110 CURVE SMOOTH",
"1142 -232 OFFCURVE",
"1059 -356 OFFCURVE",
"826 -356 CURVE SMOOTH",
"538 -356 LINE SMOOTH",
"333 -356 OFFCURVE",
"244 -271 OFFCURVE",
"244 -134 CURVE SMOOTH",
"244 -13 OFFCURVE",
"351 55 OFFCURVE",
"412 80 CURVE",
"396 112 LINE",
"305 78 OFFCURVE",
"196 -2 OFFCURVE",
"196 -134 CURVE SMOOTH",
"196 -300 OFFCURVE",
"306 -400 OFFCURVE",
"538 -400 CURVE SMOOTH",
"826 -400 LINE SMOOTH",
"1089 -400 OFFCURVE",
"1190 -252 OFFCURVE",
"1190 -108 CURVE SMOOTH",
"1190 35 OFFCURVE",
"1110 120 OFFCURVE",
"942 120 CURVE SMOOTH",
"390 120 LINE SMOOTH",
"262 120 OFFCURVE",
"178 194 OFFCURVE",
"178 296 CURVE SMOOTH",
"178 410 OFFCURVE",
"256 467 OFFCURVE",
"362 478 CURVE"
);
}
);
width = 1304;
},
{
anchors = (
{
name = bottom;
position = "{622, -440}";
},
{
name = top;
position = "{622, 1080}";
}
);
layerId = "1E61A082-F045-49A7-AB52-DD1B03FD9B54";
paths = (
{
closed = 1;
nodes = (
"826 360 OFFCURVE",
"990 503 OFFCURVE",
"990 724 CURVE SMOOTH",
"990 902 OFFCURVE",
"886 1007 OFFCURVE",
"753 1052 CURVE",
"606 1088 LINE",
"362 1088 OFFCURVE",
"198 945 OFFCURVE",
"198 724 CURVE SMOOTH",
"198 503 OFFCURVE",
"362 360 OFFCURVE",
"594 360 CURVE SMOOTH"
);
},
{
closed = 1;
nodes = (
"392 398 OFFCURVE",
"246 526 OFFCURVE",
"246 724 CURVE SMOOTH",
"246 922 OFFCURVE",
"392 1050 OFFCURVE",
"594 1050 CURVE SMOOTH",
"796 1050 OFFCURVE",
"942 922 OFFCURVE",
"942 724 CURVE SMOOTH",
"942 526 OFFCURVE",
"796 398 OFFCURVE",
"594 398 CURVE SMOOTH"
);
},
{
closed = 1;
nodes = (
"753 1052 LINE",
"1168 1052 LINE",
"1168 1088 LINE",
"606 1088 LINE"
);
},
{
closed = 1;
nodes = (
"306 496 LINE",
"193 492 OFFCURVE",
"78 420 OFFCURVE",
"78 285 CURVE SMOOTH",
"78 161 OFFCURVE",
"176 80 OFFCURVE",
"324 80 CURVE SMOOTH",
"894 80 LINE SMOOTH",
"1036 80 OFFCURVE",
"1096 12 OFFCURVE",
"1096 -111 CURVE SMOOTH",
"1096 -234 OFFCURVE",
"1013 -362 OFFCURVE",
"780 -362 CURVE SMOOTH",
"486 -362 LINE SMOOTH",
"281 -362 OFFCURVE",
"192 -274 OFFCURVE",
"192 -135 CURVE SMOOTH",
"192 -13 OFFCURVE",
"299 55 OFFCURVE",
"360 80 CURVE",
"344 102 LINE",
"250 69 OFFCURVE",
"144 -1 OFFCURVE",
"144 -140 CURVE SMOOTH",
"144 -302 OFFCURVE",
"254 -400 OFFCURVE",
"486 -400 CURVE SMOOTH",
"780 -400 LINE SMOOTH",
"1043 -400 OFFCURVE",
"1144 -252 OFFCURVE",
"1144 -108 CURVE SMOOTH",
"1144 35 OFFCURVE",
"1064 120 OFFCURVE",
"896 120 CURVE SMOOTH",
"328 120 LINE SMOOTH",
"206 120 OFFCURVE",
"126 192 OFFCURVE",
"126 289 CURVE SMOOTH",
"126 400 OFFCURVE",
"204 456 OFFCURVE",
"310 466 CURVE"
);
}
);
width = 1248;
},
{
anchors = (
{
name = bottom;
position = "{708, -440}";
},
{
name = top;
position = "{708, 1160}";
}
);
layerId = "219068EA-2B9B-40DC-949E-B60449C01B8A";
paths = (
{
closed = 1;
nodes = (
"1026 402 OFFCURVE",
"1214 542 OFFCURVE",
"1214 750 CURVE SMOOTH",
"1214 862 OFFCURVE",
"1150 927 OFFCURVE",
"1092 956 CURVE SMOOTH",
"696 1170 LINE",
"360 1170 OFFCURVE",
"148 1030 OFFCURVE",
"148 786 CURVE SMOOTH",
"148 542 OFFCURVE",
"360 402 OFFCURVE",
"696 402 CURVE SMOOTH"
);
},
{
closed = 1;
nodes = (
"602 598 OFFCURVE",
"548 674 OFFCURVE",
"548 786 CURVE SMOOTH",
"548 894 OFFCURVE",
"602 974 OFFCURVE",
"696 974 CURVE SMOOTH",
"790 974 OFFCURVE",
"844 894 OFFCURVE",
"844 786 CURVE SMOOTH",
"844 674 OFFCURVE",
"790 598 OFFCURVE",
"696 598 CURVE SMOOTH"
);
},
{
closed = 1;
nodes = (
"1092 956 LINE",
"1330 956 LINE",
"1330 1170 LINE",
"696 1170 LINE"
);
},
{
closed = 1;
nodes = (
"423 524 LINE",
"199 526 OFFCURVE",
"50 419 OFFCURVE",
"50 238 CURVE SMOOTH",
"50 65 OFFCURVE",
"199 -40 OFFCURVE",
"423 -40 CURVE SMOOTH",
"869 -40 LINE SMOOTH",
"932 -40 OFFCURVE",
"973 -64 OFFCURVE",
"973 -119 CURVE SMOOTH",
"973 -181 OFFCURVE",
"927 -222 OFFCURVE",
"837 -222 CURVE SMOOTH",
"581 -222 LINE SMOOTH",
"486 -222 OFFCURVE",
"433 -189 OFFCURVE",
"433 -116 CURVE SMOOTH",
"433 -81 OFFCURVE",
"451 -52 OFFCURVE",
"480 -27 CURVE",
"444 3 LINE",
"272 3 OFFCURVE",
"136 -60 OFFCURVE",
"136 -204 CURVE SMOOTH",
"136 -356 OFFCURVE",
"279 -420 OFFCURVE",
"506 -420 CURVE SMOOTH",
"835 -420 LINE SMOOTH",
"1178 -420 OFFCURVE",
"1354 -263 OFFCURVE",
"1354 0 CURVE SMOOTH",
"1354 188 OFFCURVE",
"1216 310 OFFCURVE",
"965 310 CURVE SMOOTH",
"435 310 LINE SMOOTH",
"376 310 OFFCURVE",
"341 331 OFFCURVE",
"341 378 CURVE SMOOTH",
"341 423 OFFCURVE",
"378 450 OFFCURVE",
"441 450 CURVE"
);
}
);
width = 1412;
},
{
anchors = (
{
name = bottom;
position = "{664, -440}";
},
{
name = top;
position = "{664, 1140}";
}
);
layerId = "0C29AA02-E021-4BD1-A2C4-87F681D64C35";
paths = (
{
closed = 1;
nodes = (
"987 390 OFFCURVE",
"1174 528 OFFCURVE",
"1174 734 CURVE SMOOTH",
"1174 854 OFFCURVE",
"1097 924 OFFCURVE",
"1026 954 CURVE",
"658 1150 LINE",
"323 1150 OFFCURVE",
"112 1012 OFFCURVE",
"112 770 CURVE SMOOTH",
"112 528 OFFCURVE",
"323 390 OFFCURVE",
"658 390 CURVE SMOOTH"
);
},
{
closed = 1;
nodes = (
"570 556 OFFCURVE",
"520 643 OFFCURVE",
"520 770 CURVE SMOOTH",
"520 893 OFFCURVE",
"570 984 OFFCURVE",
"658 984 CURVE SMOOTH",
"746 984 OFFCURVE",
"796 893 OFFCURVE",
"796 770 CURVE SMOOTH",
"796 643 OFFCURVE",
"746 556 OFFCURVE",
"658 556 CURVE SMOOTH"
);
},
{
closed = 1;
nodes = (
"1026 954 LINE",
"1302 954 LINE",
"1302 1150 LINE",
"658 1150 LINE"
);
},
{
closed = 1;
nodes = (
"395 524 LINE",
"171 526 OFFCURVE",
"22 416 OFFCURVE",
"22 234 CURVE SMOOTH",
"22 65 OFFCURVE",
"171 -48 OFFCURVE",
"395 -48 CURVE SMOOTH",
"839 -48 LINE SMOOTH",
"914 -48 OFFCURVE",
"963 -73 OFFCURVE",
"963 -133 CURVE SMOOTH",
"963 -199 OFFCURVE",
"910 -242 OFFCURVE",
"807 -242 CURVE SMOOTH",
"553 -242 LINE SMOOTH",
"451 -242 OFFCURVE",
"395 -206 OFFCURVE",
"395 -126 CURVE SMOOTH",
"395 -87 OFFCURVE",
"417 -55 OFFCURVE",
"452 -27 CURVE",
"436 -1 LINE",
"253 -1 OFFCURVE",
"108 -63 OFFCURVE",
"108 -206 CURVE SMOOTH",
"108 -357 OFFCURVE",
"251 -420 OFFCURVE",
"478 -420 CURVE SMOOTH",
"805 -420 LINE SMOOTH",
"1141 -420 OFFCURVE",
"1314 -267 OFFCURVE",
"1314 -14 CURVE SMOOTH",
"1314 164 OFFCURVE",
"1180 282 OFFCURVE",
"935 282 CURVE SMOOTH",
"413 282 LINE SMOOTH",
"344 282 OFFCURVE",
"303 308 OFFCURVE",
"303 366 CURVE SMOOTH",
"303 424 OFFCURVE",
"344 450 OFFCURVE",
"413 450 CURVE"
);
}
);
width = 1332;
}
);
leftKerningGroup = g;
rightKerningGroup = g;
unicode = 0067;
},
{
color = 8;
glyphname = h;
lastChange = "2021-02-28 14:49:19 +0000";
layers = (
{
anchors = (
{
name = bottom;
position = "{691, 0}";
},
{
name = center;
position = "{691, 780}";
},
{
name = top;
position = "{296, 1560}";
}
);
layerId = "CA54B7DC-FBBB-40FE-ACF3-AABDD76D6A7B";
paths = (
{
closed = 1;
nodes = (
"292 44 LINE",
"76 44 LINE",
"76 0 LINE",
"556 0 LINE",
"556 44 LINE",
"340 44 LINE",
"340 1560 LINE",
"98 1560 LINE",
"98 1516 LINE",
"292 1516 LINE"
);
},
{
closed = 1;
nodes = (
"340 552 LINE",
"340 911 OFFCURVE",
"546 1072 OFFCURVE",
"766 1072 CURVE SMOOTH",
"958 1072 OFFCURVE",
"1078 981 OFFCURVE",
"1078 764 CURVE SMOOTH",
"1078 44 LINE",
"862 44 LINE",
"862 0 LINE",
"1312 0 LINE",
"1312 44 LINE",
"1126 44 LINE",
"1126 764 LINE SMOOTH",
"1126 1018 OFFCURVE",
"978 1116 OFFCURVE",
"768 1116 CURVE SMOOTH",
"528 1116 OFFCURVE",
"304 954 OFFCURVE",
"304 552 CURVE"
);
}
);
width = 1386;
},
{
anchors = (
{
name = bottom;
position = "{624, 0}";
},
{
name = center;
position = "{624, 750}";
},
{
name = top;
position = "{258, 1500}";
}
);
layerId = "1E61A082-F045-49A7-AB52-DD1B03FD9B54";
paths = (
{
closed = 1;
nodes = (
"254 36 LINE",
"24 36 LINE",
"24 0 LINE",
"583 0 LINE",
"583 36 LINE",
"302 36 LINE",
"302 1500 LINE",
"47 1500 LINE",
"47 1464 LINE",
"254 1464 LINE"
);
},
{
closed = 1;
nodes = (
"302 582 LINE",
"302 908 OFFCURVE",
"493 1058 OFFCURVE",
"698 1058 CURVE SMOOTH",
"871 1058 OFFCURVE",
"976 967 OFFCURVE",
"976 774 CURVE SMOOTH",
"976 36 LINE",
"695 36 LINE",
"695 0 LINE",
"1222 0 LINE",
"1222 36 LINE",
"1024 36 LINE",
"1024 774 LINE SMOOTH",
"1024 998 OFFCURVE",
"890 1096 OFFCURVE",
"700 1096 CURVE SMOOTH",
"473 1096 OFFCURVE",
"277 952 OFFCURVE",
"277 582 CURVE"
);
}
);
width = 1246;
},
{
anchors = (
{
name = bottom;
position = "{730, 0}";
},
{
name = center;
position = "{730, 790}";
},
{
name = top;
position = "{380, 1580}";
}
);
layerId = "219068EA-2B9B-40DC-949E-B60449C01B8A";
paths = (
{
closed = 1;
nodes = (
"194 210 LINE",
"44 210 LINE",
"44 0 LINE",
"693 0 LINE",
"693 210 LINE",
"594 210 LINE",
"594 1580 LINE",
"50 1580 LINE",
"50 1370 LINE",
"194 1370 LINE"
);
},
{
closed = 1;
nodes = (
"594 722 LINE",
"594 868 OFFCURVE",
"674 919 OFFCURVE",
"765 919 CURVE SMOOTH",
"853 919 OFFCURVE",
"912 868 OFFCURVE",
"912 768 CURVE SMOOTH",
"912 210 LINE",
"813 210 LINE",
"813 0 LINE",
"1426 0 LINE",
"1426 210 LINE",
"1312 210 LINE",
"1312 779 LINE SMOOTH",
"1312 1060 OFFCURVE",
"1157 1183 OFFCURVE",
"939 1183 CURVE SMOOTH",
"639 1183 OFFCURVE",
"561 1001 OFFCURVE",
"561 720 CURVE"
);
}
);
width = 1478;
},
{
anchors = (
{
name = bottom;
position = "{704, 0}";
},
{
name = center;
position = "{704, 750}";
},
{
name = top;
position = "{370, 1500}";
}
);
layerId = "0C29AA02-E021-4BD1-A2C4-87F681D64C35";
paths = (
{
closed = 1;
nodes = (
"184 192 LINE",
"24 192 LINE",
"24 0 LINE",
"686 0 LINE",
"686 192 LINE",
"584 192 LINE",
"584 1500 LINE",
"30 1500 LINE",
"30 1308 LINE",
"184 1308 LINE"
);
},
{
closed = 1;
nodes = (
"584 743 LINE",
"584 874 OFFCURVE",
"653 920 OFFCURVE",
"732 920 CURVE SMOOTH",
"807 920 OFFCURVE",
"856 876 OFFCURVE",
"856 789 CURVE SMOOTH",
"856 192 LINE",
"754 192 LINE",
"754 0 LINE",
"1378 0 LINE",
"1378 192 LINE",
"1256 192 LINE",
"1256 789 LINE SMOOTH",
"1256 1048 OFFCURVE",
"1110 1162 OFFCURVE",
"904 1162 CURVE SMOOTH",
"624 1162 OFFCURVE",
"555 997 OFFCURVE",
"555 741 CURVE"
);
}
);
width = 1416;
}
);
leftKerningGroup = l;
rightKerningGroup = n;
unicode = 0068;
},
{
color = 8;
glyphname = idotless;
lastChange = "2021-02-28 14:49:19 +0000";
layers = (
{
anchors = (
{
name = bottom;
position = "{319, 0}";
},
{
name = ogonek;
position = "{470, 0}";
},
{
name = top;
position = "{320, 1100}";
}
);
layerId = "CA54B7DC-FBBB-40FE-ACF3-AABDD76D6A7B";
paths = (
{
closed = 1;
nodes = (
"316 44 LINE",
"100 44 LINE",
"100 0 LINE",
"558 0 LINE",
"558 44 LINE",
"364 44 LINE",
"364 1100 LINE",
"122 1100 LINE",
"122 1056 LINE",
"316 1056 LINE"
);
}
);
width = 638;
},
{
anchors = (
{
name = bottom;
position = "{272, 0}";
},
{
name = ogonek;
position = "{420, 0}";
},
{
name = top;
position = "{268, 1080}";
}
);
layerId = "1E61A082-F045-49A7-AB52-DD1B03FD9B54";
paths = (
{
closed = 1;
nodes = (
"264 36 LINE",
"34 36 LINE",
"34 0 LINE",
"519 0 LINE",
"519 36 LINE",
"312 36 LINE",
"312 1080 LINE",
"57 1080 LINE",
"57 1044 LINE",
"264 1044 LINE"
);
}
);
width = 545;
},
{
anchors = (
{
name = bottom;
position = "{411, 0}";
},
{
name = ogonek;
position = "{624, 0}";
},
{
name = top;
position = "{410, 1160}";
}
);
layerId = "219068EA-2B9B-40DC-949E-B60449C01B8A";
paths = (
{
closed = 1;
nodes = (
"224 210 LINE",
"74 210 LINE",
"74 0 LINE",
"759 0 LINE",
"759 210 LINE",
"624 210 LINE",
"624 1160 LINE",
"80 1160 LINE",
"80 950 LINE",
"224 950 LINE"
);
}
);
width = 803;
},
{
anchors = (
{
name = bottom;
position = "{394, 0}";
},
{
name = ogonek;
position = "{608, 0}";
},
{
name = top;
position = "{394, 1140}";
}
);
layerId = "0C29AA02-E021-4BD1-A2C4-87F681D64C35";
paths = (
{
closed = 1;
nodes = (
"208 192 LINE",
"48 192 LINE",
"48 0 LINE",
"752 0 LINE",
"752 192 LINE",
"608 192 LINE",
"608 1140 LINE",
"54 1140 LINE",
"54 948 LINE",
"208 948 LINE"
);
}
);
width = 780;
}
);
leftKerningGroup = n;
rightKerningGroup = l;
unicode = 0131;
},
{
color = 8;
glyphname = idotless.ss01;
lastChange = "2021-02-28 14:49:19 +0000";
layers = (
{
anchors = (
{
name = bottom;
position = "{451, 0}";
},
{
name = top;
position = "{276, 1100}";
}
);
layerId = "CA54B7DC-FBBB-40FE-ACF3-AABDD76D6A7B";
paths = (
{
closed = 1;
nodes = (
"648 420 LINE",
"604 420 LINE",
"604 198 LINE SMOOTH",
"604 95 OFFCURVE",
"556 24 OFFCURVE",
"459 24 CURVE SMOOTH",
"362 24 OFFCURVE",
"314 95 OFFCURVE",
"314 198 CURVE SMOOTH",
"314 1100 LINE",
"72 1100 LINE",
"72 1056 LINE",
"266 1056 LINE",
"266 198 LINE SMOOTH",
"266 62 OFFCURVE",
"339 -16 OFFCURVE",
"457 -16 CURVE SMOOTH",
"575 -16 OFFCURVE",
"648 62 OFFCURVE",
"648 198 CURVE SMOOTH"
);
}
);
width = 648;
},
{
anchors = (
{
name = bottom;
position = "{424, 0}";
},
{
name = top;
position = "{251, 1080}";
}
);
layerId = "1E61A082-F045-49A7-AB52-DD1B03FD9B54";
paths = (
{
closed = 1;
nodes = (
"623 480 LINE",
"579 480 LINE",
"579 198 LINE SMOOTH",
"579 95 OFFCURVE",
"531 24 OFFCURVE",
"434 24 CURVE SMOOTH",
"337 24 OFFCURVE",
"289 95 OFFCURVE",
"289 198 CURVE SMOOTH",
"289 1080 LINE",
"34 1080 LINE",
"34 1044 LINE",
"241 1044 LINE",
"241 198 LINE SMOOTH",
"241 62 OFFCURVE",
"314 -16 OFFCURVE",
"432 -16 CURVE SMOOTH",
"550 -16 OFFCURVE",
"623 62 OFFCURVE",
"623 198 CURVE SMOOTH"
);
}
);
width = 713;
},
{
anchors = (
{
name = bottom;
position = "{612, 0}";
},
{
name = top;
position = "{434, 1160}";
}
);
layerId = "219068EA-2B9B-40DC-949E-B60449C01B8A";
paths = (
{
closed = 1;
nodes = (
"1046 500 LINE",
"796 500 LINE",
"796 328 LINE SMOOTH",
"796 275 OFFCURVE",
"768 238 OFFCURVE",
"715 238 CURVE SMOOTH",
"665 238 OFFCURVE",
"636 275 OFFCURVE",
"636 328 CURVE SMOOTH",
"636 1160 LINE",
"68 1160 LINE",
"68 950 LINE",
"253 950 LINE",
"232 344 LINE SMOOTH",
"224 108 OFFCURVE",
"375 -26 OFFCURVE",
"654 -26 CURVE SMOOTH",
"918 -26 OFFCURVE",
"1046 117 OFFCURVE",
"1046 347 CURVE SMOOTH"
);
}
);
width = 1066;
},
{
anchors = (
{
name = bottom;
position = "{553, 0}";
},
{
name = top;
position = "{408, 1140}";
}
);
layerId = "0C29AA02-E021-4BD1-A2C4-87F681D64C35";
paths = (
{
closed = 1;
nodes = (
"940 640 LINE",
"742 640 LINE",
"742 314 LINE SMOOTH",
"742 267 OFFCURVE",
"717 238 OFFCURVE",
"673 238 CURVE SMOOTH",
"635 238 OFFCURVE",
"610 267 OFFCURVE",
"610 314 CURVE SMOOTH",
"610 1140 LINE",
"46 1140 LINE",
"46 948 LINE",
"227 948 LINE",
"206 324 LINE SMOOTH",
"198 100 OFFCURVE",
"330 -26 OFFCURVE",
"578 -26 CURVE SMOOTH",
"831 -26 OFFCURVE",
"940 109 OFFCURVE",
"940 327 CURVE SMOOTH"
);
}
);
width = 970;
}
);
leftKerningGroup = u;
rightKerningGroup = ialt;
},
{
color = 8;
glyphname = jdotless;
lastChange = "2021-02-28 14:49:18 +0000";
layers = (
{
anchors = (
{
name = bottom;
position = "{313, -440}";
},
{
name = top;
position = "{352, 1100}";
}
);
layerId = "CA54B7DC-FBBB-40FE-ACF3-AABDD76D6A7B";
paths = (
{
closed = 1;
nodes = (
"336 -140 LINE",
"384 -136 LINE",
"384 1100 LINE",
"142 1100 LINE",
"142 1056 LINE",
"336 1056 LINE"
);
},
{
closed = 1;
nodes = (
"150 -420 LINE",
"304 -420 OFFCURVE",
"384 -323 OFFCURVE",
"384 -136 CURVE",
"336 -140 LINE",
"336 -298 OFFCURVE",
"269 -376 OFFCURVE",
"150 -376 CURVE"
);
},
{
closed = 1;
nodes = (
"150 -376 LINE",
"43 -376 OFFCURVE",
"-21 -319 OFFCURVE",
"-19 -226 CURVE",
"-38 -241 LINE",
"17 -246 OFFCURVE",
"62 -228 OFFCURVE",
"62 -181 CURVE SMOOTH",
"62 -149 OFFCURVE",
"40 -129 OFFCURVE",
"8 -129 CURVE SMOOTH",
"-35 -129 OFFCURVE",
"-68 -164 OFFCURVE",
"-68 -221 CURVE SMOOTH",
"-68 -354 OFFCURVE",
"23 -420 OFFCURVE",
"150 -420 CURVE"
);
}
);
width = 626;
},
{
anchors = (
{
name = bottom;
position = "{267, -440}";
},
{
name = top;
position = "{296, 1080}";
}
);
layerId = "1E61A082-F045-49A7-AB52-DD1B03FD9B54";
paths = (
{
closed = 1;
nodes = (
"278 -110 LINE",
"326 -106 LINE",
"326 1080 LINE",
"71 1080 LINE",
"71 1044 LINE",
"278 1044 LINE"
);
},
{
closed = 1;
nodes = (
"68 -420 LINE",
"238 -420 OFFCURVE",
"326 -313 OFFCURVE",
"326 -106 CURVE",
"278 -110 LINE",
"278 -292 OFFCURVE",
"203 -382 OFFCURVE",
"68 -382 CURVE"
);
},
{
closed = 1;
nodes = (
"68 -382 LINE",
"-44 -382 OFFCURVE",
"-110 -318 OFFCURVE",
"-109 -216 CURVE",
"-128 -231 LINE",
"-70 -236 OFFCURVE",
"-24 -218 OFFCURVE",
"-24 -171 CURVE SMOOTH",
"-24 -139 OFFCURVE",
"-46 -119 OFFCURVE",
"-78 -119 CURVE SMOOTH",
"-121 -119 OFFCURVE",
"-154 -154 OFFCURVE",
"-154 -211 CURVE SMOOTH",
"-154 -351 OFFCURVE",
"-61 -420 OFFCURVE",
"68 -420 CURVE"
);
}
);
width = 534;
},
{
anchors = (
{
name = bottom;
position = "{390, -440}";
},
{
name = top;
position = "{420, 1160}";
}
);
layerId = "219068EA-2B9B-40DC-949E-B60449C01B8A";
paths = (
{
closed = 1;
nodes = (
"226 -115 LINE",
"630 54 LINE",
"630 1160 LINE",
"82 1160 LINE",
"82 950 LINE",
"226 950 LINE"
);
},
{
closed = 1;
nodes = (
"110 -452 LINE",
"384 -452 OFFCURVE",
"630 -295 OFFCURVE",
"630 54 CURVE",
"226 -115 LINE",
"226 -235 OFFCURVE",
"168 -282 OFFCURVE",
"72 -282 CURVE"
);
},
{
closed = 1;
nodes = (
"72 -282 LINE",
"20 -282 OFFCURVE",
"-18 -253 OFFCURVE",
"-39 -219 CURVE",
"-68 -320 LINE",
"53 -320 OFFCURVE",
"145 -296 OFFCURVE",
"145 -180 CURVE SMOOTH",
"145 -86 OFFCURVE",
"60 -40 OFFCURVE",
"-40 -40 CURVE SMOOTH",
"-178 -40 OFFCURVE",
"-252 -122 OFFCURVE",
"-252 -216 CURVE SMOOTH",
"-252 -358 OFFCURVE",
"-103 -452 OFFCURVE",
"110 -452 CURVE"
);
}
);
width = 780;
},
{
anchors = (
{
name = bottom;
position = "{372, -440}";
},
{
name = top;
position = "{406, 1140}";
}
);
layerId = "0C29AA02-E021-4BD1-A2C4-87F681D64C35";
paths = (
{
closed = 1;
nodes = (
"216 -135 LINE",
"620 54 LINE",
"620 1140 LINE",
"62 1140 LINE",
"62 948 LINE",
"216 948 LINE"
);
},
{
closed = 1;
nodes = (
"100 -452 LINE",
"374 -452 OFFCURVE",
"620 -295 OFFCURVE",
"620 54 CURVE",
"216 -135 LINE",
"216 -255 OFFCURVE",
"158 -302 OFFCURVE",
"62 -302 CURVE"
);
},
{
closed = 1;
nodes = (
"62 -302 LINE",
"5 -302 OFFCURVE",
"-36 -273 OFFCURVE",
"-59 -239 CURVE",
"-78 -300 LINE",
"43 -300 OFFCURVE",
"135 -278 OFFCURVE",
"135 -170 CURVE SMOOTH",
"135 -83 OFFCURVE",
"50 -40 OFFCURVE",
"-50 -40 CURVE SMOOTH",
"-188 -40 OFFCURVE",
"-262 -122 OFFCURVE",
"-262 -216 CURVE SMOOTH",
"-262 -358 OFFCURVE",
"-113 -452 OFFCURVE",
"100 -452 CURVE"
);
}
);
width = 724;
}
);
leftKerningGroup = p;
rightKerningGroup = q;
unicode = 0237;
},
{
color = 8;
glyphname = k;
lastChange = "2021-02-28 14:49:19 +0000";
layers = (
{
anchors = (
{
name = bottom;
position = "{682, 0}";
},
{
name = top;
position = "{682, 1560}";
}
);
layerId = "CA54B7DC-FBBB-40FE-ACF3-AABDD76D6A7B";
paths = (
{
closed = 1;
nodes = (
"292 44 LINE",
"76 44 LINE",
"76 0 LINE",
"534 0 LINE",
"534 44 LINE",
"340 44 LINE",
"340 1560 LINE",
"98 1560 LINE",
"98 1516 LINE",
"292 1516 LINE"
);
},
{
closed = 1;
nodes = (
"824 1100 LINE",
"824 1056 LINE",
"1044 1056 LINE",
"306 432 LINE",
"331 398 LINE",
"1112 1056 LINE",
"1242 1056 LINE",
"1242 1100 LINE"
);
},
{
closed = 1;
nodes = (
"583 646 LINE",
"550 614 LINE",
"1096 44 LINE",
"862 44 LINE",
"862 0 LINE",
"1296 0 LINE",
"1296 44 LINE",
"1163 44 LINE"
);
}
);
width = 1370;
},
{
anchors = (
{
name = bottom;
position = "{626, 0}";
},
{
name = top;
position = "{626, 1500}";
}
);
layerId = "1E61A082-F045-49A7-AB52-DD1B03FD9B54";
paths = (
{
closed = 1;
nodes = (
"254 36 LINE",
"24 36 LINE",
"24 0 LINE",
"509 0 LINE",
"509 36 LINE",
"302 36 LINE",
"302 1500 LINE",
"47 1500 LINE",
"47 1464 LINE",
"254 1464 LINE"
);
},
{
closed = 1;
nodes = (
"724 1080 LINE",
"724 1044 LINE",
"968 1044 LINE",
"268 426 LINE",
"290 392 LINE",
"1031 1044 LINE",
"1160 1044 LINE",
"1160 1080 LINE"
);
},
{
closed = 1;
nodes = (
"541 646 LINE",
"508 614 LINE",
"1014 36 LINE",
"755 36 LINE",
"755 0 LINE",
"1210 0 LINE",
"1210 36 LINE",
"1077 36 LINE"
);
}
);
width = 1252;
},
{
anchors = (
{
name = bottom;
position = "{750, 0}";
},
{
name = top;
position = "{750, 1580}";
}
);
layerId = "219068EA-2B9B-40DC-949E-B60449C01B8A";
paths = (
{
closed = 1;
nodes = (
"194 210 LINE",
"44 210 LINE",
"44 0 LINE",
"681 0 LINE",
"681 210 LINE",
"594 210 LINE",
"595 1580 LINE",
"51 1580 LINE",
"51 1370 LINE",
"195 1370 LINE"
);
},
{
closed = 1;
nodes = (
"740 1160 LINE",
"740 950 LINE",
"931 950 LINE",
"416 482 LINE",
"574 318 LINE",
"1281 950 LINE",
"1411 950 LINE",
"1411 1160 LINE"
);
},
{
closed = 1;
nodes = (
"933 799 LINE",
"660 553 LINE",
"888 210 LINE",
"786 210 LINE",
"786 0 LINE",
"1453 0 LINE",
"1453 210 LINE",
"1346 210 LINE"
);
}
);
width = 1504;
},
{
anchors = (
{
name = bottom;
position = "{720, 0}";
},
{
name = top;
position = "{720, 1500}";
}
);
layerId = "0C29AA02-E021-4BD1-A2C4-87F681D64C35";
paths = (
{
closed = 1;
nodes = (
"184 192 LINE",
"24 192 LINE",
"24 0 LINE",
"683 0 LINE",
"683 192 LINE",
"584 192 LINE",
"585 1500 LINE",
"31 1500 LINE",
"31 1308 LINE",
"185 1308 LINE"
);
},
{
closed = 1;
nodes = (
"711 1140 LINE",
"711 948 LINE",
"907 948 LINE",
"415 496 LINE",
"557 348 LINE",
"1217 948 LINE",
"1351 948 LINE",
"1351 1140 LINE"
);
},
{
closed = 1;
nodes = (
"895 799 LINE",
"635 563 LINE",
"865 192 LINE",
"750 192 LINE",
"750 0 LINE",
"1407 0 LINE",
"1407 192 LINE",
"1298 192 LINE"
);
}
);
width = 1443;
}
);
leftKerningGroup = l;
rightKerningGroup = k;
unicode = 006B;
},
{
color = 8;
glyphname = l;
lastChange = "2021-02-28 14:49:18 +0000";
layers = (
{
anchors = (
{
name = bottom;
position = "{307, 0}";
},
{
name = center;
position = "{316, 1100}";
},
{
name = top;
position = "{296, 1560}";
},
{
name = topright;
position = "{340, 1560}";
}
);
layerId = "CA54B7DC-FBBB-40FE-ACF3-AABDD76D6A7B";
paths = (
{
closed = 1;
nodes = (
"292 44 LINE",
"76 44 LINE",
"76 0 LINE",
"534 0 LINE",
"534 44 LINE",
"340 44 LINE",
"340 1560 LINE",
"98 1560 LINE",
"98 1516 LINE",
"292 1516 LINE"
);
}
);
width = 614;
},
{
anchors = (
{
name = bottom;
position = "{271, 0}";
},
{
name = center;
position = "{278, 1080}";
},
{
name = top;
position = "{258, 1500}";
},
{
name = topright;
position = "{302, 1500}";
}
);
layerId = "1E61A082-F045-49A7-AB52-DD1B03FD9B54";
paths = (
{
closed = 1;
nodes = (
"254 36 LINE",
"24 36 LINE",
"24 0 LINE",
"509 0 LINE",
"509 36 LINE",
"302 36 LINE",
"302 1500 LINE",
"47 1500 LINE",
"47 1464 LINE",
"254 1464 LINE"
);
}
);
width = 535;
},
{
anchors = (
{
name = bottom;
position = "{394, 0}";
},
{
name = center;
position = "{404, 1160}";
},
{
name = top;
position = "{384, 1580}";
},
{
name = topright;
position = "{598, 1580}";
}
);
layerId = "219068EA-2B9B-40DC-949E-B60449C01B8A";
paths = (
{
closed = 1;
nodes = (
"194 210 LINE",
"44 210 LINE",
"44 0 LINE",
"739 0 LINE",
"739 210 LINE",
"598 210 LINE",
"598 1580 LINE",
"50 1580 LINE",
"50 1370 LINE",
"194 1370 LINE"
);
}
);
width = 783;
},
{
anchors = (
{
name = bottom;
position = "{383, 0}";
},
{
name = center;
position = "{394, 1140}";
},
{
name = top;
position = "{374, 1500}";
},
{
name = topright;
position = "{588, 1500}";
}
);
layerId = "0C29AA02-E021-4BD1-A2C4-87F681D64C35";
paths = (
{
closed = 1;
nodes = (
"184 192 LINE",
"24 192 LINE",
"24 0 LINE",
"738 0 LINE",
"738 192 LINE",
"588 192 LINE",
"588 1500 LINE",
"30 1500 LINE",
"30 1308 LINE",
"184 1308 LINE"
);
}
);
width = 766;
}
);
leftKerningGroup = l;
rightKerningGroup = l;
unicode = 006C;
},
{
color = 8;
glyphname = l.ss01;
lastChange = "2021-02-28 14:49:19 +0000";
layers = (
{
anchors = (
{
name = bottom;
position = "{285, 0}";
},
{
name = center;
position = "{285, 780}";
},
{
name = top;
position = "{274, 1560}";
},
{
name = topright;
position = "{318, 1560}";
}
);
layerId = "CA54B7DC-FBBB-40FE-ACF3-AABDD76D6A7B";
paths = (
{
closed = 1;
nodes = (
"652 420 LINE",
"608 420 LINE",
"608 198 LINE SMOOTH",
"608 95 OFFCURVE",
"560 24 OFFCURVE",
"463 24 CURVE SMOOTH",
"366 24 OFFCURVE",
"318 95 OFFCURVE",
"318 198 CURVE SMOOTH",
"318 1560 LINE",
"76 1560 LINE",
"76 1516 LINE",
"270 1516 LINE",
"270 198 LINE SMOOTH",
"270 62 OFFCURVE",
"343 -16 OFFCURVE",
"461 -16 CURVE SMOOTH",
"579 -16 OFFCURVE",
"652 62 OFFCURVE",
"652 198 CURVE SMOOTH"
);
}
);
width = 652;
},
{
anchors = (
{
name = bottom;
position = "{236, 0}";
},
{
name = center;
position = "{236, 780}";
},
{
name = top;
position = "{225, 1500}";
},
{
name = topright;
position = "{269, 1500}";
}
);
layerId = "1E61A082-F045-49A7-AB52-DD1B03FD9B54";
paths = (
{
closed = 1;
nodes = (
"603 480 LINE",
"559 480 LINE",
"559 198 LINE SMOOTH",
"559 95 OFFCURVE",
"511 24 OFFCURVE",
"414 24 CURVE SMOOTH",
"317 24 OFFCURVE",
"269 95 OFFCURVE",
"269 198 CURVE SMOOTH",
"269 1500 LINE",
"14 1500 LINE",
"14 1464 LINE",
"221 1464 LINE",
"221 198 LINE SMOOTH",
"221 62 OFFCURVE",
"294 -16 OFFCURVE",
"412 -16 CURVE SMOOTH",
"530 -16 OFFCURVE",
"603 62 OFFCURVE",
"603 198 CURVE SMOOTH"
);
}
);
width = 693;
},
{
anchors = (
{
name = bottom;
position = "{574, 0}";
},
{
name = center;
position = "{396, 790}";
},
{
name = top;
position = "{386, 1580}";
},
{
name = topright;
position = "{600, 1580}";
}
);
layerId = "219068EA-2B9B-40DC-949E-B60449C01B8A";
paths = (
{
closed = 1;
nodes = (
"1010 500 LINE",
"760 500 LINE",
"760 328 LINE SMOOTH",
"760 275 OFFCURVE",
"732 238 OFFCURVE",
"679 238 CURVE SMOOTH",
"629 238 OFFCURVE",
"600 275 OFFCURVE",
"600 328 CURVE SMOOTH",
"600 1580 LINE",
"34 1580 LINE",
"34 1370 LINE",
"220 1370 LINE",
"192 404 LINE SMOOTH",
"184 112 OFFCURVE",
"340 -26 OFFCURVE",
"622 -26 CURVE SMOOTH",
"883 -26 OFFCURVE",
"1010 117 OFFCURVE",
"1010 347 CURVE SMOOTH"
);
}
);
width = 1030;
},
{
anchors = (
{
name = bottom;
position = "{501, 0}";
},
{
name = center;
position = "{353, 750}";
},
{
name = top;
position = "{344, 1500}";
},
{
name = topright;
position = "{558, 1500}";
}
);
layerId = "0C29AA02-E021-4BD1-A2C4-87F681D64C35";
paths = (
{
closed = 1;
nodes = (
"888 640 LINE",
"690 640 LINE",
"690 314 LINE SMOOTH",
"690 267 OFFCURVE",
"665 238 OFFCURVE",
"621 238 CURVE SMOOTH",
"583 238 OFFCURVE",
"558 267 OFFCURVE",
"558 314 CURVE SMOOTH",
"558 1500 LINE",
"-20 1500 LINE",
"-20 1308 LINE",
"178 1308 LINE",
"150 384 LINE SMOOTH",
"142 112 OFFCURVE",
"278 -26 OFFCURVE",
"526 -26 CURVE SMOOTH",
"779 -26 OFFCURVE",
"888 109 OFFCURVE",
"888 327 CURVE SMOOTH"
);
}
);
width = 918;
}
);
leftKerningGroup = lalt;
rightKerningGroup = ialt;
},
{
color = 8;
glyphname = m;
lastChange = "2021-02-28 14:49:19 +0000";
layers = (
{
anchors = (
{
name = bottom;
position = "{936, 0}";
},
{
name = top;
position = "{936, 1100}";
}
);
layerId = "CA54B7DC-FBBB-40FE-ACF3-AABDD76D6A7B";
paths = (
{
closed = 1;
nodes = (
"316 44 LINE",
"100 44 LINE",
"100 0 LINE",
"550 0 LINE",
"550 44 LINE",
"364 44 LINE",
"364 734 LINE",
"360 734 LINE",
"360 1100 LINE",
"122 1100 LINE",
"122 1056 LINE",
"316 1056 LINE"
);
},
{
closed = 1;
nodes = (
"364 674 LINE",
"364 949 OFFCURVE",
"523 1072 OFFCURVE",
"690 1072 CURVE SMOOTH",
"849 1072 OFFCURVE",
"942 995 OFFCURVE",
"942 812 CURVE SMOOTH",
"942 44 LINE",
"756 44 LINE",
"756 0 LINE",
"1176 0 LINE",
"1176 44 LINE",
"990 44 LINE",
"990 812 LINE SMOOTH",
"990 1031 OFFCURVE",
"870 1116 OFFCURVE",
"692 1116 CURVE SMOOTH",
"499 1116 OFFCURVE",
"328 982 OFFCURVE",
"328 674 CURVE"
);
},
{
closed = 1;
nodes = (
"990 674 LINE",
"990 949 OFFCURVE",
"1149 1072 OFFCURVE",
"1316 1072 CURVE SMOOTH",
"1475 1072 OFFCURVE",
"1568 995 OFFCURVE",
"1568 812 CURVE SMOOTH",
"1568 44 LINE",
"1382 44 LINE",
"1382 0 LINE",
"1802 0 LINE",
"1802 44 LINE",
"1616 44 LINE",
"1616 812 LINE SMOOTH",
"1616 1031 OFFCURVE",
"1498 1116 OFFCURVE",
"1318 1116 CURVE SMOOTH",
"1125 1116 OFFCURVE",
"954 982 OFFCURVE",
"954 674 CURVE"
);
}
);
width = 1876;
},
{
anchors = (
{
name = bottom;
position = "{818, 0}";
},
{
name = top;
position = "{818, 1080}";
}
);
layerId = "1E61A082-F045-49A7-AB52-DD1B03FD9B54";
paths = (
{
closed = 1;
nodes = (
"264 36 LINE",
"34 36 LINE",
"34 0 LINE",
"514 0 LINE",
"514 36 LINE",
"312 36 LINE",
"312 764 LINE",
"308 764 LINE",
"308 1080 LINE",
"57 1080 LINE",
"57 1044 LINE",
"264 1044 LINE"
);
},
{
closed = 1;
nodes = (
"312 704 LINE",
"312 948 OFFCURVE",
"451 1058 OFFCURVE",
"598 1058 CURVE SMOOTH",
"740 1058 OFFCURVE",
"818 989 OFFCURVE",
"818 844 CURVE SMOOTH",
"818 36 LINE",
"616 36 LINE",
"616 0 LINE",
"1068 0 LINE",
"1068 36 LINE",
"866 36 LINE",
"866 844 LINE SMOOTH",
"866 1021 OFFCURVE",
"758 1096 OFFCURVE",
"600 1096 CURVE SMOOTH",
"428 1096 OFFCURVE",
"285 977 OFFCURVE",
"285 704 CURVE"
);
},
{
closed = 1;
nodes = (
"866 704 LINE",
"866 948 OFFCURVE",
"1005 1058 OFFCURVE",
"1152 1058 CURVE SMOOTH",
"1294 1058 OFFCURVE",
"1372 989 OFFCURVE",
"1372 844 CURVE SMOOTH",
"1372 36 LINE",
"1170 36 LINE",
"1170 0 LINE",
"1618 0 LINE",
"1618 36 LINE",
"1420 36 LINE",
"1420 844 LINE SMOOTH",
"1420 1021 OFFCURVE",
"1314 1096 OFFCURVE",
"1154 1096 CURVE SMOOTH",
"982 1096 OFFCURVE",
"839 977 OFFCURVE",
"839 704 CURVE"
);
}
);
width = 1642;
},
{
anchors = (
{
name = bottom;
position = "{1078, 0}";
},
{
name = top;
position = "{1078, 1160}";
}
);
layerId = "219068EA-2B9B-40DC-949E-B60449C01B8A";
paths = (
{
closed = 1;
nodes = (
"224 210 LINE",
"74 210 LINE",
"74 0 LINE",
"711 0 LINE",
"711 210 LINE",
"618 210 LINE",
"618 790 LINE",
"568 782 LINE",
"568 1160 LINE",
"80 1160 LINE",
"80 950 LINE",
"224 950 LINE"
);
},
{
closed = 1;
nodes = (
"618 733 LINE",
"618 873 OFFCURVE",
"690 922 OFFCURVE",
"773 922 CURVE SMOOTH",
"852 922 OFFCURVE",
"904 874 OFFCURVE",
"904 779 CURVE SMOOTH",
"904 210 LINE",
"811 210 LINE",
"811 0 LINE",
"1391 0 LINE",
"1391 210 LINE",
"1298 210 LINE",
"1298 790 LINE SMOOTH",
"1298 1065 OFFCURVE",
"1147 1186 OFFCURVE",
"933 1186 CURVE SMOOTH",
"631 1186 OFFCURVE",
"555 1007 OFFCURVE",
"555 731 CURVE"
);
},
{
closed = 1;
nodes = (
"1298 733 LINE",
"1298 873 OFFCURVE",
"1370 922 OFFCURVE",
"1453 922 CURVE SMOOTH",
"1532 922 OFFCURVE",
"1584 874 OFFCURVE",
"1584 779 CURVE SMOOTH",
"1584 210 LINE",
"1491 210 LINE",
"1491 0 LINE",
"2092 0 LINE",
"2092 210 LINE",
"1978 210 LINE",
"1978 790 LINE SMOOTH",
"1978 1065 OFFCURVE",
"1829 1186 OFFCURVE",
"1621 1186 CURVE SMOOTH",
"1325 1186 OFFCURVE",
"1251 1007 OFFCURVE",
"1251 731 CURVE"
);
}
);
width = 2144;
},
{
anchors = (
{
name = bottom;
position = "{1041, 0}";
},
{
name = top;
position = "{1041, 1140}";
}
);
layerId = "0C29AA02-E021-4BD1-A2C4-87F681D64C35";
paths = (
{
closed = 1;
nodes = (
"208 192 LINE",
"48 192 LINE",
"48 0 LINE",
"698 0 LINE",
"698 192 LINE",
"602 192 LINE",
"602 770 LINE",
"552 762 LINE",
"552 1140 LINE",
"54 1140 LINE",
"54 948 LINE",
"208 948 LINE"
);
},
{
closed = 1;
nodes = (
"602 743 LINE",
"602 876 OFFCURVE",
"669 922 OFFCURVE",
"747 922 CURVE SMOOTH",
"820 922 OFFCURVE",
"868 877 OFFCURVE",
"868 789 CURVE SMOOTH",
"868 192 LINE",
"772 192 LINE",
"772 0 LINE",
"1358 0 LINE",
"1358 192 LINE",
"1262 192 LINE",
"1262 790 LINE SMOOTH",
"1262 1051 OFFCURVE",
"1109 1166 OFFCURVE",
"901 1166 CURVE SMOOTH",
"612 1166 OFFCURVE",
"539 999 OFFCURVE",
"539 741 CURVE"
);
},
{
closed = 1;
nodes = (
"1262 743 LINE",
"1262 876 OFFCURVE",
"1329 922 OFFCURVE",
"1407 922 CURVE SMOOTH",
"1480 922 OFFCURVE",
"1528 877 OFFCURVE",
"1528 789 CURVE SMOOTH",
"1528 192 LINE",
"1432 192 LINE",
"1432 0 LINE",
"2044 0 LINE",
"2044 192 LINE",
"1922 192 LINE",
"1922 780 LINE SMOOTH",
"1922 1048 OFFCURVE",
"1780 1166 OFFCURVE",
"1577 1166 CURVE SMOOTH",
"1292 1166 OFFCURVE",
"1221 999 OFFCURVE",
"1221 741 CURVE"
);
}
);
width = 2082;
}
);
leftKerningGroup = n;
rightKerningGroup = n;
unicode = 006D;
},
{
color = 8;
glyphname = n;
lastChange = "2021-02-28 14:49:18 +0000";
layers = (
{
anchors = (
{
name = bottom;
position = "{703, 0}";
},
{
name = top;
position = "{705, 1100}";
}
);
layerId = "CA54B7DC-FBBB-40FE-ACF3-AABDD76D6A7B";
paths = (
{
closed = 1;
nodes = (
"316 44 LINE",
"100 44 LINE",
"100 0 LINE",
"580 0 LINE",
"580 44 LINE",
"364 44 LINE",
"364 710 LINE",
"360 710 LINE",
"360 1100 LINE",
"122 1100 LINE",
"122 1056 LINE",
"316 1056 LINE"
);
},
{
closed = 1;
nodes = (
"364 552 LINE",
"364 911 OFFCURVE",
"570 1072 OFFCURVE",
"790 1072 CURVE SMOOTH",
"982 1072 OFFCURVE",
"1102 981 OFFCURVE",
"1102 764 CURVE SMOOTH",
"1102 44 LINE",
"886 44 LINE",
"886 0 LINE",
"1336 0 LINE",
"1336 44 LINE",
"1150 44 LINE",
"1150 764 LINE SMOOTH",
"1150 1018 OFFCURVE",
"1002 1116 OFFCURVE",
"792 1116 CURVE SMOOTH",
"550 1116 OFFCURVE",
"328 954 OFFCURVE",
"328 552 CURVE"
);
}
);
width = 1410;
},
{
anchors = (
{
name = bottom;
position = "{625, 0}";
},
{
name = top;
position = "{623, 1080}";
}
);
layerId = "1E61A082-F045-49A7-AB52-DD1B03FD9B54";
paths = (
{
closed = 1;
nodes = (
"264 36 LINE",
"34 36 LINE",
"34 0 LINE",
"593 0 LINE",
"593 36 LINE",
"312 36 LINE",
"312 740 LINE",
"308 740 LINE",
"308 1080 LINE",
"57 1080 LINE",
"57 1044 LINE",
"264 1044 LINE"
);
},
{
closed = 1;
nodes = (
"312 582 LINE",
"312 908 OFFCURVE",
"503 1058 OFFCURVE",
"708 1058 CURVE SMOOTH",
"881 1058 OFFCURVE",
"986 967 OFFCURVE",
"986 774 CURVE SMOOTH",
"986 36 LINE",
"705 36 LINE",
"705 0 LINE",
"1232 0 LINE",
"1232 36 LINE",
"1034 36 LINE",
"1034 774 LINE SMOOTH",
"1034 998 OFFCURVE",
"900 1096 OFFCURVE",
"710 1096 CURVE SMOOTH",
"483 1096 OFFCURVE",
"285 952 OFFCURVE",
"285 582 CURVE"
);
}
);
width = 1256;
},
{
anchors = (
{
name = bottom;
position = "{760, 0}";
},
{
name = top;
position = "{754, 1160}";
}
);
layerId = "219068EA-2B9B-40DC-949E-B60449C01B8A";
paths = (
{
closed = 1;
nodes = (
"224 210 LINE",
"74 210 LINE",
"74 0 LINE",
"723 0 LINE",
"723 210 LINE",
"624 210 LINE",
"624 783 LINE",
"574 775 LINE",
"574 1160 LINE",
"80 1160 LINE",
"80 950 LINE",
"224 950 LINE"
);
},
{
closed = 1;
nodes = (
"624 726 LINE",
"624 872 OFFCURVE",
"704 923 OFFCURVE",
"795 923 CURVE SMOOTH",
"883 923 OFFCURVE",
"942 872 OFFCURVE",
"942 772 CURVE SMOOTH",
"942 210 LINE",
"843 210 LINE",
"843 0 LINE",
"1456 0 LINE",
"1456 210 LINE",
"1342 210 LINE",
"1342 783 LINE SMOOTH",
"1342 1064 OFFCURVE",
"1181 1187 OFFCURVE",
"955 1187 CURVE SMOOTH",
"639 1187 OFFCURVE",
"557 1005 OFFCURVE",
"557 724 CURVE"
);
}
);
width = 1508;
},
{
anchors = (
{
name = bottom;
position = "{720, 0}";
},
{
name = top;
position = "{716, 1140}";
}
);
layerId = "0C29AA02-E021-4BD1-A2C4-87F681D64C35";
paths = (
{
closed = 1;
nodes = (
"208 192 LINE",
"48 192 LINE",
"48 0 LINE",
"710 0 LINE",
"710 192 LINE",
"608 192 LINE",
"608 804 LINE",
"558 796 LINE",
"558 1140 LINE",
"54 1140 LINE",
"54 948 LINE",
"208 948 LINE"
);
},
{
closed = 1;
nodes = (
"608 747 LINE",
"608 878 OFFCURVE",
"677 924 OFFCURVE",
"756 924 CURVE SMOOTH",
"831 924 OFFCURVE",
"880 880 OFFCURVE",
"880 793 CURVE SMOOTH",
"880 192 LINE",
"778 192 LINE",
"778 0 LINE",
"1402 0 LINE",
"1402 192 LINE",
"1280 192 LINE",
"1280 793 LINE SMOOTH",
"1280 1052 OFFCURVE",
"1123 1166 OFFCURVE",
"914 1166 CURVE SMOOTH",
"623 1166 OFFCURVE",
"545 1001 OFFCURVE",
"545 745 CURVE"
);
}
);
width = 1440;
}
);
leftKerningGroup = n;
rightKerningGroup = n;
unicode = 006E;
},
{
color = 8;
glyphname = o;
lastChange = "2021-02-28 14:49:18 +0000";
layers = (
{
anchors = (
{
name = bottom;
position = "{668, 0}";
},
{
name = ogonek;
position = "{921, 0}";
},
{
name = top;
position = "{668, 1100}";
},
{
name = topright;
position = "{1086, 940}";
}
);
layerId = "CA54B7DC-FBBB-40FE-ACF3-AABDD76D6A7B";
paths = (
{
closed = 1;
nodes = (
"982 -16 OFFCURVE",
"1202 190 OFFCURVE",
"1202 550 CURVE SMOOTH",
"1202 910 OFFCURVE",
"982 1116 OFFCURVE",
"668 1116 CURVE SMOOTH",
"354 1116 OFFCURVE",
"134 910 OFFCURVE",
"134 550 CURVE SMOOTH",
"134 190 OFFCURVE",
"354 -16 OFFCURVE",
"668 -16 CURVE SMOOTH"
);
},
{
closed = 1;
nodes = (
"380 28 OFFCURVE",
"182 224 OFFCURVE",
"182 550 CURVE SMOOTH",
"182 876 OFFCURVE",
"380 1072 OFFCURVE",
"668 1072 CURVE SMOOTH",
"956 1072 OFFCURVE",
"1154 876 OFFCURVE",
"1154 550 CURVE SMOOTH",
"1154 224 OFFCURVE",
"956 28 OFFCURVE",
"668 28 CURVE SMOOTH"
);
}
);
width = 1336;
},
{
anchors = (
{
name = bottom;
position = "{606, 0}";
},
{
name = ogonek;
position = "{845, 0}";
},
{
name = top;
position = "{606, 1080}";
},
{
name = topright;
position = "{996, 920}";
}
);
layerId = "1E61A082-F045-49A7-AB52-DD1B03FD9B54";
paths = (
{
closed = 1;
nodes = (
"898 -16 OFFCURVE",
"1102 186 OFFCURVE",
"1102 540 CURVE SMOOTH",
"1102 894 OFFCURVE",
"898 1096 OFFCURVE",
"606 1096 CURVE SMOOTH",
"314 1096 OFFCURVE",
"110 894 OFFCURVE",
"110 540 CURVE SMOOTH",
"110 186 OFFCURVE",
"314 -16 OFFCURVE",
"606 -16 CURVE SMOOTH"
);
},
{
closed = 1;
nodes = (
"340 22 OFFCURVE",
"158 217 OFFCURVE",
"158 540 CURVE SMOOTH",
"158 863 OFFCURVE",
"340 1058 OFFCURVE",
"606 1058 CURVE SMOOTH",
"872 1058 OFFCURVE",
"1054 863 OFFCURVE",
"1054 540 CURVE SMOOTH",
"1054 217 OFFCURVE",
"872 22 OFFCURVE",
"606 22 CURVE SMOOTH"
);
}
);
width = 1212;
},
{
anchors = (
{
name = bottom;
position = "{755, 0}";
},
{
name = ogonek;
position = "{1079, 0}";
},
{
name = top;
position = "{755, 1160}";
},
{
name = topright;
position = "{1285, 1030}";
}
);
layerId = "219068EA-2B9B-40DC-949E-B60449C01B8A";
paths = (
{
closed = 1;
nodes = (
"1145 -26 OFFCURVE",
"1438 189 OFFCURVE",
"1438 580 CURVE SMOOTH",
"1438 970 OFFCURVE",
"1145 1186 OFFCURVE",
"755 1186 CURVE SMOOTH",
"365 1186 OFFCURVE",
"72 970 OFFCURVE",
"72 580 CURVE SMOOTH",
"72 189 OFFCURVE",
"365 -26 OFFCURVE",
"755 -26 CURVE SMOOTH"
);
},
{
closed = 1;
nodes = (
"607 194 OFFCURVE",
"518 332 OFFCURVE",
"518 580 CURVE SMOOTH",
"518 824 OFFCURVE",
"607 966 OFFCURVE",
"755 966 CURVE SMOOTH",
"902 966 OFFCURVE",
"992 830 OFFCURVE",
"992 596 CURVE SMOOTH",
"992 339 OFFCURVE",
"902 194 OFFCURVE",
"755 194 CURVE SMOOTH"
);
}
);
width = 1510;
},
{
anchors = (
{
name = bottom;
position = "{691, 0}";
},
{
name = ogonek;
position = "{1002, 0}";
},
{
name = top;
position = "{691, 1140}";
},
{
name = topright;
position = "{1189, 1010}";
}
);
layerId = "0C29AA02-E021-4BD1-A2C4-87F681D64C35";
paths = (
{
closed = 1;
nodes = (
"1064 -26 OFFCURVE",
"1330 194 OFFCURVE",
"1330 569 CURVE SMOOTH",
"1330 943 OFFCURVE",
"1064 1166 OFFCURVE",
"691 1166 CURVE SMOOTH",
"318 1166 OFFCURVE",
"52 944 OFFCURVE",
"52 570 CURVE SMOOTH",
"52 195 OFFCURVE",
"318 -26 OFFCURVE",
"691 -26 CURVE SMOOTH"
);
},
{
closed = 1;
nodes = (
"563 148 OFFCURVE",
"498 294 OFFCURVE",
"498 570 CURVE SMOOTH",
"498 840 OFFCURVE",
"563 992 OFFCURVE",
"691 992 CURVE SMOOTH",
"819 992 OFFCURVE",
"884 845 OFFCURVE",
"884 585 CURVE SMOOTH",
"884 300 OFFCURVE",
"819 148 OFFCURVE",
"691 148 CURVE SMOOTH"
);
}
);
width = 1382;
}
);
leftKerningGroup = o;
rightKerningGroup = o;
unicode = 006F;
},
{
color = 8;
glyphname = p;
lastChange = "2021-02-28 14:49:19 +0000";
layers = (
{
anchors = (
{
name = bottom;
position = "{721, 0}";
},
{
name = top;
position = "{721, 1100}";
}
);
layerId = "CA54B7DC-FBBB-40FE-ACF3-AABDD76D6A7B";
paths = (
{
closed = 1;
nodes = (
"340 334 LINE",
"310 550 LINE",
"336 746 LINE",
"336 1100 LINE",
"98 1100 LINE",
"98 1056 LINE",
"292 1056 LINE",
"292 -376 LINE",
"76 -376 LINE",
"76 -420 LINE",
"599 -420 LINE",
"599 -376 LINE",
"340 -376 LINE"
);
},
{
closed = 1;
nodes = (
"1103 -16 OFFCURVE",
"1316 198 OFFCURVE",
"1316 550 CURVE SMOOTH",
"1316 902 OFFCURVE",
"1103 1116 OFFCURVE",
"806 1116 CURVE SMOOTH",
"489 1116 OFFCURVE",
"296 902 OFFCURVE",
"296 551 CURVE SMOOTH",
"296 549 LINE SMOOTH",
"296 198 OFFCURVE",
"489 -16 OFFCURVE",
"806 -16 CURVE SMOOTH"
);
},
{
closed = 1;
nodes = (
"531 28 OFFCURVE",
"336 223 OFFCURVE",
"336 550 CURVE SMOOTH",
"336 877 OFFCURVE",
"531 1072 OFFCURVE",
"806 1072 CURVE SMOOTH",
"1077 1072 OFFCURVE",
"1268 877 OFFCURVE",
"1268 550 CURVE SMOOTH",
"1268 223 OFFCURVE",
"1077 28 OFFCURVE",
"806 28 CURVE SMOOTH"
);
}
);
width = 1450;
},
{
anchors = (
{
name = bottom;
position = "{661, 0}";
},
{
name = top;
position = "{661, 1080}";
}
);
layerId = "1E61A082-F045-49A7-AB52-DD1B03FD9B54";
paths = (
{
closed = 1;
nodes = (
"302 324 LINE",
"286 540 LINE",
"298 736 LINE",
"298 1080 LINE",
"47 1080 LINE",
"47 1044 LINE",
"254 1044 LINE",
"254 -384 LINE",
"24 -384 LINE",
"24 -420 LINE",
"670 -420 LINE",
"670 -384 LINE",
"302 -384 LINE"
);
},
{
closed = 1;
nodes = (
"1004 -16 OFFCURVE",
"1202 194 OFFCURVE",
"1202 540 CURVE SMOOTH",
"1202 886 OFFCURVE",
"1004 1096 OFFCURVE",
"730 1096 CURVE SMOOTH",
"437 1096 OFFCURVE",
"272 887 OFFCURVE",
"272 541 CURVE SMOOTH",
"272 539 LINE SMOOTH",
"272 193 OFFCURVE",
"436 -16 OFFCURVE",
"730 -16 CURVE SMOOTH"
);
},
{
closed = 1;
nodes = (
"478 22 OFFCURVE",
"298 215 OFFCURVE",
"298 540 CURVE SMOOTH",
"298 865 OFFCURVE",
"478 1058 OFFCURVE",
"730 1058 CURVE SMOOTH",
"978 1058 OFFCURVE",
"1154 865 OFFCURVE",
"1154 540 CURVE SMOOTH",
"1154 215 OFFCURVE",
"978 22 OFFCURVE",
"730 22 CURVE SMOOTH"
);
}
);
width = 1312;
},
{
anchors = (
{
name = bottom;
position = "{787, 0}";
},
{
name = top;
position = "{787, 1160}";
}
);
layerId = "219068EA-2B9B-40DC-949E-B60449C01B8A";
paths = (
{
closed = 1;
nodes = (
"594 334 LINE",
"539 581 LINE",
"564 746 LINE",
"564 1160 LINE",
"50 1160 LINE",
"50 950 LINE",
"194 950 LINE",
"194 -210 LINE",
"44 -210 LINE",
"44 -420 LINE",
"774 -420 LINE",
"774 -210 LINE",
"594 -210 LINE"
);
},
{
closed = 1;
nodes = (
"1275 -22 OFFCURVE",
"1500 194 OFFCURVE",
"1500 580 CURVE SMOOTH",
"1500 966 OFFCURVE",
"1275 1182 OFFCURVE",
"961 1182 CURVE SMOOTH",
"639 1182 OFFCURVE",
"497 956 OFFCURVE",
"497 580 CURVE",
"525 580 LINE",
"525 194 OFFCURVE",
"639 -22 OFFCURVE",
"965 -22 CURVE SMOOTH"
);
},
{
closed = 1;
nodes = (
"664 230 OFFCURVE",
"574 350 OFFCURVE",
"574 580 CURVE SMOOTH",
"574 810 OFFCURVE",
"664 930 OFFCURVE",
"818 930 CURVE SMOOTH",
"970 930 OFFCURVE",
"1060 810 OFFCURVE",
"1060 580 CURVE SMOOTH",
"1060 350 OFFCURVE",
"970 230 OFFCURVE",
"818 230 CURVE SMOOTH"
);
}
);
width = 1572;
},
{
anchors = (
{
name = bottom;
position = "{733, 0}";
},
{
name = top;
position = "{733, 1140}";
}
);
layerId = "0C29AA02-E021-4BD1-A2C4-87F681D64C35";
paths = (
{
closed = 1;
nodes = (
"584 334 LINE",
"529 581 LINE",
"554 746 LINE",
"554 1140 LINE",
"30 1140 LINE",
"30 948 LINE",
"184 948 LINE",
"184 -228 LINE",
"24 -228 LINE",
"24 -420 LINE",
"872 -420 LINE",
"872 -228 LINE",
"584 -228 LINE"
);
},
{
closed = 1;
nodes = (
"1216 -22 OFFCURVE",
"1418 180 OFFCURVE",
"1418 570 CURVE SMOOTH",
"1418 960 OFFCURVE",
"1216 1162 OFFCURVE",
"923 1162 CURVE SMOOTH",
"602 1162 OFFCURVE",
"485 910 OFFCURVE",
"487 570 CURVE",
"509 570 LINE",
"509 220 OFFCURVE",
"602 -22 OFFCURVE",
"927 -22 CURVE SMOOTH"
);
},
{
closed = 1;
nodes = (
"638 198 OFFCURVE",
"564 326 OFFCURVE",
"564 570 CURVE SMOOTH",
"564 814 OFFCURVE",
"638 942 OFFCURVE",
"772 942 CURVE SMOOTH",
"904 942 OFFCURVE",
"978 814 OFFCURVE",
"978 570 CURVE SMOOTH",
"978 326 OFFCURVE",
"904 198 OFFCURVE",
"772 198 CURVE SMOOTH"
);
}
);
width = 1470;
}
);
leftKerningGroup = p;
rightKerningGroup = o;
unicode = 0070;
},
{
color = 8;
glyphname = q;
lastChange = "2021-02-28 14:49:19 +0000";
layers = (
{
anchors = (
{
name = bottom;
position = "{700, 0}";
},
{
name = top;
position = "{700, 1100}";
}
);
layerId = "CA54B7DC-FBBB-40FE-ACF3-AABDD76D6A7B";
paths = (
{
closed = 1;
nodes = (
"1352 -420 LINE",
"1352 -376 LINE",
"1158 -376 LINE",
"1158 1100 LINE",
"1114 1100 LINE",
"1114 750 LINE",
"1140 550 LINE",
"1110 334 LINE",
"1110 -376 LINE",
"851 -376 LINE",
"851 -420 LINE"
);
},
{
closed = 1;
nodes = (
"961 -16 OFFCURVE",
"1154 198 OFFCURVE",
"1154 549 CURVE SMOOTH",
"1154 551 LINE SMOOTH",
"1154 902 OFFCURVE",
"961 1116 OFFCURVE",
"644 1116 CURVE SMOOTH",
"347 1116 OFFCURVE",
"134 902 OFFCURVE",
"134 550 CURVE SMOOTH",
"134 198 OFFCURVE",
"347 -16 OFFCURVE",
"644 -16 CURVE SMOOTH"
);
},
{
closed = 1;
nodes = (
"373 28 OFFCURVE",
"182 223 OFFCURVE",
"182 550 CURVE SMOOTH",
"182 877 OFFCURVE",
"373 1072 OFFCURVE",
"644 1072 CURVE SMOOTH",
"919 1072 OFFCURVE",
"1114 877 OFFCURVE",
"1114 550 CURVE SMOOTH",
"1114 223 OFFCURVE",
"919 28 OFFCURVE",
"644 28 CURVE SMOOTH"
);
}
);
width = 1397;
},
{
anchors = (
{
name = bottom;
position = "{631, 0}";
},
{
name = top;
position = "{631, 1080}";
}
);
layerId = "1E61A082-F045-49A7-AB52-DD1B03FD9B54";
paths = (
{
closed = 1;
nodes = (
"1265 -420 LINE",
"1265 -384 LINE",
"1058 -384 LINE",
"1058 1080 LINE",
"1014 1080 LINE",
"1014 740 LINE",
"1026 540 LINE",
"1010 324 LINE",
"1010 -384 LINE",
"642 -384 LINE",
"642 -420 LINE"
);
},
{
closed = 1;
nodes = (
"876 -16 OFFCURVE",
"1040 193 OFFCURVE",
"1040 539 CURVE SMOOTH",
"1040 541 LINE SMOOTH",
"1040 887 OFFCURVE",
"875 1096 OFFCURVE",
"582 1096 CURVE SMOOTH",
"308 1096 OFFCURVE",
"110 886 OFFCURVE",
"110 540 CURVE SMOOTH",
"110 194 OFFCURVE",
"308 -16 OFFCURVE",
"582 -16 CURVE SMOOTH"
);
},
{
closed = 1;
nodes = (
"334 22 OFFCURVE",
"158 215 OFFCURVE",
"158 540 CURVE SMOOTH",
"158 865 OFFCURVE",
"334 1058 OFFCURVE",
"582 1058 CURVE SMOOTH",
"834 1058 OFFCURVE",
"1014 865 OFFCURVE",
"1014 540 CURVE SMOOTH",
"1014 215 OFFCURVE",
"834 22 OFFCURVE",
"582 22 CURVE SMOOTH"
);
}
);
width = 1271;
},
{
anchors = (
{
name = bottom;
position = "{768, 0}";
},
{
name = top;
position = "{768, 1160}";
}
);
layerId = "219068EA-2B9B-40DC-949E-B60449C01B8A";
paths = (
{
closed = 1;
nodes = (
"1513 -420 LINE",
"1513 -206 LINE",
"1378 -206 LINE",
"1378 1160 LINE",
"1008 1160 LINE",
"1008 744 LINE",
"1025 581 LINE",
"978 334 LINE",
"978 -206 LINE",
"798 -206 LINE",
"798 -420 LINE"
);
},
{
closed = 1;
nodes = (
"933 -22 OFFCURVE",
"1047 204 OFFCURVE",
"1047 580 CURVE",
"1075 580 LINE",
"1075 946 OFFCURVE",
"933 1182 OFFCURVE",
"611 1182 CURVE SMOOTH",
"297 1182 OFFCURVE",
"72 966 OFFCURVE",
"72 580 CURVE SMOOTH",
"72 194 OFFCURVE",
"297 -22 OFFCURVE",
"607 -22 CURVE SMOOTH"
);
},
{
closed = 1;
nodes = (
"602 230 OFFCURVE",
"512 350 OFFCURVE",
"512 580 CURVE SMOOTH",
"512 810 OFFCURVE",
"602 930 OFFCURVE",
"754 930 CURVE SMOOTH",
"908 930 OFFCURVE",
"998 810 OFFCURVE",
"998 580 CURVE SMOOTH",
"998 350 OFFCURVE",
"908 230 OFFCURVE",
"754 230 CURVE SMOOTH"
);
}
);
width = 1537;
},
{
anchors = (
{
name = bottom;
position = "{700, 0}";
},
{
name = top;
position = "{700, 1140}";
}
);
layerId = "0C29AA02-E021-4BD1-A2C4-87F681D64C35";
paths = (
{
closed = 1;
nodes = (
"1430 -420 LINE",
"1430 -224 LINE",
"1286 -224 LINE",
"1286 1140 LINE",
"916 1140 LINE",
"916 744 LINE",
"933 581 LINE",
"886 334 LINE",
"886 -224 LINE",
"598 -224 LINE",
"598 -420 LINE"
);
},
{
closed = 1;
nodes = (
"868 -22 OFFCURVE",
"961 220 OFFCURVE",
"961 570 CURVE",
"983 570 LINE",
"985 910 OFFCURVE",
"868 1162 OFFCURVE",
"547 1162 CURVE SMOOTH",
"254 1162 OFFCURVE",
"52 960 OFFCURVE",
"52 570 CURVE SMOOTH",
"52 180 OFFCURVE",
"254 -22 OFFCURVE",
"543 -22 CURVE SMOOTH"
);
},
{
closed = 1;
nodes = (
"566 198 OFFCURVE",
"492 326 OFFCURVE",
"492 570 CURVE SMOOTH",
"492 814 OFFCURVE",
"566 942 OFFCURVE",
"698 942 CURVE SMOOTH",
"832 942 OFFCURVE",
"906 814 OFFCURVE",
"906 570 CURVE SMOOTH",
"906 326 OFFCURVE",
"832 198 OFFCURVE",
"698 198 CURVE SMOOTH"
);
}
);
width = 1406;
}
);
leftKerningGroup = o;
rightKerningGroup = q;
unicode = 0071;
},
{
color = 8;
glyphname = r;
lastChange = "2021-02-28 14:49:19 +0000";
layers = (
{
anchors = (
{
name = bottom;
position = "{386, 0}";
},
{
name = top;
position = "{558, 1100}";
}
);
layerId = "CA54B7DC-FBBB-40FE-ACF3-AABDD76D6A7B";
paths = (
{
closed = 1;
nodes = (
"316 44 LINE",
"100 44 LINE",
"100 0 LINE",
"666 0 LINE",
"666 44 LINE",
"364 44 LINE",
"364 740 LINE",
"356 740 LINE",
"356 1100 LINE",
"122 1100 LINE",
"122 1056 LINE",
"316 1056 LINE"
);
},
{
closed = 1;
nodes = (
"474 1122 OFFCURVE",
"330 949 OFFCURVE",
"330 652 CURVE",
"364 652 LINE",
"364 925 OFFCURVE",
"508 1078 OFFCURVE",
"725 1078 CURVE SMOOTH",
"882 1078 OFFCURVE",
"968 1008 OFFCURVE",
"964 879 CURVE",
"983 895 LINE",
"926 901 OFFCURVE",
"883 880 OFFCURVE",
"883 834 CURVE SMOOTH",
"883 802 OFFCURVE",
"907 781 OFFCURVE",
"939 781 CURVE SMOOTH",
"983 781 OFFCURVE",
"1013 818 OFFCURVE",
"1013 875 CURVE SMOOTH",
"1013 1043 OFFCURVE",
"897 1122 OFFCURVE",
"725 1122 CURVE SMOOTH"
);
}
);
width = 1121;
},
{
anchors = (
{
name = bottom;
position = "{368, 0}";
},
{
name = top;
position = "{472, 1080}";
}
);
layerId = "1E61A082-F045-49A7-AB52-DD1B03FD9B54";
paths = (
{
closed = 1;
nodes = (
"264 36 LINE",
"34 36 LINE",
"34 0 LINE",
"680 0 LINE",
"680 36 LINE",
"312 36 LINE",
"312 720 LINE",
"304 720 LINE",
"304 1080 LINE",
"57 1080 LINE",
"57 1044 LINE",
"264 1044 LINE"
);
},
{
closed = 1;
nodes = (
"400 1104 OFFCURVE",
"284 931 OFFCURVE",
"284 634 CURVE",
"312 634 LINE",
"312 911 OFFCURVE",
"427 1066 OFFCURVE",
"613 1066 CURVE SMOOTH",
"753 1066 OFFCURVE",
"829 1004 OFFCURVE",
"826 891 CURVE",
"845 907 LINE",
"785 913 OFFCURVE",
"741 892 OFFCURVE",
"741 846 CURVE SMOOTH",
"741 814 OFFCURVE",
"765 793 OFFCURVE",
"797 793 CURVE SMOOTH",
"841 793 OFFCURVE",
"871 830 OFFCURVE",
"871 887 CURVE SMOOTH",
"871 1034 OFFCURVE",
"767 1104 OFFCURVE",
"613 1104 CURVE SMOOTH"
);
}
);
width = 947;
},
{
anchors = (
{
name = bottom;
position = "{456, 0}";
},
{
name = top;
position = "{624, 1160}";
}
);
layerId = "219068EA-2B9B-40DC-949E-B60449C01B8A";
paths = (
{
closed = 1;
nodes = (
"224 210 LINE",
"74 210 LINE",
"74 0 LINE",
"858 0 LINE",
"858 210 LINE",
"624 210 LINE",
"624 769 LINE",
"584 761 LINE",
"584 1160 LINE",
"80 1160 LINE",
"80 950 LINE",
"224 950 LINE"
);
},
{
closed = 1;
nodes = (
"724 1192 OFFCURVE",
"520 1082 OFFCURVE",
"514 719 CURVE",
"624 719 LINE",
"624 936 OFFCURVE",
"755 1025 OFFCURVE",
"880 1025 CURVE SMOOTH",
"952 1025 OFFCURVE",
"997 1002 OFFCURVE",
"1013 961 CURVE",
"1035 1091 LINE",
"875 1103 OFFCURVE",
"807 1040 OFFCURVE",
"807 927 CURVE SMOOTH",
"807 830 OFFCURVE",
"884 761 OFFCURVE",
"1001 761 CURVE SMOOTH",
"1136 761 OFFCURVE",
"1219 846 OFFCURVE",
"1219 966 CURVE SMOOTH",
"1219 1095 OFFCURVE",
"1109 1192 OFFCURVE",
"943 1192 CURVE SMOOTH"
);
}
);
width = 1243;
},
{
anchors = (
{
name = bottom;
position = "{477, -1}";
},
{
name = top;
position = "{575, 1140}";
}
);
layerId = "0C29AA02-E021-4BD1-A2C4-87F681D64C35";
paths = (
{
closed = 1;
nodes = (
"208 192 LINE",
"48 192 LINE",
"48 0 LINE",
"896 0 LINE",
"896 192 LINE",
"608 192 LINE",
"608 748 LINE",
"568 740 LINE",
"568 1140 LINE",
"54 1140 LINE",
"54 948 LINE",
"208 948 LINE"
);
},
{
closed = 1;
nodes = (
"704 1172 OFFCURVE",
"512 1064 OFFCURVE",
"506 707 CURVE",
"608 707 LINE",
"608 934 OFFCURVE",
"739 1027 OFFCURVE",
"864 1027 CURVE SMOOTH",
"933 1027 OFFCURVE",
"976 998 OFFCURVE",
"991 949 CURVE",
"993 1069 LINE",
"833 1081 OFFCURVE",
"765 1018 OFFCURVE",
"765 905 CURVE SMOOTH",
"765 808 OFFCURVE",
"842 739 OFFCURVE",
"959 739 CURVE SMOOTH",
"1091 739 OFFCURVE",
"1173 826 OFFCURVE",
"1173 950 CURVE SMOOTH",
"1173 1077 OFFCURVE",
"1068 1172 OFFCURVE",
"911 1172 CURVE SMOOTH"
);
}
);
width = 1185;
}
);
leftKerningGroup = n;
rightKerningGroup = r;
unicode = 0072;
},
{
color = 8;
glyphname = s;
lastChange = "2021-02-28 14:49:18 +0000";
layers = (
{
anchors = (
{
name = bottom;
position = "{645, 0}";
},
{
name = top;
position = "{597, 1100}";
}
);
layerId = "CA54B7DC-FBBB-40FE-ACF3-AABDD76D6A7B";
paths = (
{
closed = 1;
nodes = (
"190 658 OFFCURVE",
"346 594 OFFCURVE",
"531 556 CURVE SMOOTH",
"697 522 LINE SMOOTH",
"846 491 OFFCURVE",
"1004 436 OFFCURVE",
"1004 272 CURVE SMOOTH",
"1004 119 OFFCURVE",
"881 28 OFFCURVE",
"678 28 CURVE SMOOTH",
"485 28 OFFCURVE",
"308 115 OFFCURVE",
"234 360 CURVE",
"198 360 LINE",
"263 86 OFFCURVE",
"461 -16 OFFCURVE",
"682 -16 CURVE SMOOTH",
"905 -16 OFFCURVE",
"1052 92 OFFCURVE",
"1052 272 CURVE SMOOTH",
"1052 472 OFFCURVE",
"860 533 OFFCURVE",
"705 565 CURVE SMOOTH",
"541 599 LINE SMOOTH",
"372 634 OFFCURVE",
"238 684 OFFCURVE",
"238 844 CURVE SMOOTH",
"238 991 OFFCURVE",
"360 1072 OFFCURVE",
"543 1072 CURVE SMOOTH",
"715 1072 OFFCURVE",
"903 986 OFFCURVE",
"963 750 CURVE",
"999 750 LINE",
"946 1013 OFFCURVE",
"752 1116 OFFCURVE",
"543 1116 CURVE SMOOTH",
"331 1116 OFFCURVE",
"190 1014 OFFCURVE",
"190 844 CURVE SMOOTH"
);
},
{
closed = 1;
nodes = (
"963 1100 LINE",
"963 786 LINE",
"999 750 LINE",
"1007 750 LINE",
"1007 1100 LINE"
);
},
{
closed = 1;
nodes = (
"234 0 LINE",
"234 324 LINE",
"198 360 LINE",
"190 360 LINE",
"190 0 LINE"
);
}
);
width = 1230;
},
{
anchors = (
{
name = bottom;
position = "{601, 0}";
},
{
name = top;
position = "{559, 1080}";
}
);
layerId = "1E61A082-F045-49A7-AB52-DD1B03FD9B54";
paths = (
{
closed = 1;
nodes = (
"172 661 OFFCURVE",
"311 592 OFFCURVE",
"502 548 CURVE SMOOTH",
"648 514 LINE SMOOTH",
"800 479 OFFCURVE",
"944 419 OFFCURVE",
"944 263 CURVE SMOOTH",
"944 109 OFFCURVE",
"832 22 OFFCURVE",
"640 22 CURVE SMOOTH",
"454 22 OFFCURVE",
"286 123 OFFCURVE",
"216 400 CURVE",
"180 400 LINE",
"239 98 OFFCURVE",
"430 -16 OFFCURVE",
"644 -16 CURVE SMOOTH",
"856 -16 OFFCURVE",
"992 86 OFFCURVE",
"992 263 CURVE SMOOTH",
"992 446 OFFCURVE",
"831 512 OFFCURVE",
"656 553 CURVE SMOOTH",
"512 587 LINE SMOOTH",
"368 621 OFFCURVE",
"220 669 OFFCURVE",
"220 833 CURVE SMOOTH",
"220 980 OFFCURVE",
"330 1058 OFFCURVE",
"504 1058 CURVE SMOOTH",
"668 1058 OFFCURVE",
"848 961 OFFCURVE",
"902 700 CURVE",
"938 700 LINE",
"890 983 OFFCURVE",
"704 1096 OFFCURVE",
"504 1096 CURVE SMOOTH",
"302 1096 OFFCURVE",
"172 1000 OFFCURVE",
"172 833 CURVE SMOOTH"
);
},
{
closed = 1;
nodes = (
"906 1080 LINE",
"906 732 LINE",
"938 700 LINE",
"946 700 LINE",
"946 1080 LINE"
);
},
{
closed = 1;
nodes = (
"212 0 LINE",
"212 368 LINE",
"180 400 LINE",
"172 400 LINE",
"172 0 LINE"
);
}
);
width = 1144;
},
{
anchors = (
{
name = bottom;
position = "{667, 0}";
},
{
name = top;
position = "{601, 1160}";
}
);
layerId = "219068EA-2B9B-40DC-949E-B60449C01B8A";
paths = (
{
closed = 1;
nodes = (
"90 588 OFFCURVE",
"250 479 OFFCURVE",
"530 426 CURVE SMOOTH",
"662 401 LINE SMOOTH",
"761 382 OFFCURVE",
"808 349 OFFCURVE",
"808 290 CURVE SMOOTH",
"808 231 OFFCURVE",
"756 196 OFFCURVE",
"678 196 CURVE SMOOTH",
"597 196 OFFCURVE",
"469 233 OFFCURVE",
"370 380 CURVE",
"304 380 LINE",
"324 99 OFFCURVE",
"511 -26 OFFCURVE",
"765 -26 CURVE SMOOTH",
"1021 -26 OFFCURVE",
"1190 99 OFFCURVE",
"1190 348 CURVE SMOOTH",
"1190 588 OFFCURVE",
"1014 693 OFFCURVE",
"742 745 CURVE SMOOTH",
"610 770 LINE SMOOTH",
"507 790 OFFCURVE",
"462 824 OFFCURVE",
"462 879 CURVE SMOOTH",
"462 934 OFFCURVE",
"514 964 OFFCURVE",
"583 964 CURVE SMOOTH",
"654 964 OFFCURVE",
"784 932 OFFCURVE",
"872 800 CURVE",
"934 800 LINE",
"914 1074 OFFCURVE",
"725 1186 OFFCURVE",
"496 1186 CURVE SMOOTH",
"262 1186 OFFCURVE",
"90 1074 OFFCURVE",
"90 831 CURVE SMOOTH"
);
},
{
closed = 1;
nodes = (
"878 1160 LINE",
"878 912 LINE",
"934 800 LINE",
"1120 800 LINE",
"1120 1160 LINE"
);
},
{
closed = 1;
nodes = (
"364 0 LINE",
"364 259 LINE",
"304 380 LINE",
"122 380 LINE",
"122 0 LINE"
);
}
);
width = 1270;
},
{
anchors = (
{
name = bottom;
position = "{615, 0}";
},
{
name = top;
position = "{563, 1140}";
}
);
layerId = "0C29AA02-E021-4BD1-A2C4-87F681D64C35";
paths = (
{
closed = 1;
nodes = (
"70 588 OFFCURVE",
"223 471 OFFCURVE",
"495 409 CURVE SMOOTH",
"608 383 LINE SMOOTH",
"716 358 OFFCURVE",
"768 329 OFFCURVE",
"768 265 CURVE SMOOTH",
"768 195 OFFCURVE",
"714 160 OFFCURVE",
"626 160 CURVE SMOOTH",
"540 160 OFFCURVE",
"399 208 OFFCURVE",
"294 400 CURVE",
"238 400 LINE",
"264 97 OFFCURVE",
"476 -26 OFFCURVE",
"711 -26 CURVE SMOOTH",
"953 -26 OFFCURVE",
"1116 97 OFFCURVE",
"1116 342 CURVE SMOOTH",
"1116 580 OFFCURVE",
"948 681 OFFCURVE",
"683 742 CURVE SMOOTH",
"571 768 LINE SMOOTH",
"465 793 OFFCURVE",
"418 829 OFFCURVE",
"418 890 CURVE SMOOTH",
"418 955 OFFCURVE",
"470 980 OFFCURVE",
"547 980 CURVE SMOOTH",
"621 980 OFFCURVE",
"763 937 OFFCURVE",
"856 760 CURVE",
"908 760 LINE",
"870 1052 OFFCURVE",
"675 1166 OFFCURVE",
"457 1166 CURVE SMOOTH",
"231 1166 OFFCURVE",
"70 1052 OFFCURVE",
"70 821 CURVE SMOOTH"
);
},
{
closed = 1;
nodes = (
"830 1140 LINE",
"830 868 LINE",
"908 760 LINE",
"1044 760 LINE",
"1044 1140 LINE"
);
},
{
closed = 1;
nodes = (
"320 0 LINE",
"320 290 LINE",
"238 400 LINE",
"106 400 LINE",
"106 0 LINE"
);
}
);
width = 1178;
}
);
leftKerningGroup = s;
rightKerningGroup = s;
unicode = 0073;
},
{
color = 8;
glyphname = t;
lastChange = "2021-02-28 14:49:18 +0000";
layers = (
{
anchors = (
{
name = bottom;
position = "{619, 0}";
},
{
name = center;
position = "{547, 550}";
},
{
name = top;
position = "{547, 1100}";
},
{
name = topright;
position = "{434, 1600}";
}
);
layerId = "CA54B7DC-FBBB-40FE-ACF3-AABDD76D6A7B";
paths = (
{
closed = 1;
nodes = (
"352 1264 LINE SMOOTH",
"352 1142 OFFCURVE",
"310 1100 OFFCURVE",
"192 1100 CURVE SMOOTH",
"26 1100 LINE",
"26 1056 LINE",
"346 1056 LINE",
"346 342 LINE SMOOTH",
"346 103 OFFCURVE",
"451 -20 OFFCURVE",
"648 -20 CURVE SMOOTH",
"845 -20 OFFCURVE",
"950 106 OFFCURVE",
"950 342 CURVE SMOOTH",
"950 600 LINE",
"906 600 LINE",
"906 342 LINE SMOOTH",
"906 135 OFFCURVE",
"822 24 OFFCURVE",
"650 24 CURVE SMOOTH",
"478 24 OFFCURVE",
"394 135 OFFCURVE",
"394 342 CURVE SMOOTH",
"394 1400 LINE",
"352 1400 LINE"
);
},
{
closed = 1;
nodes = (
"394 1056 LINE",
"1010 1056 LINE",
"1010 1100 LINE",
"394 1100 LINE"
);
}
);
width = 1092;
},
{
anchors = (
{
name = bottom;
position = "{460, 0}";
},
{
name = center;
position = "{460, 540}";
},
{
name = top;
position = "{460, 1080}";
},
{
name = topright;
position = "{362, 1600}";
}
);
layerId = "1E61A082-F045-49A7-AB52-DD1B03FD9B54";
paths = (
{
closed = 1;
nodes = (
"284 1244 LINE SMOOTH",
"284 1122 OFFCURVE",
"242 1080 OFFCURVE",
"124 1080 CURVE SMOOTH",
"-6 1080 LINE",
"-6 1042 LINE",
"274 1042 LINE",
"274 282 LINE SMOOTH",
"274 82 OFFCURVE",
"362 -20 OFFCURVE",
"526 -20 CURVE SMOOTH",
"690 -20 OFFCURVE",
"778 85 OFFCURVE",
"778 282 CURVE SMOOTH",
"778 660 LINE",
"738 660 LINE",
"738 282 LINE SMOOTH",
"738 111 OFFCURVE",
"668 20 OFFCURVE",
"530 20 CURVE SMOOTH",
"392 20 OFFCURVE",
"322 111 OFFCURVE",
"322 282 CURVE SMOOTH",
"322 1380 LINE",
"284 1380 LINE"
);
},
{
closed = 1;
nodes = (
"322 1042 LINE",
"872 1042 LINE",
"872 1080 LINE",
"322 1080 LINE"
);
}
);
width = 952;
},
{
anchors = (
{
name = bottom;
position = "{588, 0}";
},
{
name = center;
position = "{558, 580}";
},
{
name = top;
position = "{558, 1160}";
},
{
name = topright;
position = "{630, 1726}";
}
);
layerId = "219068EA-2B9B-40DC-949E-B60449C01B8A";
paths = (
{
closed = 1;
nodes = (
"376 1452 LINE SMOOTH",
"376 1236 OFFCURVE",
"290 1142 OFFCURVE",
"2 1142 CURVE SMOOTH",
"-18 1142 LINE",
"-18 930 LINE",
"260 930 LINE",
"230 425 LINE SMOOTH",
"213 146 OFFCURVE",
"368 -24 OFFCURVE",
"667 -24 CURVE SMOOTH",
"966 -24 OFFCURVE",
"1104 146 OFFCURVE",
"1104 405 CURVE SMOOTH",
"1104 634 LINE",
"854 634 LINE",
"854 409 LINE SMOOTH",
"854 333 OFFCURVE",
"818 286 OFFCURVE",
"742 286 CURVE SMOOTH",
"668 286 OFFCURVE",
"630 335 OFFCURVE",
"630 409 CURVE SMOOTH",
"630 1460 LINE",
"376 1460 LINE"
);
},
{
closed = 1;
nodes = (
"630 930 LINE",
"1124 930 LINE",
"1124 1160 LINE",
"630 1160 LINE"
);
}
);
width = 1180;
},
{
anchors = (
{
name = bottom;
position = "{544, 0}";
},
{
name = center;
position = "{526, 570}";
},
{
name = top;
position = "{526, 1140}";
},
{
name = topright;
position = "{600, 1726}";
}
);
layerId = "0C29AA02-E021-4BD1-A2C4-87F681D64C35";
paths = (
{
closed = 1;
nodes = (
"376 1432 LINE SMOOTH",
"376 1216 OFFCURVE",
"297 1122 OFFCURVE",
"32 1122 CURVE SMOOTH",
"-28 1122 LINE",
"-28 932 LINE",
"234 932 LINE",
"202 379 LINE SMOOTH",
"187 128 OFFCURVE",
"328 -24 OFFCURVE",
"589 -24 CURVE SMOOTH",
"850 -24 OFFCURVE",
"978 128 OFFCURVE",
"978 359 CURVE SMOOTH",
"978 720 LINE",
"774 720 LINE",
"774 371 LINE SMOOTH",
"774 303 OFFCURVE",
"748 264 OFFCURVE",
"687 264 CURVE SMOOTH",
"627 264 OFFCURVE",
"600 305 OFFCURVE",
"600 371 CURVE SMOOTH",
"600 1460 LINE",
"376 1460 LINE"
);
},
{
closed = 1;
nodes = (
"600 932 LINE",
"1010 932 LINE",
"1010 1140 LINE",
"600 1140 LINE"
);
}
);
width = 1068;
}
);
leftKerningGroup = t;
rightKerningGroup = t;
unicode = 0074;
},
{
color = 8;
glyphname = u;
lastChange = "2021-02-28 14:49:19 +0000";
layers = (
{
anchors = (
{
name = bottom;
position = "{686, 0}";
},
{
name = ogonek;
position = "{1194, 0}";
},
{
name = top;
position = "{650, 1100}";
},
{
name = topright;
position = "{1096, 1100}";
}
);
layerId = "CA54B7DC-FBBB-40FE-ACF3-AABDD76D6A7B";
paths = (
{
closed = 1;
nodes = (
"1096 1100 LINE",
"854 1100 LINE",
"854 1056 LINE",
"1048 1056 LINE",
"1048 390 LINE",
"1056 390 LINE",
"1056 0 LINE",
"1290 0 LINE",
"1290 44 LINE",
"1096 44 LINE"
);
},
{
closed = 1;
nodes = (
"1048 548 LINE",
"1048 189 OFFCURVE",
"841 28 OFFCURVE",
"620 28 CURVE SMOOTH",
"427 28 OFFCURVE",
"306 119 OFFCURVE",
"306 336 CURVE SMOOTH",
"306 1102 LINE",
"72 1102 LINE",
"72 1058 LINE",
"258 1058 LINE",
"258 336 LINE SMOOTH",
"258 82 OFFCURVE",
"407 -16 OFFCURVE",
"618 -16 CURVE SMOOTH",
"861 -16 OFFCURVE",
"1083 146 OFFCURVE",
"1083 548 CURVE"
);
}
);
width = 1370;
},
{
anchors = (
{
name = bottom;
position = "{629, 0}";
},
{
name = ogonek;
position = "{1109, 0}";
},
{
name = top;
position = "{583, 1080}";
},
{
name = topright;
position = "{1010, 1080}";
}
);
layerId = "1E61A082-F045-49A7-AB52-DD1B03FD9B54";
paths = (
{
closed = 1;
nodes = (
"1010 1080 LINE",
"755 1080 LINE",
"755 1044 LINE",
"962 1044 LINE",
"962 380 LINE",
"970 380 LINE",
"970 0 LINE",
"1217 0 LINE",
"1217 36 LINE",
"1010 36 LINE"
);
},
{
closed = 1;
nodes = (
"962 498 LINE",
"962 172 OFFCURVE",
"769 22 OFFCURVE",
"562 22 CURVE SMOOTH",
"387 22 OFFCURVE",
"280 113 OFFCURVE",
"280 306 CURVE SMOOTH",
"280 1080 LINE",
"34 1080 LINE",
"34 1044 LINE",
"232 1044 LINE",
"232 306 LINE SMOOTH",
"232 82 OFFCURVE",
"368 -16 OFFCURVE",
"560 -16 CURVE SMOOTH",
"789 -16 OFFCURVE",
"989 128 OFFCURVE",
"989 498 CURVE"
);
}
);
width = 1243;
},
{
anchors = (
{
name = bottom;
position = "{754, 0}";
},
{
name = ogonek;
position = "{1240, 0}";
},
{
name = top;
position = "{728, 1160}";
},
{
name = topright;
position = "{1292, 1160}";
}
);
layerId = "219068EA-2B9B-40DC-949E-B60449C01B8A";
paths = (
{
closed = 1;
nodes = (
"1300 1160 LINE",
"756 1160 LINE",
"756 950 LINE",
"900 950 LINE",
"900 368 LINE",
"950 376 LINE",
"950 0 LINE",
"1441 0 LINE",
"1441 210 LINE",
"1300 210 LINE"
);
},
{
closed = 1;
nodes = (
"900 435 LINE",
"900 289 OFFCURVE",
"820 238 OFFCURVE",
"729 238 CURVE SMOOTH",
"641 238 OFFCURVE",
"582 289 OFFCURVE",
"582 389 CURVE SMOOTH",
"582 1160 LINE",
"68 1160 LINE",
"68 950 LINE",
"182 950 LINE",
"182 378 LINE SMOOTH",
"182 97 OFFCURVE",
"343 -26 OFFCURVE",
"569 -26 CURVE SMOOTH",
"885 -26 OFFCURVE",
"967 156 OFFCURVE",
"967 437 CURVE"
);
}
);
width = 1485;
},
{
anchors = (
{
name = bottom;
position = "{723, 0}";
},
{
name = ogonek;
position = "{1188, 0}";
},
{
name = top;
position = "{687, 1140}";
},
{
name = topright;
position = "{1248, 1140}";
}
);
layerId = "0C29AA02-E021-4BD1-A2C4-87F681D64C35";
paths = (
{
closed = 1;
nodes = (
"1248 1140 LINE",
"694 1140 LINE",
"694 948 LINE",
"848 948 LINE",
"848 336 LINE",
"898 344 LINE",
"898 0 LINE",
"1402 0 LINE",
"1402 192 LINE",
"1248 192 LINE"
);
},
{
closed = 1;
nodes = (
"848 393 LINE",
"848 262 OFFCURVE",
"777 216 OFFCURVE",
"696 216 CURVE SMOOTH",
"619 216 OFFCURVE",
"568 260 OFFCURVE",
"568 347 CURVE SMOOTH",
"568 1140 LINE",
"46 1140 LINE",
"46 948 LINE",
"168 948 LINE",
"168 357 LINE SMOOTH",
"168 91 OFFCURVE",
"329 -26 OFFCURVE",
"544 -26 CURVE SMOOTH",
"833 -26 OFFCURVE",
"911 139 OFFCURVE",
"911 395 CURVE"
);
}
);
width = 1430;
}
);
leftKerningGroup = u;
rightKerningGroup = u;
unicode = 0075;
},
{
color = 8;
glyphname = v;
lastChange = "2021-02-28 14:49:18 +0000";
layers = (
{
anchors = (
{
name = bottom;
position = "{619, 0}";
},
{
name = top;
position = "{619, 1100}";
}
);
layerId = "CA54B7DC-FBBB-40FE-ACF3-AABDD76D6A7B";
paths = (
{
closed = 1;
nodes = (
"598 0 LINE",
"640 0 LINE",
"1068 1056 LINE",
"1208 1056 LINE",
"1208 1100 LINE",
"794 1100 LINE",
"794 1056 LINE",
"1021 1056 LINE",
"613 45 LINE",
"629 45 LINE",
"222 1056 LINE",
"449 1056 LINE",
"449 1100 LINE",
"30 1100 LINE",
"30 1056 LINE",
"170 1056 LINE"
);
}
);
width = 1238;
},
{
anchors = (
{
name = bottom;
position = "{579, 0}";
},
{
name = top;
position = "{579, 1080}";
}
);
layerId = "1E61A082-F045-49A7-AB52-DD1B03FD9B54";
paths = (
{
closed = 1;
nodes = (
"559 0 LINE",
"599 0 LINE",
"1000 1044 LINE",
"1146 1044 LINE",
"1146 1080 LINE",
"712 1080 LINE",
"712 1044 LINE",
"957 1044 LINE",
"576 45 LINE",
"591 45 LINE",
"209 1044 LINE",
"454 1044 LINE",
"454 1080 LINE",
"12 1080 LINE",
"12 1044 LINE",
"158 1044 LINE"
);
}
);
width = 1158;
},
{
anchors = (
{
name = bottom;
position = "{699, 0}";
},
{
name = top;
position = "{699, 1160}";
}
);
layerId = "219068EA-2B9B-40DC-949E-B60449C01B8A";
paths = (
{
closed = 1;
nodes = (
"532 0 LINE",
"866 0 LINE",
"1272 950 LINE",
"1366 950 LINE",
"1366 1160 LINE",
"830 1160 LINE",
"830 950 LINE",
"992 950 LINE",
"706 272 LINE",
"821 270 LINE",
"553 950 LINE",
"719 950 LINE",
"719 1160 LINE",
"32 1160 LINE",
"32 950 LINE",
"126 950 LINE"
);
}
);
width = 1398;
},
{
anchors = (
{
name = bottom;
position = "{645, 0}";
},
{
name = top;
position = "{645, 1140}";
}
);
layerId = "0C29AA02-E021-4BD1-A2C4-87F681D64C35";
paths = (
{
closed = 1;
nodes = (
"505 0 LINE",
"784 0 LINE",
"1173 948 LINE",
"1270 948 LINE",
"1270 1140 LINE",
"776 1140 LINE",
"776 948 LINE",
"945 948 LINE",
"672 272 LINE",
"797 270 LINE",
"541 948 LINE",
"714 948 LINE",
"714 1140 LINE",
"19 1140 LINE",
"19 948 LINE",
"116 948 LINE"
);
}
);
width = 1289;
}
);
leftKerningGroup = v;
rightKerningGroup = v;
unicode = 0076;
},
{
color = 8;
glyphname = w;
lastChange = "2021-02-28 14:49:19 +0000";
layers = (
{
anchors = (
{
name = bottom;
position = "{856, 0}";
},
{
name = top;
position = "{856, 1100}";
}
);
layerId = "CA54B7DC-FBBB-40FE-ACF3-AABDD76D6A7B";
paths = (
{
closed = 1;
nodes = (
"1142 0 LINE",
"1186 0 LINE",
"1543 1056 LINE",
"1682 1056 LINE",
"1682 1100 LINE",
"1267 1100 LINE",
"1267 1056 LINE",
"1496 1056 LINE",
"1158 49 LINE",
"1174 49 LINE",
"836 1056 LINE",
"1065 1056 LINE",
"1065 1100 LINE",
"646 1100 LINE",
"646 1056 LINE",
"785 1056 LINE"
);
},
{
closed = 1;
nodes = (
"526 0 LINE",
"570 0 LINE",
"872 894 LINE",
"850 965 LINE",
"542 49 LINE",
"558 49 LINE",
"220 1056 LINE",
"449 1056 LINE",
"449 1100 LINE",
"30 1100 LINE",
"30 1056 LINE",
"169 1056 LINE"
);
}
);
width = 1712;
},
{
anchors = (
{
name = bottom;
position = "{778, 0}";
},
{
name = top;
position = "{778, 1080}";
}
);
layerId = "1E61A082-F045-49A7-AB52-DD1B03FD9B54";
paths = (
{
closed = 1;
nodes = (
"1037 0 LINE",
"1079 0 LINE",
"1400 1044 LINE",
"1544 1044 LINE",
"1544 1080 LINE",
"1111 1080 LINE",
"1111 1044 LINE",
"1358 1044 LINE",
"1054 49 LINE",
"1070 49 LINE",
"766 1044 LINE",
"1013 1044 LINE",
"1013 1080 LINE",
"572 1080 LINE",
"572 1044 LINE",
"716 1044 LINE"
);
},
{
closed = 1;
nodes = (
"477 0 LINE",
"519 0 LINE",
"794 895 LINE",
"773 961 LINE",
"494 49 LINE",
"510 49 LINE",
"206 1044 LINE",
"453 1044 LINE",
"453 1080 LINE",
"12 1080 LINE",
"12 1044 LINE",
"156 1044 LINE"
);
}
);
width = 1556;
},
{
anchors = (
{
name = bottom;
position = "{1033, 0}";
},
{
name = top;
position = "{1033, 1160}";
}
);
layerId = "219068EA-2B9B-40DC-949E-B60449C01B8A";
paths = (
{
closed = 1;
nodes = (
"1236 0 LINE",
"1561 0 LINE",
"1943 950 LINE",
"2033 950 LINE",
"2033 1160 LINE",
"1514 1160 LINE",
"1514 950 LINE",
"1666 950 LINE",
"1397 272 LINE",
"1506 270 LINE",
"1253 950 LINE",
"1407 950 LINE",
"1407 1160 LINE",
"756 1160 LINE",
"756 950 LINE",
"854 950 LINE"
);
},
{
closed = 1;
nodes = (
"504 0 LINE",
"832 0 LINE",
"1098 663 LINE",
"979 1018 LINE",
"683 272 LINE",
"792 270 LINE",
"539 950 LINE",
"651 950 LINE",
"651 1160 LINE",
"32 1160 LINE",
"32 950 LINE",
"122 950 LINE"
);
}
);
width = 2065;
},
{
anchors = (
{
name = bottom;
position = "{957, 0}";
},
{
name = top;
position = "{957, 1140}";
}
);
layerId = "0C29AA02-E021-4BD1-A2C4-87F681D64C35";
paths = (
{
closed = 1;
nodes = (
"1168 0 LINE",
"1436 0 LINE",
"1800 948 LINE",
"1894 948 LINE",
"1894 1140 LINE",
"1426 1140 LINE",
"1426 948 LINE",
"1575 948 LINE",
"1320 272 LINE",
"1448 270 LINE",
"1210 948 LINE",
"1361 948 LINE",
"1361 1140 LINE",
"713 1140 LINE",
"713 948 LINE",
"804 948 LINE"
);
},
{
closed = 1;
nodes = (
"477 0 LINE",
"745 0 LINE",
"974 596 LINE",
"883 901 LINE",
"646 272 LINE",
"774 270 LINE",
"536 948 LINE",
"641 948 LINE",
"641 1140 LINE",
"19 1140 LINE",
"19 948 LINE",
"113 948 LINE"
);
}
);
width = 1913;
}
);
leftKerningGroup = v;
rightKerningGroup = v;
unicode = 0077;
},
{
color = 8;
glyphname = x;
lastChange = "2021-02-28 14:49:18 +0000";
layers = (
{
anchors = (
{
name = bottom;
position = "{667, 0}";
},
{
name = top;
position = "{667, 1100}";
}
);
layerId = "CA54B7DC-FBBB-40FE-ACF3-AABDD76D6A7B";
paths = (
{
closed = 1;
nodes = (
"647 542 LINE",
"680 542 LINE",
"1090 1056 LINE",
"1227 1056 LINE",
"1227 1100 LINE",
"826 1100 LINE",
"826 1056 LINE",
"1034 1056 LINE",
"647 567 LINE",
"686 567 LINE",
"299 1056 LINE",
"507 1056 LINE",
"507 1100 LINE",
"101 1100 LINE",
"101 1056 LINE",
"238 1056 LINE"
);
},
{
closed = 1;
nodes = (
"686 578 LINE",
"649 578 LINE",
"224 44 LINE",
"74 44 LINE",
"74 0 LINE",
"497 0 LINE",
"497 44 LINE",
"280 44 LINE",
"682 553 LINE",
"647 553 LINE",
"1049 44 LINE",
"832 44 LINE",
"832 0 LINE",
"1260 0 LINE",
"1260 44 LINE",
"1110 44 LINE"
);
}
);
width = 1334;
},
{
anchors = (
{
name = bottom;
position = "{611, 0}";
},
{
name = top;
position = "{611, 1080}";
}
);
layerId = "1E61A082-F045-49A7-AB52-DD1B03FD9B54";
paths = (
{
closed = 1;
nodes = (
"591 532 LINE",
"622 532 LINE",
"1006 1044 LINE",
"1145 1044 LINE",
"1145 1080 LINE",
"727 1080 LINE",
"727 1044 LINE",
"956 1044 LINE",
"594 557 LINE",
"629 557 LINE",
"267 1044 LINE",
"496 1044 LINE",
"496 1080 LINE",
"68 1080 LINE",
"68 1044 LINE",
"207 1044 LINE"
);
},
{
closed = 1;
nodes = (
"628 568 LINE",
"593 568 LINE",
"195 36 LINE",
"42 36 LINE",
"42 0 LINE",
"483 0 LINE",
"483 36 LINE",
"245 36 LINE",
"621 543 LINE",
"590 543 LINE",
"966 36 LINE",
"728 36 LINE",
"728 0 LINE",
"1179 0 LINE",
"1179 36 LINE",
"1026 36 LINE"
);
}
);
width = 1221;
},
{
anchors = (
{
name = bottom;
position = "{716, 0}";
},
{
name = top;
position = "{716, 1160}";
}
);
layerId = "219068EA-2B9B-40DC-949E-B60449C01B8A";
paths = (
{
closed = 1;
nodes = (
"515 510 LINE",
"872 510 LINE",
"1257 950 LINE",
"1359 950 LINE",
"1359 1160 LINE",
"828 1160 LINE",
"828 950 LINE",
"929 950 LINE",
"705 688 LINE",
"832 688 LINE",
"622 950 LINE",
"729 950 LINE",
"729 1160 LINE",
"58 1160 LINE",
"58 950 LINE",
"154 950 LINE"
);
},
{
closed = 1;
nodes = (
"903 664 LINE",
"552 664 LINE",
"155 210 LINE",
"50 210 LINE",
"50 0 LINE",
"596 0 LINE",
"596 210 LINE",
"483 210 LINE",
"719 486 LINE",
"592 486 LINE",
"813 210 LINE",
"694 210 LINE",
"694 0 LINE",
"1380 0 LINE",
"1380 210 LINE",
"1280 210 LINE"
);
}
);
width = 1431;
},
{
anchors = (
{
name = bottom;
position = "{682, 0}";
},
{
name = top;
position = "{682, 1140}";
}
);
layerId = "0C29AA02-E021-4BD1-A2C4-87F681D64C35";
paths = (
{
closed = 1;
nodes = (
"489 500 LINE",
"832 500 LINE",
"1202 948 LINE",
"1304 948 LINE",
"1304 1140 LINE",
"792 1140 LINE",
"792 948 LINE",
"919 948 LINE",
"700 678 LINE",
"790 678 LINE",
"593 948 LINE",
"730 948 LINE",
"730 1140 LINE",
"49 1140 LINE",
"49 948 LINE",
"144 948 LINE"
);
},
{
closed = 1;
nodes = (
"873 654 LINE",
"522 654 LINE",
"141 192 LINE",
"36 192 LINE",
"36 0 LINE",
"564 0 LINE",
"564 192 LINE",
"424 192 LINE",
"654 476 LINE",
"568 476 LINE",
"776 192 LINE",
"627 192 LINE",
"627 0 LINE",
"1328 0 LINE",
"1328 192 LINE",
"1229 192 LINE"
);
}
);
width = 1364;
}
);
leftKerningGroup = x;
rightKerningGroup = x;
unicode = 0078;
},
